Tilt-Neon.ufo
<glyph name="exclam" format="2">
  <advance width="261"/>
  <unicode hex="0021"/>
  <outline>
    <contour>
      <point x="132" y="640" type="move" name="STVMNETF"/>
      <point x="132.0" y="606" name="TMGMGFKW"/>
      <point x="132.0" y="573" name="RQIKCPQJ"/>
      <point x="132" y="539" type="curve" smooth="yes" name="ZCWSUGNR"/>
      <point x="132.0" y="481.0" name="XQRWHQIK"/>
      <point x="132.0" y="422" name="AJLLBOPI"/>
      <point x="132" y="364" type="curve" smooth="yes" name="KTAVNHRA"/>
      <point x="132.0" y="338.0" name="UIEFDLGV"/>
      <point x="132" y="308" name="WJDGRILZ"/>
      <point x="132" y="285" type="curve" name="NLIRWXDV"/>
    </contour>
    <contour>
      <point x="140" y="40.0" type="move" name="BXERVMYZ"/>
      <point x="106" y="45.0" name="FYUSQKQP"/>
      <point x="106" y="79.0" name="VUPGSOCG"/>
      <point x="140" y="84.0" type="curve" name="QPAXYCPD"/>
    </contour>
  </outline>
</glyph>
<glyph name="quotedbl" format="2">
  <advance width="496"/>
  <unicode hex="0022"/>
  <outline>
    <contour>
      <point x="148" y="438" type="move"/>
      <point x="148" y="640" type="line"/>
    </contour>
    <contour>
      <point x="348" y="438" type="move"/>
      <point x="348" y="640" type="line"/>
    </contour>
  </outline>
</glyph>
<glyph name="numbersign" format="2">
  <advance width="700"/>
  <unicode hex="0023"/>
  <outline>
    <contour>
      <point x="255" y="640" type="move" name="ZNCGGYUJ"/>
      <point x="251" y="556" name="NHJAAFJM"/>
      <point x="244" y="503" name="JFJTZDFH"/>
      <point x="231" y="344" type="curve" smooth="yes" name="UCIDBPXV"/>
      <point x="219" y="192" name="WBNMUUWS"/>
      <point x="211" y="120" name="OUHKLSZC"/>
      <point x="207" y="40" type="curve" name="WHLQVEXX"/>
    </contour>
    <contour>
      <point x="493" y="640" type="move" name="VYAPCNSI"/>
      <point x="489" y="554" name="FYXOBKMK"/>
      <point x="481" y="503" name="LAMBXNNV"/>
      <point x="469" y="344" type="curve" smooth="yes" name="GXPEVZMT"/>
      <point x="458" y="192" name="YDQHQHZA"/>
      <point x="450" y="120" name="TWGZXKZI"/>
      <point x="445" y="40" type="curve" name="RXPLOQCM"/>
    </contour>
    <contour>
      <point x="615" y="462" type="move" name="WUBXIIDF"/>
      <point x="582" y="462" name="QGPDIZIV"/>
      <point x="528" y="462" name="BFGASREG"/>
      <point x="500" y="462" type="curve" smooth="yes" name="QLDHCGFB"/>
      <point x="387" y="462" name="EMMMMTLC"/>
      <point x="336" y="462" name="TYRVYYUM"/>
      <point x="222" y="462" type="curve" smooth="yes" name="ZBWQQHXN"/>
      <point x="186" y="462" name="PQARMWHL"/>
      <point x="135" y="462" name="DOYAPJMU"/>
      <point x="85" y="462" type="curve" name="QIKQSXYU"/>
    </contour>
    <contour>
      <point x="615" y="218" type="move" name="HLGHAXQN"/>
      <point x="568" y="218" name="CPKINPKC"/>
      <point x="513" y="218" name="VEITNFEY"/>
      <point x="478" y="218" type="curve" smooth="yes" name="PGOWUFBI"/>
      <point x="365" y="218" name="LBUYTAMH"/>
      <point x="313" y="218" name="RJIRRZEC"/>
      <point x="200" y="218" type="curve" smooth="yes" name="OOMNRGNZ"/>
      <point x="171" y="218" name="TBQVGYVP"/>
      <point x="130" y="218" name="TMZYRZXH"/>
      <point x="85" y="218" type="curve" name="TOOCHIEM"/>
    </contour>
  </outline>
</glyph>
<glyph name="dollar" format="2">
  <advance width="500"/>
  <unicode hex="0024"/>
  <outline>
    <contour>
      <point x="282" y="728" type="move" name="BAVVEPFG"/>
      <point x="274" y="620" name="UWBHQWPS"/>
      <point x="276" y="613" name="UNNEZUEZ"/>
      <point x="328" y="596" type="curve" smooth="yes" name="UQZDAIMF"/>
      <point x="437" y="560" name="KRRVTDGH"/>
      <point x="412" y="576" name="GJYKRBZI"/>
      <point x="328" y="596" type="curve" smooth="yes" name="LFSWPQRE"/>
      <point x="244" y="616" name="HZTYZZZL"/>
      <point x="101.0" y="588.0" name="CTMHYBYH"/>
      <point x="101" y="478" type="curve" smooth="yes" name="KYFQDVIT"/>
      <point x="101" y="329" name="DHQRFGSM"/>
      <point x="421" y="353" name="TMGDBTFL"/>
      <point x="421" y="198" type="curve" smooth="yes" name="UOUCGZKN"/>
      <point x="421.0" y="88.0" name="AQWWSLGW"/>
      <point x="273" y="57" name="CCIJJICH"/>
      <point x="189" y="77" type="curve" smooth="yes" name="BBMRILWC"/>
      <point x="105" y="97" name="JOJDWEQD"/>
      <point x="80" y="108" name="MUBILQAF"/>
      <point x="189" y="77" type="curve" smooth="yes" name="SDIZMYJH"/>
      <point x="242" y="62" name="JFJCIZAL"/>
      <point x="238" y="40" name="AWLJUCPQ"/>
      <point x="230" y="-57" type="curve" name="XNQSZXYX"/>
    </contour>
  </outline>
</glyph>
<glyph name="percent" format="2">
  <advance width="1023"/>
  <unicode hex="0025"/>
  <outline>
    <contour>
      <point x="728" y="45" type="move" name="PMMXVBGH"/>
      <point x="679" y="67" name="DGAVTQKP"/>
      <point x="648" y="120" name="SEICEZRA"/>
      <point x="648" y="186" type="curve" smooth="yes" name="HNPKLEIG"/>
      <point x="648" y="274" name="ZMKZRFUU"/>
      <point x="702" y="337" name="WIMCVMTQ"/>
      <point x="784" y="337" type="curve" smooth="yes" name="SKOQDITV"/>
      <point x="866" y="337" name="XDHRWTQX"/>
      <point x="922" y="274" name="IVULGZGM"/>
      <point x="922" y="186" type="curve" smooth="yes" name="OFYDMNXP"/>
      <point x="922" y="120" name="APQWDFWS"/>
      <point x="890" y="67" name="QYTQARNT"/>
      <point x="839" y="45" type="curve" name="ZXFVHRCU"/>
    </contour>
    <contour>
      <point x="374" y="513" type="move" name="BKCKFVAF"/>
      <point x="383" y="407" name="GBXOFYCY"/>
      <point x="318" y="342" name="GATIKDPK"/>
      <point x="239" y="342" type="curve" smooth="yes" name="EHWEANPB"/>
      <point x="156" y="342" name="HIEGZHSI"/>
      <point x="102" y="406" name="EDLTHDMY"/>
      <point x="102" y="494" type="curve" smooth="yes" name="NRGODLUA"/>
      <point x="102" y="582" name="ORVFDLOX"/>
      <point x="157" y="645" name="ORIUBYNU"/>
      <point x="239" y="645" type="curve" smooth="yes" name="MANVSFHR"/>
      <point x="312" y="645" name="FOGSILFW"/>
      <point x="381" y="601" name="JHSRBHFZ"/>
      <point x="512" y="603" type="curve" smooth="yes" name="NRNNUMLG"/>
      <point x="718" y="603" name="ZTYMVSQG"/>
      <point x="766" y="717" name="NNSMPCCM"/>
      <point x="605" y="482" type="curve" smooth="yes" name="UWAJQZLO"/>
      <point x="527" y="368" name="NWTAVDTN"/>
      <point x="476" y="296" name="YCGOGVMT"/>
      <point x="397" y="182" type="curve" smooth="yes" name="IKMBNRCN"/>
      <point x="364" y="135" name="VPHMJKJU"/>
      <point x="328" y="87" name="DKLQDCVA"/>
      <point x="295" y="40" type="curve" name="QEHQGHDB"/>
    </contour>
  </outline>
</glyph>
<glyph name="ampersand" format="2">
  <advance width="634"/>
  <unicode hex="0026"/>
  <outline>
    <contour>
      <point x="430" y="621" type="move" name="RMAGUWTY"/>
      <point x="386" y="636" name="CTTXJFTS"/>
      <point x="344" y="645" name="JPWFZCVO"/>
      <point x="302" y="645" type="curve" smooth="yes" name="NZCQOROW"/>
      <point x="206" y="645" name="JBAVIVNZ"/>
      <point x="125" y="605" name="CCACTJFP"/>
      <point x="125" y="503" type="curve" smooth="yes" name="LMTBSIYY"/>
      <point x="125" y="409" name="AGZLQNDZ"/>
      <point x="212" y="348" name="QZYAABLX"/>
      <point x="408" y="348" type="curve" smooth="yes" name="OVEWFJHB"/>
      <point x="442" y="348" name="LUMOJJKG"/>
      <point x="474" y="348" name="VYCHBVOQ"/>
      <point x="506" y="348" type="curve" smooth="yes" name="LKNYITAV"/>
      <point x="564" y="348" name="ERIDHVQC"/>
      <point x="563" y="348" name="MPOENPOV"/>
      <point x="505" y="348" type="curve" smooth="yes" name="CIWZOEYE"/>
      <point x="475" y="348" name="JPTOYQJW"/>
      <point x="441" y="348" name="XSFCQPXE"/>
      <point x="408" y="348" type="curve" smooth="yes" name="XOBDOPUS"/>
      <point x="205" y="348" name="YXVHAKMU"/>
      <point x="108" y="294" name="OWMGQPPT"/>
      <point x="108" y="180" type="curve" smooth="yes" name="WVGKUBPR"/>
      <point x="108" y="92" name="BHFESKAR"/>
      <point x="181" y="34" name="KTYVHSEL"/>
      <point x="288" y="34" type="curve" smooth="yes" name="DYDMCRTT"/>
      <point x="397" y="34" name="PGPSTDNK"/>
      <point x="471" y="96" name="ETGKEAGT"/>
      <point x="471" y="198" type="curve" smooth="yes" name="ZQZPUMJI"/>
      <point x="471" y="272" name="QULFRYFG"/>
      <point x="471" y="302" name="LFNGCCVK"/>
      <point x="471" y="370" type="curve" smooth="yes" name="NSDKSJTQ"/>
      <point x="471" y="409" name="TLYWKLKH"/>
      <point x="471" y="437" name="BXIALLJW"/>
      <point x="471" y="471" type="curve" name="DOXFGTRX"/>
    </contour>
  </outline>
</glyph>
<glyph name="quotesingle" format="2">
  <advance width="297"/>
  <unicode hex="0027"/>
  <outline>
    <contour>
      <point x="148" y="438" type="move"/>
      <point x="148" y="640" type="line"/>
    </contour>
  </outline>
</glyph>
<glyph name="parenleft" format="2">
  <advance width="452"/>
  <unicode hex="0028"/>
  <outline>
    <contour>
      <point x="391" y="-136" type="move" name="SCIZNPIG"/>
      <point x="341" y="-122" name="TEHOQYGU"/>
      <point x="292" y="-95" name="EDMCBJUV"/>
      <point x="250" y="-55" type="curve" smooth="yes" name="RTLKUNTK"/>
      <point x="171" y="20" name="FKWFXJLY"/>
      <point x="114" y="140" name="EJWTBLWD"/>
      <point x="114" y="305" type="curve" smooth="yes" name="AOOMUIXZ"/>
      <point x="114" y="470" name="TFDDVJFZ"/>
      <point x="171" y="590" name="JYWQXAGI"/>
      <point x="250" y="665" type="curve" smooth="yes" name="OFTMPKUE"/>
      <point x="292" y="705" name="JLWPUSTA"/>
      <point x="341" y="732" name="LWOOYDKG"/>
      <point x="391" y="746" type="curve" name="ULYQXEPG"/>
    </contour>
  </outline>
</glyph>
<glyph name="parenright" format="2">
  <advance width="452"/>
  <unicode hex="0029"/>
  <outline>
    <contour>
      <point x="60.29374904065992" y="747.0" type="move" name="WUBPKLJB"/>
      <point x="204.29374904065992" y="707.0" name="IRAJGYCB"/>
      <point x="337.2937490406599" y="559.0" name="LRORUNXC"/>
      <point x="337.2937490406599" y="306.0" type="curve" smooth="yes" name="KJQXWWTY"/>
      <point x="337.2937490406599" y="53.0" name="HZVCBHZJ"/>
      <point x="204.29374904065992" y="-95.0" name="WEDTMIFD"/>
      <point x="60.29374904065992" y="-135.0" type="curve" name="SJZRCMTN"/>
    </contour>
  </outline>
</glyph>
<glyph name="asterisk" format="2">
  <advance width="614"/>
  <unicode hex="002A"/>
  <outline>
    <contour>
      <point x="85" y="464" type="move" name="BSKLUGTP"/>
      <point x="125" y="464" name="MTBKUDVQ"/>
      <point x="147" y="464" name="HYGLRHIP"/>
      <point x="187" y="464" type="curve" smooth="yes" name="NZIJPGPN"/>
      <point x="247" y="464.0" name="YHDFUQEL"/>
      <point x="322" y="417" name="QWVHUHVJ"/>
      <point x="350" y="368" type="curve" smooth="yes" name="IVPRFDAS"/>
      <point x="370" y="332" name="XSEFJDSG"/>
      <point x="380" y="316" name="VPTHAJFL"/>
      <point x="400" y="280" type="curve" name="INVHQALC"/>
    </contour>
    <contour>
      <point x="400" y="648" type="move" name="RHJLWCQP"/>
      <point x="380" y="612" name="RXSCOWVH"/>
      <point x="371" y="596" name="SWTWUJMK"/>
      <point x="351" y="560" type="curve" smooth="yes" name="OIDYUABM"/>
      <point x="323" y="511" name="XHGMPEHB"/>
      <point x="247.0" y="464.0" name="DQUPSZTV"/>
      <point x="187" y="464" type="curve" smooth="yes" name="NJITMPZF"/>
      <point x="147" y="464" name="RLCAHBZD"/>
      <point x="125" y="464" name="IOFITKMZ"/>
      <point x="85" y="464" type="curve" name="UTHJMORH"/>
    </contour>
    <contour>
      <point x="504" y="464" type="move" name="GPGVGKSL"/>
      <point x="464" y="464" name="NVDMDZVE"/>
      <point x="442" y="464" name="HXSVILWR"/>
      <point x="402" y="464" type="curve" smooth="yes" name="UKDIOXKA"/>
      <point x="342.0" y="464.0" name="YHETIFZS"/>
      <point x="267" y="511" name="CFZMGZVF"/>
      <point x="239" y="560" type="curve" smooth="yes" name="EWIOYFMV"/>
      <point x="219" y="596" name="ZUAXRXCU"/>
      <point x="209" y="612" name="CXTDSLQW"/>
      <point x="189" y="648" type="curve" name="WQOCTDJL"/>
    </contour>
    <contour>
      <point x="189" y="280" type="move" name="RZFCYAZO"/>
      <point x="209" y="316" name="TTJKKZLW"/>
      <point x="223" y="335" name="WWRZGCMO"/>
      <point x="243" y="371" type="curve" smooth="yes" name="RATFRLYY"/>
      <point x="271" y="420" name="QHQITOXM"/>
      <point x="342.0" y="464.0" name="WFOAKNZV"/>
      <point x="402" y="464" type="curve" smooth="yes" name="VIXRCOYV"/>
      <point x="442" y="464" name="SRHDDDFQ"/>
      <point x="464" y="464" name="STTDCAQQ"/>
      <point x="504" y="464" type="curve" name="RPRFXINU"/>
    </contour>
    <contour>
      <point x="190" y="647" type="move" name="LQYFFLVQ"/>
      <point x="210" y="611" name="RNZZFFUW"/>
      <point x="220" y="595" name="NBOFTYAE"/>
      <point x="240" y="559" type="curve" smooth="yes" name="DIWVQKBK"/>
      <point x="269" y="509" name="PXTGIIJB"/>
      <point x="322" y="416" name="UYOLHODA"/>
      <point x="351" y="366" type="curve" smooth="yes" name="TQMJSSMG"/>
      <point x="371" y="331" name="MOGEXEAZ"/>
      <point x="380" y="315" name="SNSFQMQK"/>
      <point x="400" y="280" type="curve" name="LMZDHFBE"/>
    </contour>
  </outline>
</glyph>
<glyph name="plus" format="2">
  <advance width="540"/>
  <unicode hex="002B"/>
  <outline>
    <contour>
      <point x="270" y="504" type="move" name="PCAKXIDN"/>
      <point x="270" y="377" name="JEJWYRHZ"/>
      <point x="270" y="243" name="XCGWGKFR"/>
      <point x="270" y="114" type="curve" name="HJXCHVXN"/>
    </contour>
    <contour>
      <point x="460" y="308" type="move" name="WLUIEITZ"/>
      <point x="335" y="308" name="HJKVTFYJ"/>
      <point x="205" y="308" name="YMWRTGQY"/>
      <point x="80" y="308" type="curve" name="VDKHWVVK"/>
    </contour>
  </outline>
</glyph>
<glyph name="comma" format="2">
  <advance width="269"/>
  <unicode hex="002C"/>
  <outline>
    <contour>
      <point x="105" y="-114.0" type="move" name="JUECNJRW"/>
      <point x="146" y="-43.0" name="QOBAGKSY"/>
      <point x="162" y="42.0" name="LYXSGCRL"/>
      <point x="119" y="81.0" type="curve" name="TWLJCXDM"/>
    </contour>
  </outline>
</glyph>
<glyph name="hyphen" format="2">
  <advance width="340"/>
  <unicode hex="002D"/>
  <outline>
    <contour>
      <point x="265" y="308" type="move" name="AGFWFTIZ"/>
      <point x="202" y="308.0" name="PDQXAFPQ"/>
      <point x="118" y="308.0" name="HHSEVZLP"/>
      <point x="75" y="308" type="curve" name="ZOCZRGFU"/>
    </contour>
  </outline>
</glyph>
<glyph name="period" format="2">
  <advance width="257"/>
  <unicode hex="002E"/>
  <outline>
    <contour>
      <point x="127" y="103" type="move" name="VZIXIFRA"/>
      <point x="125" y="99" name="NTJKMTNR"/>
      <point x="108" y="72" name="LTJTHPNK"/>
      <point x="129" y="40" type="curve" name="POKWOIIP"/>
    </contour>
  </outline>
</glyph>
<glyph name="slash" format="2">
  <advance width="490"/>
  <unicode hex="002F"/>
  <outline>
    <contour>
      <point x="378" y="730" type="move" name="RMFKFFCN"/>
      <point x="98" y="-120" type="line" name="VBEHIPIA"/>
    </contour>
  </outline>
</glyph>
<glyph name="zero" format="2">
  <advance width="592"/>
  <unicode hex="0030"/>
  <outline>
    <contour>
      <point x="351" y="43" type="move" name="XTHLTXAI"/>
      <point x="387" y="54" name="PGSUQAWD"/>
      <point x="413" y="76" name="CVGGWBOC"/>
      <point x="436" y="104" type="curve" smooth="yes" name="EGMVTJRJ"/>
      <point x="480" y="157" name="SEOCGCNO"/>
      <point x="507" y="242" name="KDPHMOAB"/>
      <point x="507" y="341" type="curve" smooth="yes" name="JDPLAKWD"/>
      <point x="507" y="519" name="BYAZBEGA"/>
      <point x="423" y="645" name="PORXSGWY"/>
      <point x="296" y="645" type="curve" smooth="yes" name="LYKXBPVA"/>
      <point x="168" y="645" name="IDKOAFPS"/>
      <point x="85" y="519" name="WELJNYWD"/>
      <point x="85" y="341" type="curve" smooth="yes" name="MAGLKIXO"/>
      <point x="85" y="242" name="QYOJISBY"/>
      <point x="112" y="157" name="UBEWQUMX"/>
      <point x="156" y="104" type="curve" smooth="yes" name="IKUQJVQY"/>
      <point x="179" y="76" name="SJZSMYFI"/>
      <point x="205" y="54" name="IFKRMBPQ"/>
      <point x="241" y="43" type="curve" name="COEXQNLS"/>
    </contour>
  </outline>
</glyph>
<glyph name="one" format="2">
  <advance width="344"/>
  <unicode hex="0031"/>
  <outline>
    <contour>
      <point x="65" y="590" type="move" name="VZBAGUKL"/>
      <point x="111" y="603" name="PLVZQPNF"/>
      <point x="149" y="622" name="XQFDBBDE"/>
      <point x="171" y="622" type="curve" smooth="yes" name="UOPXTLVV"/>
      <point x="214" y="622" name="NABNUSET"/>
      <point x="219" y="593" name="HRUEXXPA"/>
      <point x="219" y="520" type="curve" smooth="yes" name="PLNJETPR"/>
      <point x="219" y="398" name="BYIKANKM"/>
      <point x="219" y="275" name="BHRFNMBT"/>
      <point x="219" y="165" type="curve" smooth="yes" name="VJEIFKEX"/>
      <point x="219" y="116" name="EIBVJEML"/>
      <point x="219" y="75" name="AALFBGHW"/>
      <point x="219" y="40" type="curve" name="YXJXLSSN"/>
    </contour>
  </outline>
</glyph>
<glyph name="two" format="2">
  <advance width="505"/>
  <unicode hex="0032"/>
  <outline>
    <contour>
      <point x="98" y="615" type="move" name="KLMNYRSS"/>
      <point x="147" y="636" name="JZECTJPD"/>
      <point x="194" y="651" name="TBQLYVGB"/>
      <point x="270" y="643" type="curve" smooth="yes" name="XCOTRKSG"/>
      <point x="338" y="636" name="FQDOYAWE"/>
      <point x="412" y="589" name="PJVVXTZG"/>
      <point x="412" y="502" type="curve" smooth="yes" name="VNGYERJW"/>
      <point x="412.0" y="429.0" name="KKIOMATH"/>
      <point x="368" y="378" name="ZILSIYTM"/>
      <point x="291" y="292" type="curve" smooth="yes" name="EQFWYCEG"/>
      <point x="227" y="221" name="DBWEIWRW"/>
      <point x="192" y="184" name="YUXZUTLA"/>
      <point x="145" y="134" type="curve" smooth="yes" name="HTRSVJYT"/>
      <point x="91" y="77" name="FOUHEHBP"/>
      <point x="80" y="45" name="OYKNTXVQ"/>
      <point x="150" y="45" type="curve" smooth="yes" name="WSHQLOVF"/>
      <point x="220" y="45" name="CVHEBHTA"/>
      <point x="263" y="45" name="LUOYHNFR"/>
      <point x="336" y="45.0" type="curve" smooth="yes" name="URNHOUNG"/>
      <point x="371" y="45" name="PFMGDSDV"/>
      <point x="400" y="45" name="GQJBYSVR"/>
      <point x="422" y="45" type="curve" name="QIWPYXKY"/>
    </contour>
  </outline>
</glyph>
<glyph name="three" format="2">
  <advance width="488"/>
  <unicode hex="0033"/>
  <outline>
    <contour>
      <point x="90" y="64" type="move" name="VMNRUWGM"/>
      <point x="134" y="45" name="KUOUJFGM"/>
      <point x="183" y="35" name="MZYEKNBF"/>
      <point x="233" y="36" type="curve" smooth="yes" name="AEBHIDQH"/>
      <point x="328" y="36" name="YBNFPKXT"/>
      <point x="410" y="105" name="VEYFVNWC"/>
      <point x="410" y="196" type="curve" smooth="yes" name="WRANPGTJ"/>
      <point x="410" y="299" name="LIHGHUMN"/>
      <point x="323" y="340" name="FPYXYKCL"/>
      <point x="262" y="347" type="curve" smooth="yes" name="OCDQOVYL"/>
      <point x="227" y="351" name="LBHWNPCZ"/>
      <point x="217" y="351" name="UQPOOVAD"/>
      <point x="194" y="352.0" type="curve" smooth="yes" name="AZYKMBOI"/>
      <point x="156" y="354" name="EKGYXDOJ"/>
      <point x="137" y="340" name="OLDCBLMD"/>
      <point x="216" y="428" type="curve" smooth="yes" name="IOKYALIE"/>
      <point x="238" y="452" name="FDNWEXUS"/>
      <point x="251" y="467" name="UARKIFDB"/>
      <point x="272" y="491" type="curve" smooth="yes" name="HULCCCEG"/>
      <point x="291" y="513" name="ADXGJPQC"/>
      <point x="314" y="540" name="DJWYJKFA"/>
      <point x="348" y="578" type="curve" smooth="yes" name="OHXDVLDR"/>
      <point x="405" y="641" name="UKIFSXOB"/>
      <point x="398" y="635" name="LSQKDQCQ"/>
      <point x="309" y="635" type="curve" smooth="yes" name="FTKGQITN"/>
      <point x="208" y="635" name="OQNPKTBU"/>
      <point x="144" y="635" name="MRKFOLAF"/>
      <point x="91" y="635" type="curve" name="UDMLOZWH"/>
    </contour>
  </outline>
</glyph>
<glyph name="four" format="2">
  <advance width="525"/>
  <unicode hex="0034"/>
  <outline>
    <contour>
      <point x="472" y="211" type="move" name="YTXMABFP"/>
      <point x="356" y="211" name="JYTBTWNA"/>
      <point x="236" y="211" name="GKNXEOUJ"/>
      <point x="161" y="211" type="curve" smooth="yes" name="CNGOYQVF"/>
      <point x="66" y="211" name="DHTWKWCG"/>
      <point x="62" y="244" name="LKQKGVMJ"/>
      <point x="110" y="319" type="curve" smooth="yes" name="TQQQOIYX"/>
      <point x="161" y="398" name="KXSHNOQY"/>
      <point x="230" y="502" name="IIAOOZFE"/>
      <point x="274" y="573" type="curve" smooth="yes" name="EXANEVKX"/>
      <point x="323" y="652" name="FLGXKDDO"/>
      <point x="370" y="667" name="TXRLZWUU"/>
      <point x="370" y="572" type="curve" smooth="yes" name="YJMTTOPF"/>
      <point x="370" y="482" name="EJXOYLNH"/>
      <point x="370" y="226" name="SEUBZFHB"/>
      <point x="370.0" y="157" type="curve" smooth="yes" name="WHZENPQH"/>
      <point x="370" y="106" name="ZPXTXDDH"/>
      <point x="370" y="75" name="CFJJCTVG"/>
      <point x="370" y="40" type="curve" name="HMBHSGQK"/>
    </contour>
  </outline>
</glyph>
<glyph name="five" format="2">
  <advance width="501"/>
  <unicode hex="0035"/>
  <outline>
    <contour>
      <point x="390" y="635" type="move" name="SUDCXVUN"/>
      <point x="359" y="635" name="CCHQHNYT"/>
      <point x="330" y="635" name="JDAVBNIF"/>
      <point x="301" y="635" type="curve" smooth="yes" name="WZFYFFCD"/>
      <point x="267" y="635" name="JWSCNRVY"/>
      <point x="236" y="635" name="DZMWRURV"/>
      <point x="202" y="635" type="curve" smooth="yes" name="YNMBFJRC"/>
      <point x="165" y="635" name="OIHKCHOY"/>
      <point x="141" y="624" name="YVHQVABW"/>
      <point x="137" y="586" type="curve" smooth="yes" name="CKPSTTDI"/>
      <point x="132" y="527" name="VVOAFFOZ"/>
      <point x="127" y="481" name="WYCMPMUQ"/>
      <point x="120" y="421" type="curve" smooth="yes" name="XLPRWNYD"/>
      <point x="114" y="367" name="AWXUOCOH"/>
      <point x="124" y="361" name="YUOCSBAS"/>
      <point x="167" y="366" type="curve" smooth="yes" name="YXIVRRDG"/>
      <point x="317" y="383" name="LGSWZWQC"/>
      <point x="421" y="336" name="DJHTXWNE"/>
      <point x="421" y="205" type="curve" smooth="yes" name="GQNFQPDA"/>
      <point x="421" y="87" name="UIMOPAZV"/>
      <point x="340" y="36" name="NICYGWVF"/>
      <point x="233" y="36" type="curve" smooth="yes" name="ATEBCNBC"/>
      <point x="190" y="36" name="HXHOGVHZ"/>
      <point x="143" y="45" name="RVHDHTZK"/>
      <point x="95" y="64" type="curve" name="UZOYRHUE"/>
    </contour>
  </outline>
</glyph>
<glyph name="six" format="2">
  <advance width="534"/>
  <unicode hex="0036"/>
  <outline>
    <contour>
      <point x="61" y="149" type="curve" smooth="yes"/>
      <point x="27" y="317"/>
      <point x="131" y="445"/>
      <point x="282" y="445" type="curve" smooth="yes"/>
      <point x="409" y="445"/>
      <point x="506" y="352"/>
      <point x="506" y="221" type="curve" smooth="yes"/>
      <point x="506" y="88"/>
      <point x="415" y="-13"/>
      <point x="277" y="-13" type="curve" smooth="yes"/>
      <point x="160" y="-13"/>
      <point x="35" y="75"/>
      <point x="35" y="314" type="curve" smooth="yes"/>
      <point x="35" y="673"/>
      <point x="285" y="744"/>
      <point x="445" y="659" type="curve" smooth="yes"/>
      <point x="468" y="646"/>
      <point x="478" y="615"/>
      <point x="465" y="591" type="curve" smooth="yes"/>
      <point x="452" y="568"/>
      <point x="421" y="558"/>
      <point x="397" y="571" type="curve" smooth="yes"/>
      <point x="284" y="632"/>
      <point x="135" y="570"/>
      <point x="135" y="314" type="curve" smooth="yes"/>
      <point x="135" y="154"/>
      <point x="199" y="87"/>
      <point x="277" y="87" type="curve" smooth="yes"/>
      <point x="359" y="87"/>
      <point x="406" y="142"/>
      <point x="406" y="221" type="curve" smooth="yes"/>
      <point x="406" y="296"/>
      <point x="355" y="345"/>
      <point x="282" y="345" type="curve" smooth="yes"/>
      <point x="191" y="345"/>
      <point x="139" y="271"/>
      <point x="159" y="169" type="curve" smooth="yes"/>
      <point x="164" y="142"/>
      <point x="146" y="115"/>
      <point x="120" y="110" type="curve" smooth="yes"/>
      <point x="93" y="105"/>
      <point x="66" y="123"/>
    </contour>
  </outline>
</glyph>
<glyph name="seven" format="2">
  <advance width="483"/>
  <unicode hex="0037"/>
  <outline>
    <contour>
      <point x="75.0" y="635.0" type="move"/>
      <point x="413.0" y="635.0" type="line"/>
      <point x="413.0" y="595.0" type="line"/>
      <point x="172.0" y="40.0" type="line"/>
    </contour>
  </outline>
</glyph>
<glyph name="eight" format="2">
  <advance width="535"/>
  <unicode hex="0038"/>
  <outline>
    <contour>
      <point x="210" y="43" type="move" name="QIMPAVHJ"/>
      <point x="136" y="63" name="XOZZWDPX"/>
      <point x="90" y="122" name="IEBGXSBP"/>
      <point x="90" y="202" type="curve" smooth="yes" name="FYRXVYUF"/>
      <point x="90" y="305" name="TGKLMKYH"/>
      <point x="168" y="359" name="FUEETLKN"/>
      <point x="269" y="359" type="curve" smooth="yes" name="RJSEYZIS"/>
      <point x="360" y="359" name="XPYDDRQA"/>
      <point x="425" y="413" name="YHOOZCYC"/>
      <point x="425" y="496" type="curve" smooth="yes" name="TARGQUBS"/>
      <point x="425" y="584" name="JMFQJXTG"/>
      <point x="360" y="644" name="JIKGOCTZ"/>
      <point x="269" y="644" type="curve" smooth="yes" name="NLSRABPZ"/>
      <point x="177" y="644" name="PERBXNUD"/>
      <point x="111" y="582" name="HHSJMNPE"/>
      <point x="111" y="496" type="curve" smooth="yes" name="NMDNBUMU"/>
      <point x="111" y="407" name="FGIUDFIY"/>
      <point x="177" y="359" name="AOLWUWIH"/>
      <point x="268" y="359" type="curve" smooth="yes" name="GOHRJBQC"/>
      <point x="369" y="359" name="RQBGNEXC"/>
      <point x="445" y="305" name="VVBLLLVB"/>
      <point x="445" y="202" type="curve" smooth="yes" name="SFDQBBEA"/>
      <point x="445" y="122" name="DAQYTYAF"/>
      <point x="398" y="61" name="VIQRANZW"/>
      <point x="324" y="42" type="curve" name="OKZAOWNN"/>
    </contour>
  </outline>
</glyph>
<glyph name="nine" format="2">
  <advance width="534"/>
  <unicode hex="0039"/>
  <outline>
    <contour>
      <point x="424.0" y="520.0" type="move"/>
      <point x="451.0" y="385.0"/>
      <point x="373.0" y="284.0"/>
      <point x="252.0" y="284.0" type="curve" smooth="yes"/>
      <point x="152.0" y="284.0"/>
      <point x="78.0" y="355.0"/>
      <point x="78.0" y="458.0" type="curve" smooth="yes"/>
      <point x="78.0" y="564.0"/>
      <point x="147.0" y="642.0"/>
      <point x="257.0" y="642.0" type="curve" smooth="yes"/>
      <point x="355.0" y="642.0"/>
      <point x="449.0" y="565.0"/>
      <point x="449.0" y="365.0" type="curve" smooth="yes"/>
      <point x="449.0" y="57.0"/>
      <point x="250.0" y="-9.0"/>
      <point x="113.0" y="64.0" type="curve"/>
    </contour>
  </outline>
</glyph>
<glyph name="colon" format="2">
  <advance width="260"/>
  <unicode hex="003A"/>
  <outline>
    <contour>
      <point x="140.0" y="40.0" type="move" name="JRVMFRMU"/>
      <point x="106.0" y="45" name="IMDRBHPH"/>
      <point x="106.0" y="79" name="JJPLYRCT"/>
      <point x="140.0" y="84.0" type="curve" name="GDYJPRVU"/>
    </contour>
    <contour>
      <point x="140.0" y="400.0" type="move" name="KEXISDZS"/>
      <point x="106.0" y="405.0" name="NKUOHHEL"/>
      <point x="106.0" y="439.0" name="KBXOFBRV"/>
      <point x="140.0" y="444.0" type="curve" name="BPPOLFRM"/>
    </contour>
  </outline>
</glyph>
<glyph name="semicolon" format="2">
  <advance width="279"/>
  <unicode hex="003B"/>
  <outline>
    <contour>
      <point x="145.33553139946758" y="400.0" type="move" name="PEPLJVFE"/>
      <point x="111.3355313994676" y="405.0" name="IZSVKXRS"/>
      <point x="111.3355313994676" y="439.0" name="MIPCJIMB"/>
      <point x="145.33553139946758" y="444.0" type="curve" name="OASVGNIE"/>
    </contour>
    <contour>
      <point x="115.3355313994676" y="-114.0" type="move" name="URKSGLMS"/>
      <point x="156.33553139946764" y="-43.0" name="VCUUAJZD"/>
      <point x="172.33553139946764" y="42.0" name="TSXQZYSL"/>
      <point x="129.33553139946758" y="81.0" type="curve" name="GYJWXSIZ"/>
    </contour>
  </outline>
</glyph>
<glyph name="less" format="2">
  <advance width="447"/>
  <unicode hex="003C"/>
  <outline>
    <contour>
      <point x="383" y="433" type="curve" smooth="yes"/>
      <point x="106" y="267" type="line"/>
      <point x="106" y="353" type="line"/>
      <point x="383" y="184" type="line" smooth="yes"/>
      <point x="406" y="170"/>
      <point x="414" y="138"/>
      <point x="400" y="115" type="curve" smooth="yes"/>
      <point x="386" y="92"/>
      <point x="354" y="84"/>
      <point x="331" y="98" type="curve" smooth="yes"/>
      <point x="54" y="267" type="line" smooth="yes"/>
      <point x="22" y="287"/>
      <point x="22" y="334"/>
      <point x="54" y="353" type="curve" smooth="yes"/>
      <point x="331" y="519" type="line" smooth="yes"/>
      <point x="354" y="533"/>
      <point x="386" y="525"/>
      <point x="400" y="502" type="curve" smooth="yes"/>
      <point x="414" y="479"/>
      <point x="406" y="447"/>
    </contour>
  </outline>
</glyph>
<glyph name="equal" format="2">
  <advance width="490"/>
  <unicode hex="003D"/>
  <outline>
    <contour>
      <point x="410" y="428" type="move" name="EGPUKCXV"/>
      <point x="301" y="428" name="UBLYUZQC"/>
      <point x="189" y="428" name="TXVUCKKQ"/>
      <point x="80" y="428" type="curve" name="JGBLYTNJ"/>
    </contour>
    <contour>
      <point x="410" y="188" type="move" name="TURJCWBR"/>
      <point x="301" y="188" name="GYVNYRCG"/>
      <point x="189" y="188" name="ZTXWXPNF"/>
      <point x="80" y="188" type="curve" name="OJYEGDSD"/>
    </contour>
  </outline>
</glyph>
<glyph name="greater" format="2">
  <advance width="447"/>
  <unicode hex="003E"/>
  <outline>
    <contour>
      <point x="88" y="141" type="move" name="DZRTXJXE"/>
      <point x="149" y="177" name="GJPSYODC"/>
      <point x="210" y="218" name="ITLGWEDU"/>
      <point x="286" y="260" type="curve" smooth="yes" name="JFFYGBJP"/>
      <point x="367" y="306" name="NDMBFTEY"/>
      <point x="368" y="308" name="ERPUHRPV"/>
      <point x="284" y="358" type="curve" smooth="yes" name="OVXVLZII"/>
      <point x="209" y="403" name="FMNFMQFT"/>
      <point x="149" y="439" name="ODGNDLXP"/>
      <point x="88" y="475" type="curve" name="URXIYSUF"/>
    </contour>
  </outline>
</glyph>
<glyph name="question" format="2">
  <advance width="511"/>
  <unicode hex="003F"/>
  <outline>
    <contour>
      <point x="88" y="611" type="move" name="TUGBTPLD"/>
      <point x="141" y="633" name="ZCLKDDYL"/>
      <point x="194" y="643" name="AJXQIKYT"/>
      <point x="241" y="643" type="curve" smooth="yes" name="XACNGVSK"/>
      <point x="348" y="643" name="ILXOZXVS"/>
      <point x="427" y="590" name="BTSZWPXQ"/>
      <point x="427.0" y="509" type="curve" smooth="yes" name="LYOKWAHI"/>
      <point x="427" y="455" name="WCVIZSEZ"/>
      <point x="388" y="406" name="LYFKILYU"/>
      <point x="321" y="378" type="curve" smooth="yes" name="UBNDZMME"/>
      <point x="235" y="342" name="ZSXQLWUH"/>
      <point x="226" y="313" name="DZQGGFJM"/>
      <point x="226" y="266" type="curve" name="WPHOMBUK"/>
    </contour>
    <contour>
      <point x="227.0" y="36.0" type="move" name="NYSYROUW"/>
      <point x="227.0" y="50" name="SLNQUYAN"/>
      <point x="227.0" y="75" name="VZMOLFTK"/>
      <point x="227.0" y="90.0" type="curve" name="YMUVUDPY"/>
    </contour>
  </outline>
</glyph>
<glyph name="at" format="2">
  <advance width="956"/>
  <unicode hex="0040"/>
  <outline>
    <contour>
      <point x="630" y="428" type="move" name="FREEZ"/>
      <point x="630" y="384" name="HLRWTDMQ"/>
      <point x="630.0" y="318.612" name="ZMVQZOGT"/>
      <point x="630" y="264" type="curve" smooth="yes" name="ONBLMLCX"/>
      <point x="630" y="168" name="PFILA"/>
      <point x="568" y="102" name="MAMUE"/>
      <point x="482" y="102" type="curve" smooth="yes" name="MAAAX"/>
      <point x="395" y="102" name="GINKE"/>
      <point x="333" y="171" name="WAGIP"/>
      <point x="333" y="267" type="curve" smooth="yes" name="IXEXE"/>
      <point x="333" y="364" name="SAMNN"/>
      <point x="398" y="432" name="YUTUP"/>
      <point x="482" y="432" type="curve" smooth="yes" name="RENLY"/>
      <point x="567" y="432" name="NOOKS"/>
      <point x="630" y="367" name="BLUJA"/>
      <point x="630" y="270" type="curve" smooth="yes" name="BONEE"/>
      <point x="630" y="161" name="XBIRFDEQ"/>
      <point x="683" y="117" name="ESMMDNEK"/>
      <point x="739" y="117" type="curve" smooth="yes" name="ECNFGMZO"/>
      <point x="815" y="117" name="MAWEXMIU"/>
      <point x="867" y="190" name="WOIQPTQU"/>
      <point x="867" y="312" type="curve" smooth="yes" name="YULSIRZO"/>
      <point x="867" y="507" name="RRQXHRNV"/>
      <point x="718" y="644" name="HRZKGAST"/>
      <point x="500" y="644" type="curve" smooth="yes" name="CWMKQJGO"/>
      <point x="275" y="644" name="DODYXFZP"/>
      <point x="112" y="481" name="UOAJJTTS"/>
      <point x="112" y="260" type="curve" smooth="yes" name="FNLMPMKD"/>
      <point x="112" y="35" name="MOFXTGXX"/>
      <point x="271" y="-109" name="HNAKPQPF"/>
      <point x="488" y="-109" type="curve" smooth="yes" name="RFXHRAES"/>
      <point x="546" y="-109" name="WHFGQUYF"/>
      <point x="609" y="-98" name="VCWTXIDX"/>
      <point x="674" y="-76" type="curve" name="TSSMLMFK"/>
    </contour>
  </outline>
</glyph>
<glyph name="A" format="2">
  <advance width="651"/>
  <unicode hex="0041"/>
  <outline>
    <contour>
      <point x="84" y="40" type="move" name="WCTMAGCB"/>
      <point x="98" y="80" name="YENBAVMM"/>
      <point x="109" y="110" name="URAAIVJU"/>
      <point x="123" y="150" type="curve" smooth="yes" name="AXJVVGGQ"/>
      <point x="140" y="196" name="WHRSNYCO"/>
      <point x="161" y="218" name="JFMKGJZY"/>
      <point x="216" y="218" type="curve" smooth="yes" name="RAFCHMOX"/>
      <point x="262.0" y="218.0" name="FQQOLFGX"/>
      <point x="290.0" y="218.0" name="NJJEJHQD"/>
      <point x="342" y="218" type="curve" smooth="yes" name="YHUOKKWB"/>
      <point x="419" y="218" name="KGXPZOMC"/>
      <point x="414" y="218" name="UEQKWJLS"/>
      <point x="342" y="218" type="curve" smooth="yes" name="NHCESVFW"/>
      <point x="305" y="218.0" name="UJOKLJDS"/>
      <point x="287" y="218.0" name="KUESHUVT"/>
      <point x="266" y="218" type="curve" smooth="yes" name="OXORFAAM"/>
      <point x="184" y="218" name="SZAOPIAS"/>
      <point x="166" y="277" name="GUJWDWPE"/>
      <point x="193" y="356" type="curve" smooth="yes" name="PFRYNUMO"/>
      <point x="218" y="428" name="IAWSUPGZ"/>
      <point x="247" y="505" name="MFHLKXAA"/>
      <point x="271" y="577" type="curve" smooth="yes" name="LTOLISBK"/>
      <point x="301" y="666" name="UTUPLKPV"/>
      <point x="348" y="668" name="PSHHEHNS"/>
      <point x="377" y="580" type="curve" smooth="yes" name="VWCSXVKM"/>
      <point x="417" y="457" name="KUNSHXLA"/>
      <point x="483" y="269" name="RANKESKA"/>
      <point x="523" y="158" type="curve" smooth="yes" name="QFBKKUMR"/>
      <point x="534" y="127" name="DFEZBWBZ"/>
      <point x="551" y="79" name="NVUZSNJR"/>
      <point x="565" y="40" type="curve" name="IPWTHMKI"/>
    </contour>
  </outline>
</glyph>
<glyph name="B" format="2">
  <advance width="540"/>
  <unicode hex="0042"/>
  <outline>
    <contour>
      <point x="235" y="45" type="move" name="SJZHAZIX"/>
      <point x="300.0" y="45.0" name="ZRQURFIB"/>
      <point x="337" y="42" name="JLXYGZAG"/>
      <point x="384" y="65" type="curve" smooth="yes" name="AIKFHCAL"/>
      <point x="433" y="91" name="NTKWFJQS"/>
      <point x="464" y="138" name="WXFOTASC"/>
      <point x="464" y="198" type="curve" smooth="yes" name="GBKCUMDL"/>
      <point x="464" y="289" name="INZTOUZU"/>
      <point x="394" y="348" name="QHZSYVDO"/>
      <point x="290" y="348" type="curve" smooth="yes" name="AFSTEIIC"/>
      <point x="194" y="348" name="GNMBDNOO"/>
      <point x="186" y="348" name="QHJOEHUL"/>
      <point x="255" y="348" type="curve" smooth="yes" name="WSIAYCVU"/>
      <point x="369" y="348" name="JQDMSQZQ"/>
      <point x="436" y="404" name="LESXODLO"/>
      <point x="436" y="491" type="curve" smooth="yes" name="ACWCMVQM"/>
      <point x="436" y="570" name="DHVNMBGK"/>
      <point x="372" y="635" name="WFPNSCZC"/>
      <point x="273" y="635" type="curve" smooth="yes" name="ISFXLILQ"/>
      <point x="251" y="635.0" name="ARJZRUHN"/>
      <point x="228" y="635.0" name="WBGAAPSB"/>
      <point x="206" y="635" type="curve" smooth="yes" name="JUFUVNOF"/>
      <point x="140" y="635.0" name="TFXKHUDK"/>
      <point x="125" y="615" name="TKNZFJUO"/>
      <point x="125" y="550" type="curve" smooth="yes" name="PACYJEKA"/>
      <point x="125" y="433.0" name="CEOXLVSL"/>
      <point x="125" y="310" name="VZCJDUSL"/>
      <point x="125" y="192" type="curve" smooth="yes" name="VKVKBTCC"/>
      <point x="125" y="143" name="QWOZRIYU"/>
      <point x="125" y="94" name="QSBSIKPN"/>
      <point x="125" y="45" type="curve" name="YJNQENMA"/>
    </contour>
  </outline>
</glyph>
<glyph name="C" format="2">
  <advance width="600"/>
  <unicode hex="0043"/>
  <anchor x="333" y="0" name="center"/>
  <outline>
    <contour>
      <point x="515" y="599" type="move" name="HMXLOVSW"/>
      <point x="461" y="629" name="KUEZWUMO"/>
      <point x="407" y="643" name="QHIYOMNV"/>
      <point x="356" y="644" type="curve" smooth="yes" name="AIIDYUVW"/>
      <point x="209" y="644" name="DRIFKQJT"/>
      <point x="90" y="528" name="XYTUHGIX"/>
      <point x="90" y="340" type="curve" smooth="yes" name="WMDKPQNU"/>
      <point x="90" y="152" name="ZKLMACXH"/>
      <point x="205" y="35" name="ANSFROZU"/>
      <point x="352" y="37" type="curve" smooth="yes" name="XSOMLOUO"/>
      <point x="404" y="37" name="GMHHSQWX"/>
      <point x="459" y="52" name="XSXNQCCO"/>
      <point x="515" y="84" type="curve" name="FWUNVMEG"/>
    </contour>
  </outline>
</glyph>
<glyph name="D" format="2">
  <advance width="686"/>
  <unicode hex="0044"/>
  <outline>
    <contour>
      <point x="135" y="40" type="move" name="MDLDMKUN"/>
      <point x="135" y="64" name="MJGSUUDR"/>
      <point x="135" y="86" name="PCPDAESW"/>
      <point x="135" y="146" type="curve" name="QNRCQVYW"/>
      <point x="135" y="551" type="line" smooth="yes" name="FCWCDANJ"/>
      <point x="135" y="609" name="CKYPATGS"/>
      <point x="167" y="640.0" name="MLIODYUB"/>
      <point x="225" y="640" type="curve" smooth="yes" name="OFPYJGUR"/>
      <point x="325" y="640" type="line" smooth="yes" name="QVUURJCH"/>
      <point x="479.0" y="640.0" name="HBDOPAJS"/>
      <point x="586" y="519" name="TFPHORKC"/>
      <point x="586" y="341" type="curve" smooth="yes" name="OTVLSBFB"/>
      <point x="586" y="162" name="YOSAQRNK"/>
      <point x="481" y="40" name="ATFDNNQW"/>
      <point x="319" y="40" type="curve" smooth="yes" name="IHPAWODK"/>
      <point x="279" y="40" name="TDEGPSFL"/>
      <point x="260" y="40" name="UXOXQDMN"/>
      <point x="241" y="40" type="curve" name="VVIQBWEV"/>
    </contour>
  </outline>
</glyph>
<glyph name="F" format="2">
  <advance width="503"/>
  <unicode hex="0046"/>
  <outline>
    <contour>
      <point x="125" y="116" type="move" smooth="yes" name="JITUK"/>
      <point x="125.0" y="286" name="BXBEZLTJ"/>
      <point x="125" y="462" name="YKIBTLHM"/>
      <point x="125" y="550" type="curve" smooth="yes" name="KYHQWDBW"/>
      <point x="125" y="612" name="YLVPTIZT"/>
      <point x="140" y="635" name="LNGCPACW"/>
      <point x="210" y="635" type="curve" smooth="yes" name="OHUHALVQ"/>
      <point x="253.0" y="635.0" name="UIAMIZTN"/>
      <point x="352.071" y="635.0" name="TNPRCZZL"/>
      <point x="423" y="635" type="curve" name="CAGED"/>
    </contour>
    <contour>
      <point x="125" y="115" type="move" smooth="yes" name="OCGRFRMB"/>
      <point x="125" y="15" name="KDMAACHS"/>
      <point x="125" y="11" name="LBTQORKQ"/>
      <point x="125" y="110" type="curve" smooth="yes" name="GNPVKRNZ"/>
      <point x="125" y="169" name="PONWEEZN"/>
      <point x="125" y="181" name="HFPGWJFE"/>
      <point x="125" y="223" type="curve" smooth="yes" name="IZTDEWWJ"/>
      <point x="125" y="292" name="BRBOXKTR"/>
      <point x="169" y="330" name="RTICVXVL"/>
      <point x="234" y="330" type="curve" smooth="yes" name="GNIICBJW"/>
      <point x="287" y="330.0" name="XDHPIUOV"/>
      <point x="364" y="330" name="ZUXMNSWT"/>
      <point x="402" y="330" type="curve" name="JRUQYBSL"/>
    </contour>
  </outline>
</glyph>
<glyph name="G" format="2">
  <advance width="673"/>
  <unicode hex="0047"/>
  <outline>
    <contour>
      <point x="546" y="605" type="move" name="JWJVGGQT"/>
      <point x="528" y="613" name="EFXOQBSN"/>
      <point x="499" y="626" name="TYILTWIO"/>
      <point x="441" y="635" type="curve" smooth="yes" name="DDGCODVZ"/>
      <point x="237" y="667" name="YGJTKONT"/>
      <point x="100" y="524" name="CFSKUGZW"/>
      <point x="100" y="341" type="curve" smooth="yes" name="JLYBKOPT"/>
      <point x="100" y="171" name="WPEGWKMJ"/>
      <point x="201" y="40" name="KDIPYOCG"/>
      <point x="363" y="40" type="curve" smooth="yes" name="GGHDEJJX"/>
      <point x="400" y="40" name="KLEQUPJW"/>
      <point x="446" y="47" name="UZHPZGCC"/>
      <point x="477" y="58" type="curve" smooth="yes" name="VRVGUXGQ"/>
      <point x="534" y="79" name="YGZQPKNS"/>
      <point x="558" y="112" name="QNUIAXAT"/>
      <point x="558" y="169" type="curve" smooth="yes" name="SBXYDAQT"/>
      <point x="558" y="244" type="line" smooth="yes" name="RDXDBSGJ"/>
      <point x="558" y="290" name="FZISAIGK"/>
      <point x="551" y="320" name="TQXVBBHE"/>
      <point x="495" y="320" type="curve" smooth="yes" name="HWIFYVSM"/>
      <point x="377" y="320" type="line" name="KFHHMSZY"/>
    </contour>
  </outline>
</glyph>
<glyph name="H" format="2">
  <advance width="688"/>
  <unicode hex="0048"/>
  <outline>
    <contour>
      <point x="135" y="639.0" type="move" name="YCQTTEKD"/>
      <point x="135" y="619.0" name="FQTSONYV"/>
      <point x="135" y="588.0" name="AHJVTXEG"/>
      <point x="135" y="543" type="curve" smooth="yes" name="JIKJWFID"/>
      <point x="135" y="125" type="line" name="SEGZTTUC"/>
      <point x="135" y="69" name="PSLKCGIO"/>
      <point x="135" y="41" name="YPXBTONM"/>
      <point x="135" y="41" type="curve" smooth="yes" name="PQABKEGX"/>
      <point x="135" y="41" name="BSYCMNHB"/>
      <point x="135" y="68" name="PTAECEGJ"/>
      <point x="135" y="125" type="curve" name="DMKTHBCD"/>
      <point x="135" y="277" type="line" smooth="yes" name="QYDBOQFJ"/>
      <point x="135" y="324" name="NLHFJTXO"/>
      <point x="173" y="354" name="ASMECEIF"/>
      <point x="235" y="354" type="curve" smooth="yes" name="OJFKDERG"/>
      <point x="327" y="354" name="HOFPVYEN"/>
      <point x="370" y="354" name="XTESFLAM"/>
      <point x="463" y="354" type="curve" smooth="yes" name="UUZVKCDD"/>
      <point x="522" y="354" name="GTKOSMGP"/>
      <point x="563" y="367" name="ADTMKZYO"/>
      <point x="563" y="418" type="curve" smooth="yes" name="UXHYHDUZ"/>
      <point x="563" y="555" type="line" name="UYGCNZZW"/>
      <point x="563" y="612" name="QRRPUXQG"/>
      <point x="563" y="639" name="WITPXEFC"/>
      <point x="563" y="639" type="curve" smooth="yes" name="ZMVHWLXY"/>
      <point x="563" y="639" name="ETZBSKOE"/>
      <point x="563" y="611" name="AOTTKKDG"/>
      <point x="563" y="555" type="curve" name="SGNAVMZC"/>
      <point x="563" y="140" type="line" smooth="yes" name="SONIWFLH"/>
      <point x="563.0" y="93.0" name="IKJPGONA"/>
      <point x="563" y="64" name="JBJFEKFV"/>
      <point x="563" y="40" type="curve" name="EUBRWDIH"/>
    </contour>
  </outline>
</glyph>
<glyph name="I" format="2">
  <advance width="270"/>
  <unicode hex="0049"/>
  <outline>
    <contour>
      <point x="135" y="40" type="move" name="FQLWWFZV"/>
      <point x="135.0" y="68" name="TFWGWDWA"/>
      <point x="135.0" y="94.0" name="TCCXXIBJ"/>
      <point x="135" y="160" type="curve" smooth="yes" name="XTZVZDGH"/>
      <point x="135" y="530" type="line" smooth="yes" name="QIUWPHJI"/>
      <point x="135" y="586" name="RGBYTIRO"/>
      <point x="135.0" y="622" name="JTBUZVUA"/>
      <point x="135" y="640" type="curve" name="PMGNNBPX"/>
    </contour>
  </outline>
</glyph>
<glyph name="J" format="2">
  <advance width="448"/>
  <unicode hex="004A"/>
  <outline>
    <contour>
      <point x="69" y="70" type="move" name="RWWTGJOT"/>
      <point x="113" y="49" name="VZOQTFJD"/>
      <point x="153" y="40" name="XWWXMULX"/>
      <point x="188" y="40" type="curve" smooth="yes" name="BYMRPZMC"/>
      <point x="276" y="40" name="BDWYMAVH"/>
      <point x="332" y="100" name="CPUHUEBW"/>
      <point x="332" y="204" type="curve" smooth="yes" name="RTWAPHLV"/>
      <point x="332.0" y="301" name="INKCVDLD"/>
      <point x="332.0" y="369" name="TTMBBRSG"/>
      <point x="332" y="466" type="curve" smooth="yes" name="PAWOVEPX"/>
      <point x="332.0" y="524.0" name="CZEGLJBP"/>
      <point x="332.0" y="590" name="PQFVAXWQ"/>
      <point x="332" y="640" type="curve" name="ZWRBPVSS"/>
    </contour>
  </outline>
</glyph>
<glyph name="K" format="2">
  <advance width="591"/>
  <unicode hex="004B"/>
  <anchor x="302" y="0" name="below"/>
  <anchor x="302" y="680" name="above"/>
  <outline>
    <contour>
      <point x="125" y="640" type="move" name="BDSDUJAQ"/>
      <point x="125.0" y="596" name="WUTZZJTM"/>
      <point x="125.0" y="552" name="FMYUWGBM"/>
      <point x="125" y="508" type="curve" smooth="yes" name="PKFJQCUA"/>
      <point x="125" y="387.0" name="NDXENNUV"/>
      <point x="125.0" y="267" name="IONEBKUR"/>
      <point x="125" y="146" type="curve" smooth="yes" name="OXYFIWVY"/>
      <point x="125.0" y="111.0" name="GJRPIFJB"/>
      <point x="125" y="70" name="TAYMCGHO"/>
      <point x="125" y="40" type="curve" name="LCMEVTBW"/>
    </contour>
    <contour>
      <point x="507" y="640" type="move" name="TYHDOFBA"/>
      <point x="466" y="602" name="PSNZNHZW"/>
      <point x="427" y="565" name="LNWNGFUD"/>
      <point x="385" y="529" type="curve" smooth="yes" name="SVDECPBF"/>
      <point x="351" y="500" name="HMLKQNAW"/>
      <point x="274" y="433" name="WISEHRBV"/>
      <point x="241" y="405" type="curve" smooth="yes" name="BLKRVIYP"/>
      <point x="178" y="352" name="JCSBCWTH"/>
      <point x="194" y="339" name="LDWMONRI"/>
      <point x="256" y="283" type="curve" smooth="yes" name="VICEDXKU"/>
      <point x="310" y="234" name="SHNIUWSH"/>
      <point x="433" y="119" name="JEKAEQDF"/>
      <point x="513" y="40" type="curve" name="HOLQXGTR"/>
    </contour>
  </outline>
</glyph>
<glyph name="L" format="2">
  <advance width="498"/>
  <unicode hex="004C"/>
  <anchor x="269" y="0" name="below"/>
  <anchor x="196" y="680" name="above"/>
  <anchor x="193" y="523" name="right"/>
  <outline>
    <contour>
      <point x="413" y="45" type="move" name="CAGED"/>
      <point x="353" y="45.0" name="WJBMBBNS"/>
      <point x="293" y="45" name="PQYSENUE"/>
      <point x="220" y="45.0" type="curve" smooth="yes" name="YIJKQZEO"/>
      <point x="124" y="45" name="XXYIOZKB"/>
      <point x="125" y="79" name="WOORVVMU"/>
      <point x="125" y="203" type="curve" smooth="yes" name="KHIDCGFR"/>
      <point x="125" y="309" name="ZWWWLKXM"/>
      <point x="125.0" y="414" name="HPUHSKWQ"/>
      <point x="125" y="520" type="curve" smooth="yes" name="ZTKZHQWR"/>
      <point x="125.0" y="560.0" name="TIGJCZXU"/>
      <point x="125.0" y="600" name="SGJJJOTQ"/>
      <point x="125" y="640" type="curve" name="IPTAQ"/>
    </contour>
  </outline>
</glyph>
<glyph name="M" format="2">
  <advance width="808"/>
  <unicode hex="004D"/>
  <outline>
    <contour>
      <point x="125" y="40" type="move" name="LDYHPGZR"/>
      <point x="125.0" y="77" name="SOXGGSGH"/>
      <point x="125.0" y="115" name="KARJALFT"/>
      <point x="125" y="152" type="curve" smooth="yes" name="ZIHBFYTU"/>
      <point x="125" y="276" name="XGSGLQSN"/>
      <point x="125" y="403" name="RORGTAEH"/>
      <point x="125" y="527" type="curve" smooth="yes" name="JASRNWDX"/>
      <point x="125" y="681" name="ZSBTXEST"/>
      <point x="160" y="685" name="RJPKEOPP"/>
      <point x="220" y="527" type="curve" smooth="yes" name="VPFMEQZJ"/>
      <point x="266" y="406" name="LAJKEAYO"/>
      <point x="315" y="271" name="FNTLKLMN"/>
      <point x="359" y="149" type="curve" smooth="yes" name="JKGKOUEH"/>
      <point x="402" y="30" name="ZUPNHLQG"/>
      <point x="406" y="26" name="SCFTASHP"/>
      <point x="449" y="149" type="curve" smooth="yes" name="SGBLDCVZ"/>
      <point x="492" y="271" name="HMXHSCWO"/>
      <point x="543" y="409" name="BYSUTBTT"/>
      <point x="588" y="528" type="curve" smooth="yes" name="MIBMOWXV"/>
      <point x="648" y="688" name="QINYHBYA"/>
      <point x="683" y="683" name="IBTQIAJK"/>
      <point x="683" y="528" type="curve" smooth="yes" name="YDWZIGAV"/>
      <point x="683" y="406" name="XWPZFVKX"/>
      <point x="683" y="279" name="DQFVPLZB"/>
      <point x="683" y="157" type="curve" smooth="yes" name="BHWLNJGI"/>
      <point x="683" y="118" name="VCQZLDXT"/>
      <point x="683" y="79" name="LQWUAGOE"/>
      <point x="683" y="40" type="curve" name="QLUSMILD"/>
    </contour>
  </outline>
</glyph>
<glyph name="N" format="2">
  <advance width="688"/>
  <unicode hex="004E"/>
  <outline>
    <contour>
      <point x="125" y="640" type="move" name="IPTAQ"/>
      <point x="125.0" y="588" name="KZDBXLFC"/>
      <point x="125.0" y="537" name="QZSGKBGY"/>
      <point x="125" y="485" type="curve" smooth="yes" name="QTMFUDOC"/>
      <point x="125.0" y="378.0" name="CINEOQFI"/>
      <point x="125.0" y="271" name="CBSAMZOK"/>
      <point x="125" y="164" type="curve" smooth="yes" name="DLJUTHSD"/>
      <point x="125.0" y="123.0" name="SRUUUZFW"/>
      <point x="125.0" y="81" name="XVQVVDHN"/>
      <point x="125" y="40" type="curve" name="JITUK"/>
    </contour>
    <contour>
      <point x="563" y="40" type="move" name="CNWCAGFD"/>
      <point x="532" y="82" name="KAPLCJVO"/>
      <point x="502" y="124" name="RITLABJY"/>
      <point x="471" y="166" type="curve" smooth="yes" name="KMFMYCKS"/>
      <point x="385" y="284" name="CNRXPSLJ"/>
      <point x="298" y="403" name="JSIHITOE"/>
      <point x="212" y="521" type="curve" smooth="yes" name="PMYGORAW"/>
      <point x="183" y="561" name="VGWHIKOX"/>
      <point x="154" y="600" name="TDHPEJGW"/>
      <point x="125" y="640" type="curve" name="QXMHDNUQ"/>
    </contour>
    <contour>
      <point x="563" y="640" type="move" name="BACTA"/>
      <point x="563.0" y="599" name="POPKYTTC"/>
      <point x="563.0" y="557" name="WXULITLL"/>
      <point x="563" y="516" type="curve" smooth="yes" name="OWCMAOEG"/>
      <point x="563.0" y="412.0" name="CILGJERA"/>
      <point x="563.0" y="287" name="HGWHCJLN"/>
      <point x="563" y="205" type="curve" smooth="yes" name="SKHHXUEE"/>
      <point x="563" y="163" name="HOFNDTWR"/>
      <point x="563.0" y="94.945" name="GTNKORTI"/>
      <point x="563" y="40" type="curve" name="BBRIK"/>
    </contour>
  </outline>
</glyph>
<glyph name="O" format="2">
  <advance width="732"/>
  <unicode hex="004F"/>
  <outline>
    <contour>
      <point x="308" y="42" type="move" name="PHHFDGPJ"/>
      <point x="271" y="49" name="BMJXNXMQ"/>
      <point x="242" y="61" name="EKNTPZDF"/>
      <point x="211" y="82" type="curve" smooth="yes" name="CAYABGEU"/>
      <point x="135" y="133" name="UIPSFDZQ"/>
      <point x="90" y="228" name="FVGWNKKK"/>
      <point x="90" y="341" type="curve" smooth="yes" name="MXMBJWZQ"/>
      <point x="90" y="519" name="RWZBAVWH"/>
      <point x="205" y="645" name="TUGBMFLX"/>
      <point x="368" y="645" type="curve" smooth="yes" name="FVIKWJOA"/>
      <point x="530" y="645" name="IPKHOKPE"/>
      <point x="642" y="518" name="ESKRRPQB"/>
      <point x="642" y="341" type="curve" smooth="yes" name="ZAZTNJGN"/>
      <point x="642" y="230" name="APIMJHJP"/>
      <point x="599" y="139" name="OBSXFVNR"/>
      <point x="527" y="86" type="curve" smooth="yes" name="KYRECKDI"/>
      <point x="496" y="62" name="CBCRPPZS"/>
      <point x="464" y="49" name="XSRNDWPM"/>
      <point x="428" y="42" type="curve" name="BDKYYTLH"/>
    </contour>
  </outline>
</glyph>
<glyph name="P" format="2">
  <advance width="555"/>
  <unicode hex="0050"/>
  <outline>
    <contour>
      <point x="225" y="298" type="move" name="KDWEAVCL"/>
      <point x="247" y="298" name="EEUZMDDN"/>
      <point x="273" y="298" name="TCNGHVIQ"/>
      <point x="307" y="298" type="curve" smooth="yes" name="ZSIGVLYQ"/>
      <point x="405" y="298" name="ENMYWVGJ"/>
      <point x="475" y="367" name="UPGSQETF"/>
      <point x="475" y="466" type="curve" smooth="yes" name="FQRFLMWJ"/>
      <point x="475" y="565" name="OWXPAUCJ"/>
      <point x="405" y="635" name="XZGURVYI"/>
      <point x="295" y="635" type="curve" smooth="yes" name="NQPINRXD"/>
      <point x="265" y="635.0" name="SJPEWWJP"/>
      <point x="236" y="635.0" name="EODHZPXI"/>
      <point x="206" y="635" type="curve" smooth="yes" name="JUFUVNOF"/>
      <point x="140" y="635" name="TFXKHUDK"/>
      <point x="125" y="615" name="TKNZFJUO"/>
      <point x="125" y="550" type="curve" smooth="yes" name="PACYJEKA"/>
      <point x="125.0" y="426" name="RHVAFUOV"/>
      <point x="125" y="290" name="RFYXEVZS"/>
      <point x="125" y="178" type="curve" smooth="yes" name="GUGTSAOX"/>
      <point x="125.0" y="132.0" name="KAHHWDKX"/>
      <point x="125.0" y="86" name="XHPYLRXN"/>
      <point x="125" y="40" type="curve" name="YEBAPYVI"/>
    </contour>
  </outline>
</glyph>
<glyph name="Q" format="2">
  <advance width="732"/>
  <unicode hex="0051"/>
  <outline>
    <contour>
      <point x="564" y="-29" type="move" name="MTTDDDXS"/>
      <point x="532" y="22" name="ZWMGWNCZ"/>
      <point x="493" y="88" name="DHXFKEBU"/>
      <point x="461" y="140" type="curve" smooth="yes" name="DZEGJTCL"/>
      <point x="391" y="254" name="UJHXJHAZ"/>
      <point x="391" y="254" name="BUYMCEVI"/>
      <point x="461" y="140" type="curve" smooth="yes" name="EVIMGZOV"/>
      <point x="491" y="92" name="TXCOMGKD"/>
      <point x="546" y="87" name="WSQWVJCC"/>
      <point x="585" y="143" type="curve" smooth="yes" name="SMIXVJSV"/>
      <point x="622" y="198" name="TEHJFADH"/>
      <point x="642" y="265" name="HOCQGBWE"/>
      <point x="642" y="341" type="curve" smooth="yes" name="NKZKRQYQ"/>
      <point x="642" y="518" name="KFBWSZBF"/>
      <point x="530" y="645" name="ZHOTIJIT"/>
      <point x="368" y="645" type="curve" smooth="yes" name="UHBUWRMZ"/>
      <point x="205" y="645" name="NTQFFOMG"/>
      <point x="90" y="519" name="KEAFQHJQ"/>
      <point x="90" y="341" type="curve" smooth="yes" name="USPKYDLT"/>
      <point x="90" y="146" name="IUGWDMQH"/>
      <point x="226" y="19" name="OGUXDNAX"/>
      <point x="394" y="37" type="curve" name="YOQNPKLK"/>
    </contour>
  </outline>
</glyph>
<glyph name="R" format="2">
  <advance width="641"/>
  <unicode hex="0052"/>
  <outline>
    <contour>
      <point x="148" y="40" type="move" name="GBJJLGFE"/>
      <point x="148" y="60" name="VWSGHYHI"/>
      <point x="148" y="86.0" name="KVQESLUS"/>
      <point x="148" y="142" type="curve" smooth="yes" name="BIWBWTHY"/>
      <point x="148" y="550" type="line" smooth="yes" name="JZHVNCQH"/>
      <point x="148" y="605" name="CULLDRTI"/>
      <point x="179" y="640" name="ATZHABRZ"/>
      <point x="238" y="640" type="curve" smooth="yes" name="SYUJLVUK"/>
      <point x="328" y="640" type="line" smooth="yes" name="YLTDVQHE"/>
      <point x="430" y="640" name="FZFELHDD"/>
      <point x="496" y="575" name="ZUFJSGWI"/>
      <point x="496" y="476" type="curve" smooth="yes" name="URFXAIKN"/>
      <point x="496" y="379" name="JFHBFVFW"/>
      <point x="430" y="310" name="FPEWLHCH"/>
      <point x="360" y="310" type="curve" smooth="yes" name="ZTZUXBMZ"/>
      <point x="303" y="310" type="line" smooth="yes" name="XGUVQWET"/>
      <point x="260" y="310" name="SVMPYHUW"/>
      <point x="238" y="310" name="IURBUNML"/>
      <point x="238" y="310" type="curve" smooth="yes" name="MJVCDCCI"/>
      <point x="238" y="310" name="FJYVPFJE"/>
      <point x="261" y="310" name="ZHAREDHY"/>
      <point x="305" y="310" type="curve" smooth="yes" name="OBDBJCHD"/>
      <point x="309" y="310" type="line" smooth="yes" name="OICSAEOB"/>
      <point x="365" y="310" name="YFWLJZIA"/>
      <point x="387" y="300" name="AXWYYLDY"/>
      <point x="414" y="257" type="curve" smooth="yes" name="CULLATTE"/>
      <point x="441" y="209" name="KGWPBMLN"/>
      <point x="472" y="150" name="XRBIGCTS"/>
      <point x="498" y="108" type="curve" smooth="yes" name="JJWQOWUK"/>
      <point x="521" y="71" name="SUKFAOLR"/>
      <point x="531" y="55" name="UZUZRXDS"/>
      <point x="541" y="40" type="curve" name="ETPAUYLZ"/>
    </contour>
  </outline>
</glyph>
<glyph name="S" format="2">
  <advance width="521"/>
  <unicode hex="0053"/>
  <outline>
    <contour>
      <point x="394" y="569" type="curve" smooth="yes" name="AMXINOGJ"/>
      <point x="271" y="614" name="AOQIMVOW"/>
      <point x="158" y="598" name="TVTFWIJF"/>
      <point x="158" y="504" type="curve" smooth="yes" name="IIQDNUZD"/>
      <point x="158" y="355" name="AVVNJEWA"/>
      <point x="479" y="428" name="QTRDKFMI"/>
      <point x="479" y="183" type="curve" smooth="yes" name="MEJFDWVI"/>
      <point x="479" y="7" name="TBJQHPMX"/>
      <point x="288" y="-62" name="QCLJEKZI"/>
      <point x="82" y="28" type="curve" smooth="yes" name="OLVEEFAO"/>
      <point x="57" y="39" name="ODJNXDIM"/>
      <point x="45" y="69" name="ZQVYQWKO"/>
      <point x="56" y="94" type="curve" smooth="yes" name="XHDVRFYC"/>
      <point x="67" y="119" name="FTISESSB"/>
      <point x="97" y="131" name="FBXKGRFI"/>
      <point x="122" y="120" type="curve" smooth="yes" name="QBQIBOBP"/>
      <point x="246" y="65" name="MDIHSSKG"/>
      <point x="379" y="77" name="BHYQXEFS"/>
      <point x="379" y="183" type="curve" smooth="yes" name="AITXUODP"/>
      <point x="379" y="338" name="YJNXRTXY"/>
      <point x="58" y="269" name="YAEXLTCB"/>
      <point x="58" y="504" type="curve" smooth="yes" name="TVKAPWGS"/>
      <point x="58" y="664" name="NPHQVHCR"/>
      <point x="221" y="739" name="MDMZNHMZ"/>
      <point x="428" y="663" type="curve" smooth="yes" name="NUPVXKFW"/>
      <point x="453" y="654" name="YJBYLIZB"/>
      <point x="467" y="624" name="BVRJBVBL"/>
      <point x="458" y="599" type="curve" smooth="yes" name="GLSLHAAS"/>
      <point x="448" y="573" name="FQDMEGMG"/>
      <point x="419" y="560" name="BGOJNJYK"/>
    </contour>
  </outline>
</glyph>
<glyph name="T" format="2">
  <advance width="498"/>
  <unicode hex="0054"/>
  <outline>
    <contour>
      <point x="423" y="635" type="move" name="CAGED"/>
      <point x="332" y="635" name="ELJIVCML"/>
      <point x="235" y="635" name="XCLQRYBX"/>
      <point x="144" y="635" type="curve" smooth="yes" name="AHRYJGCS"/>
      <point x="34" y="635" name="NOGPNXID"/>
      <point x="34" y="635" name="BXIKYXAA"/>
      <point x="134.0" y="635" type="curve" smooth="yes" name="UXZJBRRT"/>
      <point x="209.0" y="635" name="HKUSXMBF"/>
      <point x="249" y="584" name="RBXZDWFU"/>
      <point x="249" y="504" type="curve" smooth="yes" name="KBYRBPFS"/>
      <point x="249" y="419" name="OAGURTMG"/>
      <point x="249" y="276" name="BDRAOEAF"/>
      <point x="249" y="201" type="curve" smooth="yes" name="LVMEJTGV"/>
      <point x="249" y="120.0" name="WTVXVUQW"/>
      <point x="249" y="71" name="MJJYBINI"/>
      <point x="249" y="40" type="curve" name="JITUK"/>
    </contour>
  </outline>
</glyph>
<glyph name="U" format="2">
  <advance width="688"/>
  <unicode hex="0055"/>
  <outline>
    <contour>
      <point x="130" y="640" type="move" name="BPFOYWGG"/>
      <point x="130.0" y="622" name="LMEBGKIW"/>
      <point x="130.0" y="583.0" name="CXQWTVNZ"/>
      <point x="130" y="527" type="curve" smooth="yes" name="KYFRHQLN"/>
      <point x="130" y="273" type="line" smooth="yes" name="ONWBETIN"/>
      <point x="130" y="138" name="BXLHDXHC"/>
      <point x="220" y="40" name="UPTHJPPV"/>
      <point x="345" y="40" type="curve" smooth="yes" name="KLAVURME"/>
      <point x="474" y="40" name="KGMXBOHH"/>
      <point x="558" y="138" name="GFLOEUUB"/>
      <point x="558" y="273" type="curve" smooth="yes" name="QNIGJSQC"/>
      <point x="558" y="527" type="line" smooth="yes" name="JQXHSJRK"/>
      <point x="558.0" y="581.0" name="DUZAEMHY"/>
      <point x="558.0" y="619" name="QTUXAYXI"/>
      <point x="558" y="640" type="curve" name="HHGPHJJV"/>
    </contour>
  </outline>
</glyph>
<glyph name="V" format="2">
  <advance width="620"/>
  <unicode hex="0056"/>
  <outline>
    <contour>
      <point x="548" y="640" type="move" name="BKCAXOLB"/>
      <point x="526" y="574" name="MRMNKHLH"/>
      <point x="508" y="517" name="MLPMQTDH"/>
      <point x="486" y="459" type="curve" smooth="yes" name="ZNVKFSPO"/>
      <point x="459" y="384" name="ILVBQZFO"/>
      <point x="418" y="269" name="NDOZDTTN"/>
      <point x="377" y="159" type="curve" smooth="yes" name="CPIHYOFS"/>
      <point x="317" y="-2" name="NTCWIWZS"/>
      <point x="307" y="-26" name="XFYNHUNV"/>
      <point x="246" y="145" type="curve" smooth="yes" name="TFDRUPFU"/>
      <point x="204" y="264" name="CUTZTPBG"/>
      <point x="166" y="369" name="MIVQFSCL"/>
      <point x="132" y="467" type="curve" smooth="yes" name="UVGRBOPG"/>
      <point x="113" y="521" name="QCNWHUCG"/>
      <point x="94" y="587" name="BHJXCTZC"/>
      <point x="72" y="640" type="curve" name="MDPDPCYL"/>
    </contour>
  </outline>
</glyph>
<glyph name="W" format="2">
  <advance width="888"/>
  <unicode hex="0057"/>
  <anchor x="444" y="0" name="below"/>
  <anchor x="444" y="680" name="above"/>
  <outline>
    <contour>
      <point x="80" y="640" type="move" name="UDWYCNFN"/>
      <point x="93" y="598" name="JKBBHJEP"/>
      <point x="119" y="518" name="TRGJTZBX"/>
      <point x="132" y="475" type="curve" smooth="yes" name="OIHYKWJZ"/>
      <point x="161" y="376" name="WFUYXQPJ"/>
      <point x="186" y="294" name="RQTIIALM"/>
      <point x="218" y="189" type="curve" smooth="yes" name="HLOVANOT"/>
      <point x="225" y="169" name="EKABBAOX"/>
      <point x="231" y="147" name="YTSRPTNO"/>
      <point x="238" y="125" type="curve" smooth="yes" name="YHRFLNJF"/>
      <point x="274" y="5" name="FFUTMSUW"/>
      <point x="278" y="1" name="DZSMUKWQ"/>
      <point x="312" y="125" type="curve" smooth="yes" name="HAPHKAQO"/>
      <point x="319" y="149" name="HPVSWLOE"/>
      <point x="325" y="174" name="WWIEHHQY"/>
      <point x="331" y="198" type="curve" smooth="yes" name="GQVSBTXD"/>
      <point x="354" y="287" name="EMLRQWED"/>
      <point x="375" y="375" name="YGXFEGIJ"/>
      <point x="395" y="454" type="curve" smooth="yes" name="KHPXZNDV"/>
      <point x="402" y="482" name="HBKCIYGS"/>
      <point x="409" y="507" name="ECCQOPOL"/>
      <point x="415" y="534" type="curve" smooth="yes" name="PTDOLMWS"/>
      <point x="450" y="672" name="KZYVLQYZ"/>
      <point x="436" y="667" name="KRVGZTDK"/>
      <point x="471" y="527" type="curve" smooth="yes" name="PNHEEQPB"/>
      <point x="476" y="505" name="DUWBKNQK"/>
      <point x="482" y="481" name="MAWMFYYE"/>
      <point x="488" y="457" type="curve" smooth="yes" name="ECGPPKDY"/>
      <point x="508" y="375" name="LELKBEEU"/>
      <point x="532" y="285" name="MDNJUUTO"/>
      <point x="554" y="198" type="curve" smooth="yes" name="JEQAVCJM"/>
      <point x="560" y="174" name="XJFNZTLK"/>
      <point x="566" y="150" name="YDDJGHMQ"/>
      <point x="572" y="126" type="curve" smooth="yes" name="MJBWGDAG"/>
      <point x="603" y="3" name="VXTYDUYO"/>
      <point x="614" y="0" name="XOJOHACR"/>
      <point x="652" y="127" type="curve" smooth="yes" name="RJDFNRCW"/>
      <point x="660" y="153" name="ZMEFGFFA"/>
      <point x="668" y="178" name="XGTDFXQT"/>
      <point x="675" y="201" type="curve" smooth="yes" name="EIBSGLEN"/>
      <point x="708" y="307" name="CHXFUZVS"/>
      <point x="724" y="359" name="ZELGFANE"/>
      <point x="763" y="493" type="curve" smooth="yes" name="NTJBUCHI"/>
      <point x="776" y="537" name="NVFOXMBW"/>
      <point x="795" y="598" name="GMGRGWQC"/>
      <point x="808" y="640" type="curve" name="YCHIJREI"/>
    </contour>
  </outline>
</glyph>
<glyph name="X" format="2">
  <advance width="617"/>
  <unicode hex="0058"/>
  <outline>
    <contour>
      <point x="142" y="669" type="curve" smooth="yes"/>
      <point x="570" y="69" type="line" smooth="yes"/>
      <point x="586" y="47"/>
      <point x="581" y="15"/>
      <point x="559" y="-1" type="curve" smooth="yes"/>
      <point x="537" y="-16"/>
      <point x="505" y="-11"/>
      <point x="489" y="11" type="curve" smooth="yes"/>
      <point x="61" y="611" type="line" smooth="yes"/>
      <point x="45" y="633"/>
      <point x="51" y="665"/>
      <point x="73" y="681" type="curve" smooth="yes"/>
      <point x="95" y="696"/>
      <point x="127" y="691"/>
    </contour>
    <contour>
      <point x="562" y="611" type="curve" smooth="yes"/>
      <point x="128" y="11" type="line" smooth="yes"/>
      <point x="112" y="-11"/>
      <point x="80" y="-16"/>
      <point x="58" y="-1" type="curve" smooth="yes"/>
      <point x="37" y="15"/>
      <point x="31" y="47"/>
      <point x="47" y="69" type="curve" smooth="yes"/>
      <point x="481" y="669" type="line" smooth="yes"/>
      <point x="497" y="691"/>
      <point x="529" y="696"/>
      <point x="551" y="681" type="curve" smooth="yes"/>
      <point x="573" y="665"/>
      <point x="578" y="633"/>
    </contour>
  </outline>
</glyph>
<glyph name="Y" format="2">
  <advance width="582"/>
  <unicode hex="0059"/>
  <anchor x="291" y="0" name="below"/>
  <anchor x="291" y="680" name="above"/>
  <outline>
    <contour>
      <point x="502" y="640" type="move" name="EMDQKSIX"/>
      <point x="481" y="602" name="EZIHKRGX"/>
      <point x="461" y="564" name="MLXBKCAV"/>
      <point x="440" y="526" type="curve" smooth="yes" name="HYAZBRXE"/>
      <point x="400" y="453" name="XUBKIJND"/>
      <point x="371" y="402" name="ULUFMOPO"/>
      <point x="332" y="329" type="curve" smooth="yes" name="LCOKNLPZ"/>
      <point x="310" y="288" name="GLHYTUQW"/>
      <point x="291" y="243" name="NZKJSQPS"/>
      <point x="291" y="188" type="curve" smooth="yes" name="YWEUYUCK"/>
      <point x="291" y="166" name="HYDKXYMW"/>
      <point x="291" y="150" name="SGSTWUWP"/>
      <point x="291" y="111" type="curve" smooth="yes" name="BCKEHGMJ"/>
      <point x="291" y="16" name="DREZHDOC"/>
      <point x="291" y="16" name="RVNJEQEH"/>
      <point x="291" y="115" type="curve" smooth="yes" name="RELXFRLE"/>
      <point x="291" y="148" name="BWHPUCOM"/>
      <point x="291" y="166" name="ZSHXENLA"/>
      <point x="291" y="189" type="curve" smooth="yes" name="UXAPWYJT"/>
      <point x="291.0" y="303" name="MDIKBZTR"/>
      <point x="260" y="312" name="KPNAFPHR"/>
      <point x="203" y="413" type="curve" smooth="yes" name="AORWATIU"/>
      <point x="159" y="487" name="AZPUPCGW"/>
      <point x="135" y="538" name="NNCPEGGP"/>
      <point x="80" y="640" type="curve" name="DOFCRVOF"/>
    </contour>
  </outline>
</glyph>
<glyph name="Z" format="2">
  <advance width="595"/>
  <unicode hex="005A"/>
  <outline>
    <contour>
      <point x="105" y="635" type="move" name="NSEUPGKF"/>
      <point x="168" y="635" name="JIAKPJZB"/>
      <point x="273" y="635" name="GMIIZJSB"/>
      <point x="357" y="635" type="curve" smooth="yes" name="OSKJUMAZ"/>
      <point x="516" y="635" name="SPSNJGNX"/>
      <point x="510" y="632" name="RWNXYGZA"/>
      <point x="424" y="514" type="curve" smooth="yes" name="AQAKARCN"/>
      <point x="340" y="399" name="BXRSLAST"/>
      <point x="260" y="289" name="TPGLTFSY"/>
      <point x="176" y="173" type="curve" smooth="yes" name="YDMOKHIP"/>
      <point x="92" y="57" name="HPKYBTMY"/>
      <point x="73" y="45" name="PVASTBKM"/>
      <point x="275" y="45" type="curve" smooth="yes" name="NYUZTSKR"/>
      <point x="347" y="45" name="PWFYWCVK"/>
      <point x="449" y="45" name="MDLRNTFQ"/>
      <point x="490" y="45" type="curve" name="GZZREVVJ"/>
    </contour>
  </outline>
</glyph>
<glyph name="bracketleft" format="2">
  <advance width="430"/>
  <unicode hex="005B"/>
  <outline>
    <contour>
      <point x="345" y="723" type="move"/>
      <point x="158.0" y="723.0" type="line"/>
      <point x="158.0" y="-113.0" type="line"/>
      <point x="345" y="-113" type="line"/>
    </contour>
  </outline>
</glyph>
<glyph name="backslash" format="2">
  <advance width="490"/>
  <unicode hex="005C"/>
  <outline>
    <contour>
      <point x="392.1609402892015" y="-120.0" type="move"/>
      <point x="112.16094028920152" y="730.0" type="line"/>
    </contour>
  </outline>
</glyph>
<glyph name="bracketright" format="2">
  <advance width="430"/>
  <unicode hex="005D"/>
  <outline>
    <contour>
      <point x="85.0" y="-113.0" type="move"/>
      <point x="272.0" y="-113.0" type="line"/>
      <point x="272.0" y="723.0" type="line"/>
      <point x="85.0" y="723.0" type="line"/>
    </contour>
  </outline>
</glyph>
<glyph name="asciicircum" format="2">
  <advance width="560"/>
  <unicode hex="005E"/>
  <outline>
    <contour>
      <point x="112" y="303" type="move" name="DPKVPQJO"/>
      <point x="144" y="369" name="HKRIYKUL"/>
      <point x="179" y="436" name="UEOPGQQK"/>
      <point x="220" y="523" type="curve" smooth="yes" name="CAMFJWXF"/>
      <point x="275" y="642" name="NRBDBNMO"/>
      <point x="278" y="645" name="DKSOVYWN"/>
      <point x="338" y="521" type="curve" smooth="yes" name="IKELVWVD"/>
      <point x="378" y="437" name="IKRJQXGU"/>
      <point x="414" y="369" name="ZDPUFIXO"/>
      <point x="447" y="303" type="curve" name="HQLQOGCR"/>
    </contour>
  </outline>
</glyph>
<glyph name="underscore" format="2">
  <advance width="535"/>
  <unicode hex="005F"/>
  <outline>
    <contour>
      <point x="537" y="-78" type="move" name="PBIZMKQO"/>
      <point x="358" y="-78.0" name="APHQVELN"/>
      <point x="177" y="-78.0" name="XROZHWJC"/>
      <point x="-2" y="-78" type="curve" name="GLIRGNZG"/>
    </contour>
  </outline>
</glyph>
<glyph name="grave" format="2">
  <advance width="408"/>
  <unicode hex="0060"/>
  <anchor x="0" y="497.0" name="top"/>
  <anchor x="254" y="497.0" name="center"/>
  <outline>
    <contour>
      <point x="246.0" y="604.0" type="move" name="EKYHDXUS"/>
      <point x="216" y="639" name="EYUQAYHG"/>
      <point x="185" y="675" name="MDXPGRRZ"/>
      <point x="155.0" y="710.0" type="curve" name="ZBZRDUBQ"/>
    </contour>
  </outline>
</glyph>
<glyph name="a" format="2">
  <advance width="623"/>
  <unicode hex="0061"/>
  <outline>
    <contour>
      <point x="506" y="487" type="move" name="WSJZWFWU"/>
      <point x="506" y="423" name="AWCDQJJY"/>
      <point x="506" y="377" name="DKYYFCKB"/>
      <point x="506" y="267" type="curve" smooth="yes" name="BLGCRREV"/>
      <point x="506.0" y="122.64055299539169" name="TKFBTWVN"/>
      <point x="404.0" y="40.0" name="NYGRJVLK"/>
      <point x="301" y="40" type="curve" smooth="yes" name="WPSKGPWF"/>
      <point x="177.0" y="40.0" name="XJVVIJQK"/>
      <point x="100.0" y="136.20091324200914" name="VUIAQCQJ"/>
      <point x="100" y="269" type="curve" smooth="yes" name="PPHWCYKS"/>
      <point x="100.0" y="401.8256880733945" name="AVLROAZK"/>
      <point x="186.0" y="497.0" name="MZTFHZLW"/>
      <point x="303" y="497" type="curve" smooth="yes" name="YERFOTGV"/>
      <point x="420.0" y="497.0" name="EAYWLXPH"/>
      <point x="506" y="401" name="FOEGCPTB"/>
      <point x="506" y="269" type="curve" smooth="yes" name="ULANFUGG"/>
      <point x="506" y="155" type="line" smooth="yes" name="OWAYEJLB"/>
      <point x="506" y="96" name="YIXBGQYF"/>
      <point x="506" y="65" name="HQDMNHCZ"/>
      <point x="506" y="38" type="curve" name="EAWGWVBE"/>
    </contour>
  </outline>
</glyph>
<glyph name="b" format="2">
  <advance width="584"/>
  <unicode hex="0062"/>
  <outline>
    <contour>
      <point x="305.0" y="513.0" type="curve" smooth="yes" name="ZBIPBRCW"/>
      <point x="444.31683417545526" y="513.0" name="DZRTUUWA"/>
      <point x="551.0" y="402.1115422294858" name="CNSWSIBN"/>
      <point x="551.0" y="248.0" type="curve" smooth="yes" name="IHRSTKLX"/>
      <point x="551.0" y="93.73430770039904" name="GFESTJYT"/>
      <point x="444.2220603004425" y="-16.0" name="DYOGFPKT"/>
      <point x="306.0" y="-16.0" type="curve" smooth="yes" name="CLUWLMDT"/>
      <point x="166.68316582454474" y="-16.0" name="MDAAMNGN"/>
      <point x="61.0" y="93.8884577705141" name="VXUJCKVZ"/>
      <point x="61.0" y="248.0" type="curve" smooth="yes" name="VJFNXFUP"/>
      <point x="61.0" y="402.03240062881997" name="ZWRLTNWX"/>
      <point x="164.52245062651602" y="513.0" name="LFKTHPLJ"/>
    </contour>
    <contour>
      <point x="305.0" y="413.0" type="curve" smooth="yes" name="WYPRWQRQ"/>
      <point x="217.57109660423984" y="413.0" name="IYWHAVDN"/>
      <point x="161.0" y="343.86502565324565" name="LAUHOREE"/>
      <point x="161.0" y="248.0" type="curve" smooth="yes" name="YDILQPNQ"/>
      <point x="161.0" y="152.23081540615112" name="BAXCUFWE"/>
      <point x="219.42465712716063" y="84.0" name="GTCQAGLA"/>
      <point x="306.0" y="84.0" type="curve" smooth="yes" name="EXIYKPIL"/>
      <point x="391.72340165899" y="84.0" name="PZGHNZJS"/>
      <point x="451.0" y="152.32656064844883" name="EVXULTIJ"/>
      <point x="451.0" y="248.0" type="curve" smooth="yes" name="DAUHVZOZ"/>
      <point x="451.0" y="343.7691845938488" name="KPRUGDFD"/>
      <point x="391.5753428728394" y="413.0" name="HVFCSTZW"/>
    </contour>
    <contour>
      <point x="61.0" y="40.00000000000001" type="curve" smooth="yes" name="IHTYEIRI"/>
      <point x="61.0" y="695.0" type="line" smooth="yes" name="LPMFWEFC"/>
      <point x="61.00000000000001" y="722.0" name="CWKMXGMU"/>
      <point x="84.0" y="745.0" name="MKAJLIUG"/>
      <point x="111.0" y="745.0" type="curve" smooth="yes" name="XPIYVMSL"/>
      <point x="138.0" y="745.0" name="ZCWOVFNZ"/>
      <point x="161.0" y="722.0" name="SQEISLID"/>
      <point x="161.0" y="695.0" type="curve" smooth="yes" name="PHVGIPHV"/>
      <point x="161.0" y="39.99999999999999" type="line" smooth="yes" name="BZIVXEUJ"/>
      <point x="161.0" y="12.999999999999993" name="FYDCPTQC"/>
      <point x="137.99999999999997" y="-10.000000000000007" name="POCOGSSI"/>
      <point x="110.99999999999997" y="-10.0" type="curve" smooth="yes" name="EWLBNXAO"/>
      <point x="83.99999999999997" y="-9.999999999999993" name="MNNXKBVC"/>
      <point x="60.99999999999999" y="13.000000000000007" name="IKLPLFXT"/>
    </contour>
  </outline>
</glyph>
<glyph name="c" format="2">
  <advance width="475"/>
  <unicode hex="0063"/>
  <anchor x="274" y="505" name="above"/>
  <anchor x="274" y="-10" name="below"/>
  <outline>
    <contour>
      <point x="394" y="68" type="move" name="GFFKEVKI"/>
      <point x="363" y="46" name="AFAEAXIH"/>
      <point x="314" y="34" name="IJJERYGV"/>
      <point x="277" y="34" type="curve" smooth="yes" name="PTAFDHQJ"/>
      <point x="171" y="34" name="VJNXTIGD"/>
      <point x="84" y="115" name="GQYQYGAD"/>
      <point x="84" y="248" type="curve" smooth="yes" name="UKQSPANH"/>
      <point x="84" y="379" name="MLJMFJFA"/>
      <point x="170" y="462" name="DGPJYGIS"/>
      <point x="275" y="462" type="curve" smooth="yes" name="PBNYCTPX"/>
      <point x="313" y="462" name="NCOCBVGL"/>
      <point x="362" y="452" name="WPMAEVGB"/>
      <point x="394" y="429" type="curve" name="KQWDSPDR"/>
    </contour>
  </outline>
</glyph>
<glyph name="d" format="2">
  <advance width="584"/>
  <unicode hex="0064"/>
  <anchor x="288" y="735" name="above"/>
  <anchor x="288" y="-12" name="below"/>
  <outline>
    <contour>
      <point x="474" y="696" type="move" name="FREEZ"/>
      <point x="474" y="667" name="XROPYXTI"/>
      <point x="474" y="637" name="QVGYAETI"/>
      <point x="474" y="594" type="curve" smooth="yes" name="WRPFXCWR"/>
      <point x="474" y="454" name="YBZYZLAB"/>
      <point x="474" y="402" name="WEVFLMXM"/>
      <point x="474" y="237" type="curve" smooth="yes" name="SPLNPNLQ"/>
      <point x="474" y="112" name="PFILA"/>
      <point x="393" y="34" name="MAMUE"/>
      <point x="280" y="34" type="curve" smooth="yes" name="MAAAX"/>
      <point x="167" y="34" name="GINKE"/>
      <point x="84" y="124" name="WAGIP"/>
      <point x="84" y="249" type="curve" smooth="yes" name="IXEXE"/>
      <point x="84" y="374" name="SAMNN"/>
      <point x="166" y="463" name="YUTUP"/>
      <point x="279" y="463" type="curve" smooth="yes" name="RENLY"/>
      <point x="391" y="463" name="NOOKS"/>
      <point x="474" y="376" name="BLUJA"/>
      <point x="474" y="251" type="curve" smooth="yes" name="BONEE"/>
      <point x="474" y="214" name="OAREABUJ"/>
      <point x="474" y="157" name="SATUBKCG"/>
      <point x="474" y="129" type="curve" smooth="yes" name="QPONFOTR"/>
      <point x="474" y="96" name="NGYRFVEJ"/>
      <point x="474" y="62" name="DWQWQKZD"/>
      <point x="474" y="29" type="curve" name="YACKK"/>
    </contour>
  </outline>
</glyph>
<glyph name="e" format="2">
  <advance width="548"/>
  <unicode hex="0065"/>
  <outline>
    <contour>
      <point x="108.0" y="299.0" type="curve" smooth="yes"/>
      <point x="463.0" y="299.0" type="line"/>
      <point x="413.0243961956461" y="250.56173761888607" type="line"/>
      <point x="416.0677108259014" y="347.9478057870568"/>
      <point x="367.2128096471493" y="413.0"/>
      <point x="282.0" y="413.0" type="curve" smooth="yes"/>
      <point x="194.089997085804" y="413.0"/>
      <point x="134.0" y="347.47710856080084"/>
      <point x="134.0" y="248.0" type="curve" smooth="yes"/>
      <point x="134.0" y="93.07888940664864"/>
      <point x="277.9310728479767" y="39.612540364608066"/>
      <point x="426.3971371666049" y="123.5281419360067" type="curve" smooth="yes"/>
      <point x="449.90233381204854" y="136.81368786604006"/>
      <point x="481.2425960059734" y="128.10805947883873"/>
      <point x="494.5281419360067" y="104.60286283339511" type="curve" smooth="yes"/>
      <point x="507.81368786604" y="81.09766618795149"/>
      <point x="499.1080594788387" y="49.75740399402665"/>
      <point x="475.6028628333951" y="36.47185806399329" type="curve" smooth="yes"/>
      <point x="256.279732786044" y="-87.49338935407471"/>
      <point x="34.0" y="19.141081689720636"/>
      <point x="34.0" y="248.0" type="curve" smooth="yes"/>
      <point x="34.0" y="406.40618348092215"/>
      <point x="142.01314017965012" y="513.0"/>
      <point x="282.0" y="513.0" type="curve" smooth="yes"/>
      <point x="420.56796117916514" y="513.0"/>
      <point x="517.9244595607528" y="405.8016465858739"/>
      <point x="512.9756038043539" y="247.43826238111393" type="curve" smooth="yes"/>
      <point x="512.1320719457369" y="220.44524290537012"/>
      <point x="490.00619644478627" y="199.0"/>
      <point x="463.0" y="199.0" type="curve" smooth="yes"/>
      <point x="108.0" y="199.0" type="line" smooth="yes"/>
      <point x="81.0" y="199.0"/>
      <point x="57.99999999999999" y="222.0"/>
      <point x="58.0" y="249.0" type="curve" smooth="yes"/>
      <point x="58.00000000000001" y="276.0"/>
      <point x="81.0" y="299.0"/>
    </contour>
  </outline>
</glyph>
<glyph name="f" format="2">
  <advance width="364"/>
  <unicode hex="0066"/>
  <outline>
    <contour>
      <point x="338" y="676" type="move" name="LCNTMJTI"/>
      <point x="249" y="721" name="EUQFLOWI"/>
      <point x="163" y="678" name="FYXKGWHP"/>
      <point x="163" y="584" type="curve" smooth="yes" name="MIHBWPET"/>
      <point x="163.0" y="444" name="KXMMQIXD"/>
      <point x="163" y="276" name="TVBJPCUV"/>
      <point x="163" y="195" type="curve" smooth="yes" name="ZZRYTFSK"/>
      <point x="163.0" y="143.0" name="PUXCOTVM"/>
      <point x="163.0" y="82" name="NUHRBMBP"/>
      <point x="163" y="40" type="curve" name="KFGFRHUS"/>
    </contour>
    <contour>
      <point x="309" y="453" type="move" name="SDRTNBMO"/>
      <point x="275.0" y="453" name="YZGICSME"/>
      <point x="247" y="453" name="BWLWBXFB"/>
      <point x="222" y="453" type="curve" smooth="yes" name="NXRRWOBG"/>
      <point x="184" y="453.0" name="WOYFWAAP"/>
      <point x="149" y="453.0" name="DJOUCXJN"/>
      <point x="111" y="453" type="curve" smooth="yes" name="CMPVRDML"/>
      <point x="92" y="453.0" name="NWUVUROL"/>
      <point x="78" y="453.0" name="ANNFZJGU"/>
      <point x="57" y="453" type="curve" name="DXSXWAFU"/>
    </contour>
  </outline>
</glyph>
<glyph name="g" format="2">
  <advance width="556"/>
  <unicode hex="0067"/>
  <outline>
    <contour>
      <point x="265.0" y="41.0" type="curve" smooth="yes"/>
      <point x="134.05155191996198" y="41.0"/>
      <point x="34.0" y="140.75595345457558"/>
      <point x="34.0" y="278.0" type="curve" smooth="yes"/>
      <point x="34.0" y="413.1304901394653"/>
      <point x="133.92111696855204" y="513.0"/>
      <point x="264.0" y="513.0" type="curve" smooth="yes"/>
      <point x="395.2105414643526" y="513.0"/>
      <point x="495.0" y="412.9954609296704"/>
      <point x="495.0" y="278.0" type="curve" smooth="yes"/>
      <point x="495.0" y="140.82454118398357"/>
      <point x="397.1414970246029" y="41.0"/>
    </contour>
    <contour>
      <point x="495.0" y="458.0" type="curve" smooth="yes"/>
      <point x="495.0" y="48.999999999999986" type="line" smooth="yes"/>
      <point x="495.0" y="-152.8675883617905"/>
      <point x="268.4344890274663" y="-224.01694542614436"/>
      <point x="96.28973576189054" y="-141.04069744921213" type="curve" smooth="yes"/>
      <point x="71.96775913931599" y="-129.317154760633"/>
      <point x="61.23575986220875" y="-98.61171238446508"/>
      <point x="72.95930255078787" y="-74.28973576189053" type="curve" smooth="yes"/>
      <point x="84.68284523936698" y="-49.96775913931597"/>
      <point x="115.3882876155349" y="-39.235759862208745"/>
      <point x="139.71026423810946" y="-50.95930255078786" type="curve" smooth="yes"/>
      <point x="245.04316645233678" y="-101.73127699937228"/>
      <point x="395.0" y="-74.5198781361083"/>
      <point x="395.0" y="49.000000000000014" type="curve" smooth="yes"/>
      <point x="395.0" y="458.0" type="line" smooth="yes"/>
      <point x="395.0" y="485.0"/>
      <point x="418.0" y="508.0"/>
      <point x="445.0" y="508.0" type="curve" smooth="yes"/>
      <point x="472.0" y="508.0"/>
      <point x="495.0" y="485.0"/>
    </contour>
    <contour>
      <point x="265.0" y="141.0" type="curve" smooth="yes"/>
      <point x="342.8415454391423" y="141.0"/>
      <point x="395.0" y="197.1930623536523"/>
      <point x="395.0" y="278.0" type="curve" smooth="yes"/>
      <point x="395.0" y="356.96907811392765"/>
      <point x="340.754991811668" y="413.0"/>
      <point x="264.0" y="413.0" type="curve" smooth="yes"/>
      <point x="188.09700539709814" y="413.0"/>
      <point x="134.0" y="356.8506837136942"/>
      <point x="134.0" y="278.0" type="curve" smooth="yes"/>
      <point x="134.0" y="197.27384908956424"/>
      <point x="187.976883534997" y="141.0"/>
    </contour>
  </outline>
</glyph>
<glyph name="h" format="2">
  <advance width="600"/>
  <unicode hex="0068"/>
  <outline>
    <contour>
      <point x="487" y="40" type="move" name="EZYKVNCB"/>
      <point x="487.0" y="57" name="QJLVCGSE"/>
      <point x="487.0" y="89" name="IMZTXLDJ"/>
      <point x="487" y="144" type="curve" smooth="yes" name="WEMRZDAL"/>
      <point x="487" y="317" type="line" smooth="yes" name="HTYXNGFM"/>
      <point x="487" y="432" name="OMONLOUI"/>
      <point x="415" y="497" name="RZQRUXVT"/>
      <point x="325" y="497" type="curve" smooth="yes" name="BDMAMUHE" identifier="85yKiOzX3b"/>
      <point x="205" y="497" name="OOADYHEO"/>
      <point x="117" y="415" name="JZXWAWYG"/>
      <point x="117" y="272" type="curve" smooth="yes" name="FCIEECSW"/>
      <point x="117" y="134" type="line" smooth="yes" name="PLNJKNJL"/>
      <point x="117" y="71" name="VQCEVPUA"/>
      <point x="117" y="39" name="YWXZNGGK"/>
      <point x="117" y="39" type="curve" smooth="yes" name="FOTSZLCF"/>
      <point x="117" y="39" name="BBYBGWCE"/>
      <point x="117" y="70" name="FFABQLXI"/>
      <point x="117" y="134" type="curve" smooth="yes" name="TWCRTRHB"/>
      <point x="117" y="576" type="line" smooth="yes" name="FQAIZGXA"/>
      <point x="117.0" y="648" name="NCUQMSAB"/>
      <point x="117.0" y="676" name="DVFQIZMT"/>
      <point x="117" y="696" type="curve" name="YTCYHBJK"/>
    </contour>
  </outline>
</glyph>
<glyph name="i" format="2">
  <advance width="231"/>
  <unicode hex="0069"/>
  <outline>
    <contour>
      <point x="115" y="40" type="move" name="ASRMLMHF"/>
      <point x="115.0" y="82" name="ENCFTFPP"/>
      <point x="115.0" y="123" name="XCNOETKN"/>
      <point x="115" y="165" type="curve" smooth="yes" name="UTTQRVZE"/>
      <point x="115.0" y="221.0" name="TOVRUFDL"/>
      <point x="115.0" y="277" name="HRBSDMDH"/>
      <point x="115" y="333" type="curve" smooth="yes" name="IXMXKXNK"/>
      <point x="115.0" y="375.0" name="DLGYHBZB"/>
      <point x="115.0" y="416" name="IEZVKCLU"/>
      <point x="115" y="458" type="curve" name="QHDACRAQ"/>
    </contour>
    <contour>
      <point x="115" y="639" type="move" name="ILPNMAJT"/>
      <point x="115" y="653" name="EBNQYFUX"/>
      <point x="115" y="668" name="PCPDQLUZ"/>
      <point x="115" y="682" type="curve" name="JAFZCSTS"/>
    </contour>
  </outline>
</glyph>
<glyph name="j" format="2">
  <advance width="245"/>
  <unicode hex="006A"/>
  <anchor x="89" y="721" name="above"/>
  <anchor x="57" y="-162" name="below"/>
  <outline>
    <contour>
      <point x="129" y="458" type="move" name="UGUZHQNS"/>
      <point x="129.0" y="416" name="ILDWEVZF"/>
      <point x="129.0" y="354" name="WRRBPMHN"/>
      <point x="129" y="278" type="curve" smooth="yes" name="YEMNOQDH"/>
      <point x="129.0" y="209.0" name="SNTBZHMG"/>
      <point x="129.0" y="99.21700000000001" name="OEVFREAO"/>
      <point x="129" y="-17" type="curve" smooth="yes" name="XJEKLFAU"/>
      <point x="129" y="-118" name="RTKRGXVV"/>
      <point x="56" y="-141" name="MFIUZTOY"/>
      <point x="-15" y="-114" type="curve" name="HVMBQHYF"/>
    </contour>
    <contour>
      <point x="129" y="639" type="move" name="YACKK"/>
      <point x="129.0" y="653" name="XBXBQJPZ"/>
      <point x="129.0" y="668" name="NIKSWRFD"/>
      <point x="129" y="682" type="curve" name="QNBESCIE"/>
    </contour>
  </outline>
</glyph>
<glyph name="k" format="2">
  <advance width="501"/>
  <unicode hex="006B"/>
  <outline>
    <contour>
      <point x="115" y="695" type="move" name="WDJYFJDK"/>
      <point x="115" y="650" name="WBPBKLZA"/>
      <point x="115" y="604" name="GPXHURKY"/>
      <point x="115" y="564" type="curve" smooth="yes" name="KZUFSEAG"/>
      <point x="115" y="428" name="XGDBZCEN"/>
      <point x="115" y="302" name="QSAZGYZS"/>
      <point x="115" y="168" type="curve" smooth="yes" name="YBUGHKYB"/>
      <point x="115" y="4" name="IDSTYIGA"/>
      <point x="116" y="-4" name="CCXFIADG"/>
      <point x="116" y="120" type="curve" smooth="yes" name="YKTRECEP"/>
      <point x="116" y="205" name="RJLZMPOC"/>
      <point x="123" y="224" name="JCJLPFWW"/>
      <point x="188" y="276" type="curve" smooth="yes" name="GZCAQDCV"/>
      <point x="238" y="316" name="CYWNEVAW"/>
      <point x="284" y="353" name="KNTFVKHV"/>
      <point x="335" y="394" type="curve" smooth="yes" name="JTIYAHXU"/>
      <point x="361" y="416" name="MCAWCCFP"/>
      <point x="388" y="437" name="EUPXRPIJ"/>
      <point x="414" y="458" type="curve" name="BONFCDDO"/>
    </contour>
    <contour>
      <point x="414" y="458" type="move" name="LMCCAFQX"/>
      <point x="388" y="437" name="LDGIDTIP"/>
      <point x="361" y="415" name="GKPKDHJH"/>
      <point x="335" y="394" type="curve" smooth="yes" name="CQJZGKAJ"/>
      <point x="309" y="373" name="PTNKWXWZ"/>
      <point x="287" y="356" name="VLIJDJMG"/>
      <point x="261" y="335" type="curve" smooth="yes" name="WGLKFLIQ"/>
      <point x="209" y="294" name="QOESMXJQ"/>
      <point x="211" y="245" name="DPWRSORG"/>
      <point x="257" y="200" type="curve" smooth="yes" name="FTMAZFPN"/>
      <point x="334" y="126" name="VGSLMPLV"/>
      <point x="378" y="85" name="KNKELDHR"/>
      <point x="424" y="40" type="curve" name="SAICGOBU"/>
    </contour>
  </outline>
</glyph>
<glyph name="l" format="2">
  <advance width="254"/>
  <unicode hex="006C"/>
  <outline>
    <contour>
      <point x="127" y="40" type="move" name="TFTROAJX"/>
      <point x="127.0" y="56" name="YHALBMDU"/>
      <point x="127" y="87.0" name="RAJKOGSO"/>
      <point x="127" y="145" type="curve" smooth="yes" name="DKGCKAMT"/>
      <point x="127" y="607" type="line" smooth="yes" name="MDXXGJQU"/>
      <point x="127" y="664" name="LVHHYDGH"/>
      <point x="127" y="690" name="CIENTHQL"/>
      <point x="127" y="698" type="curve" name="ZZYEMIPA"/>
    </contour>
  </outline>
</glyph>
<glyph name="m" format="2">
  <advance width="828"/>
  <unicode hex="006D"/>
  <outline>
    <contour>
      <point x="111.0" y="458" type="move" name="VDMEMYEL"/>
      <point x="111.0" y="418" name="OAKPJBWD"/>
      <point x="111.0" y="378" name="GFPQOQPJ"/>
      <point x="111.0" y="338" type="curve" name="LLKHPBDW"/>
      <point x="111.0" y="312" name="EWIZTKTK"/>
      <point x="111.0" y="197" name="VVDRFDRZ"/>
      <point x="111.0" y="128" type="curve" name="UWOXJQKR"/>
      <point x="111.0" y="9" name="KJQLRSPW"/>
      <point x="111.0" y="11" name="TCISUOUM"/>
      <point x="111.0" y="130" type="curve" smooth="yes" name="WUOJMAIB"/>
      <point x="111.0" y="178" name="RZBASJZO"/>
      <point x="111" y="222" name="TGQGZWAW"/>
      <point x="111.0" y="278" type="curve" smooth="yes" name="AHMEONTF"/>
      <point x="111.0" y="397" name="XNQFIGJC"/>
      <point x="184.0" y="463" name="GGPQBAKH"/>
      <point x="285.0" y="463" type="curve" smooth="yes" name="LZPSZBZK"/>
      <point x="361" y="463" name="MOPSOYXZ"/>
      <point x="418.0" y="414" name="GYJPWYXS"/>
      <point x="418.0" y="303" type="curve" smooth="yes" name="XDFSRQFB"/>
      <point x="418.0" y="265" name="UTZTPMXB"/>
      <point x="418" y="214" name="UCIPMBCI"/>
      <point x="418.0" y="175" type="curve" smooth="yes" name="FBVEVXMM"/>
      <point x="418.0" y="-1" name="RZQLWJCZ"/>
      <point x="418.0" y="-2" name="KXRNFRLC"/>
      <point x="418.0" y="175" type="curve" smooth="yes" name="RRGTHXJP"/>
      <point x="418" y="214" name="MTIAECDR"/>
      <point x="418.0" y="230.0" name="SYXYBBFU"/>
      <point x="418.0" y="278" type="curve" smooth="yes" name="HROVNQAF"/>
      <point x="418.0" y="397.0" name="EZJCTCVR"/>
      <point x="491.0" y="463" name="XWMYVLNW"/>
      <point x="592.0" y="463" type="curve" smooth="yes" name="QOOEGJXA"/>
      <point x="668" y="463" name="ECGZNSSW"/>
      <point x="725.0" y="414" name="OIBTKGHK"/>
      <point x="725.0" y="303" type="curve" smooth="yes" name="KFTFNYJS"/>
      <point x="725.0" y="265" name="WYMFYMEM"/>
      <point x="725.0" y="214" name="MNFVHIEZ"/>
      <point x="725.0" y="175" type="curve" smooth="yes" name="VCBNKKUP"/>
      <point x="725.0" y="130" name="WXBUKFNV"/>
      <point x="725.0" y="85" name="IIGACVIW"/>
      <point x="725.0" y="40" type="curve" name="FTUUJEPK"/>
    </contour>
  </outline>
</glyph>
<glyph name="n" format="2">
  <advance width="600"/>
  <unicode hex="006E"/>
  <outline>
    <contour>
      <point x="487" y="40" type="move" name="EZYKVNCB"/>
      <point x="487.0" y="62" name="QJLVCGSE"/>
      <point x="487.0" y="84" name="IMZTXLDJ"/>
      <point x="487" y="144" type="curve" smooth="yes" name="WEMRZDAL"/>
      <point x="487" y="317" type="line" smooth="yes" name="HTYXNGFM"/>
      <point x="487" y="432" name="OMONLOUI"/>
      <point x="422" y="497" name="RZQRUXVT"/>
      <point x="335" y="497" type="curve" smooth="yes" name="BDMAMUHE" identifier="85yKiOzX3b"/>
      <point x="218" y="497" name="OOADYHEO"/>
      <point x="117" y="434" name="JZXWAWYG"/>
      <point x="117" y="272" type="curve" smooth="yes" name="FCIEECSW"/>
      <point x="117" y="134" type="line" smooth="yes" name="PLNJKNJL"/>
      <point x="117" y="70" name="JHWWECAF"/>
      <point x="117" y="39" name="XOQEXLKF"/>
      <point x="117" y="39" type="curve" smooth="yes" name="FOOWRPTL"/>
      <point x="117" y="39" name="OSCWCAKP"/>
      <point x="117" y="71" name="BDGVJTUN"/>
      <point x="117" y="134" type="curve" smooth="yes" name="TWCRTRHB"/>
      <point x="117" y="406" type="line" smooth="yes" name="FQAIZGXA"/>
      <point x="117.0" y="453" name="NCUQMSAB"/>
      <point x="117.0" y="475" name="DVFQIZMT"/>
      <point x="117" y="496" type="curve" name="YTCYHBJK"/>
    </contour>
  </outline>
</glyph>
<glyph name="o" format="2">
  <advance width="577"/>
  <unicode hex="006F"/>
  <outline>
    <contour>
      <point x="288.0" y="84.0" type="curve" smooth="yes"/>
      <point x="379.9034911169426" y="84.0"/>
      <point x="443.0" y="153.23501765965642"/>
      <point x="443.0" y="249.0" type="curve" smooth="yes"/>
      <point x="443.0" y="344.7649823403436"/>
      <point x="379.9034911169426" y="413.0"/>
      <point x="288.0" y="413.0" type="curve" smooth="yes"/>
      <point x="197.00543558004273" y="413.0"/>
      <point x="134.0" y="344.6214066785992"/>
      <point x="134.0" y="249.0" type="curve" smooth="yes"/>
      <point x="134.0" y="153.37859332140084"/>
      <point x="197.00543558004273" y="84.0"/>
    </contour>
    <contour>
      <point x="288.0" y="-16.0" type="curve" smooth="yes"/>
      <point x="143.02887119709925" y="-16.0"/>
      <point x="34.0" y="96.65745786813817"/>
      <point x="34.0" y="249.0" type="curve" smooth="yes"/>
      <point x="34.0" y="401.34254213186193"/>
      <point x="143.02887119709925" y="513.0"/>
      <point x="288.0" y="513.0" type="curve" smooth="yes"/>
      <point x="434.0536075700889" y="513.0"/>
      <point x="543.0" y="401.190313770513"/>
      <point x="543.0" y="249.0" type="curve" smooth="yes"/>
      <point x="543.0" y="96.80968622948711"/>
      <point x="434.0536075700889" y="-16.0"/>
    </contour>
  </outline>
</glyph>
<glyph name="q" format="2">
  <advance width="584"/>
  <unicode hex="0071"/>
  <outline>
    <contour>
      <point x="474" y="-125" type="move" name="FREEZ"/>
      <point x="474.0" y="-86" name="ZAELNYDU"/>
      <point x="474.0" y="-47" name="FUXIBTVJ"/>
      <point x="474" y="-8" type="curve" smooth="yes" name="LGLBTFEO"/>
      <point x="474.0" y="43" name="EVVUKOGN"/>
      <point x="474.0" y="134" name="COPWTNHZ"/>
      <point x="474" y="220" type="curve" smooth="yes" name="BONEE"/>
      <point x="474" y="388" name="PFILA"/>
      <point x="393" y="463" name="MAMUE"/>
      <point x="280" y="463" type="curve" smooth="yes" name="MAAAX"/>
      <point x="169" y="463" name="GINKE"/>
      <point x="84" y="373" name="WAGIP"/>
      <point x="84" y="248" type="curve" smooth="yes" name="IXEXE"/>
      <point x="84" y="123" name="SAMNN"/>
      <point x="166" y="34" name="YUTUP"/>
      <point x="279" y="34" type="curve" smooth="yes" name="RENLY"/>
      <point x="391" y="34" name="NOOKS"/>
      <point x="474" y="123" name="BLUJA"/>
      <point x="474" y="248" type="curve" smooth="yes" name="NGQSWGGC"/>
      <point x="474.0" y="338" name="WGVIDWHY"/>
      <point x="474.0" y="406" name="WGYSNKAB"/>
      <point x="474" y="458" type="curve" name="YACKK"/>
    </contour>
  </outline>
</glyph>
<glyph name="r" format="2">
  <advance width="389"/>
  <unicode hex="0072"/>
  <anchor x="210" y="497" name="above"/>
  <anchor x="150" y="0" name="below"/>
  <outline>
    <contour>
      <point x="329" y="456" type="move" name="YYCKSHPH"/>
      <point x="176" y="477" name="WJONRWZS"/>
      <point x="111" y="379" name="GRGSVKNF"/>
      <point x="111" y="261" type="curve" smooth="yes" name="NHGEZPON"/>
      <point x="111.0" y="230" name="XFRDWZHG"/>
      <point x="111.0" y="170" name="EOANVPLM"/>
      <point x="111" y="134" type="curve" smooth="yes" name="HWURMAMH"/>
      <point x="111.0" y="12.0" name="HTTYPMIA"/>
      <point x="111" y="11" name="QVWBDSUU"/>
      <point x="111" y="130" type="curve" smooth="yes" name="MHWVBZIH"/>
      <point x="111.0" y="175" name="MPABCZBN"/>
      <point x="111" y="232" name="NRXSGDBO"/>
      <point x="111" y="274" type="curve" smooth="yes" name="CZHRDOXP"/>
      <point x="111" y="335" name="ISAGFFMR"/>
      <point x="111" y="393" name="FEUSPVAZ"/>
      <point x="111" y="454" type="curve" name="FREEZ"/>
    </contour>
  </outline>
</glyph>
<glyph name="s" format="2">
  <advance width="462"/>
  <unicode hex="0073"/>
  <anchor x="238" y="505" name="above"/>
  <anchor x="231" y="-9" name="below"/>
  <outline>
    <contour>
      <point x="355" y="432" type="move" smooth="yes" name="VPSMP"/>
      <point x="312" y="453" name="LZHPLUBK"/>
      <point x="268" y="463" name="SJLGBQVG"/>
      <point x="229" y="463" type="curve" smooth="yes" name="IBUUBQYJ"/>
      <point x="154" y="462" name="HSJPZYCO"/>
      <point x="96" y="426" name="SCUAINFV"/>
      <point x="96" y="361" type="curve" smooth="yes" name="IPECA"/>
      <point x="96" y="296" name="XDOTUUXK"/>
      <point x="165" y="274" name="PUNJHFCT"/>
      <point x="233" y="251" type="curve" smooth="yes" name="REPQBFZW"/>
      <point x="304" y="227" name="QLABBTWW"/>
      <point x="376" y="203" name="MYWNSIEC"/>
      <point x="376" y="132" type="curve" smooth="yes" name="GOMRE"/>
      <point x="376" y="69" name="OOIJDFCG"/>
      <point x="319" y="34" name="WQSLZEGV"/>
      <point x="244" y="34" type="curve" smooth="yes" name="GNYVBMFS"/>
      <point x="197" y="34" name="AYXYSDGF"/>
      <point x="144" y="49" name="RVENKPNS"/>
      <point x="94" y="76" type="curve" name="CFFGT"/>
    </contour>
  </outline>
</glyph>
<glyph name="t" format="2">
  <advance width="336"/>
  <unicode hex="0074"/>
  <anchor x="168" y="630" name="above"/>
  <anchor x="168" y="0" name="below"/>
  <anchor x="213" y="561" name="right"/>
  <outline>
    <contour>
      <point x="163" y="40" type="move" name="YACKK"/>
      <point x="163.0" y="75" name="WIXUTZEX"/>
      <point x="163.0" y="104" name="BQAHIHCJ"/>
      <point x="163" y="165" type="curve" smooth="yes" name="XIIMGYEP"/>
      <point x="163.0" y="274" name="IDYSANVX"/>
      <point x="163.0" y="343" name="TIHJDVKG"/>
      <point x="163" y="463" type="curve" smooth="yes" name="NTGHOBJY"/>
      <point x="163.0" y="514" name="XOKFSAJN"/>
      <point x="163.0" y="551" name="XEAVIUBA"/>
      <point x="163" y="588" type="curve" name="FREEZ"/>
    </contour>
    <contour>
      <point x="279" y="453" type="move" name="SDRTNBMO"/>
      <point x="259.0" y="453" name="YZGICSME"/>
      <point x="241" y="453" name="BWLWBXFB"/>
      <point x="222" y="453" type="curve" smooth="yes" name="NXRRWOBG"/>
      <point x="185" y="453.0" name="WOYFWAAP"/>
      <point x="148" y="453.0" name="DJOUCXJN"/>
      <point x="111" y="453" type="curve" smooth="yes" name="CMPVRDML"/>
      <point x="94" y="453.0" name="NWUVUROL"/>
      <point x="78" y="453.0" name="ANNFZJGU"/>
      <point x="57" y="453" type="curve" name="DXSXWAFU"/>
    </contour>
  </outline>
</glyph>
<glyph name="u" format="2">
  <advance width="568"/>
  <unicode hex="0075"/>
  <outline>
    <contour>
      <point x="102" y="458" type="move" name="YACKK"/>
      <point x="102.0" y="374" name="RNFAKCSU"/>
      <point x="102.0" y="291" name="MBBWGYZT"/>
      <point x="102" y="207" type="curve" smooth="yes" name="BBNMEKUZ"/>
      <point x="102" y="96" name="BSYXPZAP"/>
      <point x="162" y="34" name="MHGTOCNQ"/>
      <point x="258" y="34" type="curve" smooth="yes" name="CDZEXWME"/>
      <point x="373" y="34" name="IWNPCXXJ"/>
      <point x="458" y="122" name="UTUJHHQU"/>
      <point x="458" y="224" type="curve" smooth="yes" name="GIUBMOVE"/>
      <point x="458" y="263" name="ULCYFPWG"/>
      <point x="458" y="335" name="JKPSXCVV"/>
      <point x="458" y="373" type="curve" smooth="yes" name="PLEPFXZU"/>
      <point x="458" y="489" name="KAXUSZKQ"/>
      <point x="458" y="489" name="CSOQBYUZ"/>
      <point x="458" y="373" type="curve" smooth="yes" name="EXALQKUL"/>
      <point x="458" y="318" name="FCNLWKEC"/>
      <point x="458" y="227" name="JFXIYIHD"/>
      <point x="458" y="153" type="curve" smooth="yes" name="PYWXLSMY"/>
      <point x="458" y="114" name="OYEYPWMG"/>
      <point x="458" y="70" name="SEOOATAU"/>
      <point x="458" y="35" type="curve" name="DNVDJAKM"/>
    </contour>
  </outline>
</glyph>
<glyph name="v" format="2">
  <advance width="489"/>
  <unicode hex="0076"/>
  <outline>
    <contour>
      <point x="64" y="458" type="move" name="COMMSEBK"/>
      <point x="78" y="423" name="AGWYWMAO"/>
      <point x="91" y="388" name="MUWAOCDN"/>
      <point x="105" y="353" type="curve" smooth="yes" name="UUTWDXEC"/>
      <point x="136" y="274" name="RNQZYCJR"/>
      <point x="164" y="195" name="AXDJWZPP"/>
      <point x="197" y="117" type="curve" smooth="yes" name="NCCFURGQ"/>
      <point x="242" y="9" name="KOQAKURG"/>
      <point x="253" y="13" name="ZHYMSHAA"/>
      <point x="294" y="117" type="curve" smooth="yes" name="FDGYNQLC"/>
      <point x="325" y="196" name="TJLTTPAU"/>
      <point x="355" y="274" name="MQWFGACY"/>
      <point x="385" y="353" type="curve" smooth="yes" name="EUKFLWLL"/>
      <point x="399" y="388" name="NJISBYWH"/>
      <point x="412" y="423" name="DOERSRJG"/>
      <point x="426" y="458" type="curve" name="EKFJCZHU"/>
    </contour>
  </outline>
</glyph>
<glyph name="w" format="2">
  <advance width="725"/>
  <unicode hex="0077"/>
  <outline>
    <contour>
      <point x="70" y="458" type="move" name="NLXWITZH"/>
      <point x="85" y="416" name="OSERYDJV"/>
      <point x="99" y="373" name="RRFOENYW"/>
      <point x="114" y="331" type="curve" smooth="yes" name="NAASXGXO"/>
      <point x="133" y="275" name="MNBJXKKP"/>
      <point x="152" y="216" name="BTACKXQL"/>
      <point x="184" y="128" type="curve" smooth="yes" name="AKYDFJZA"/>
      <point x="228" y="7" name="HWICZRMR"/>
      <point x="222" y="12" name="YXGUPWWK"/>
      <point x="260" y="128" type="curve" smooth="yes" name="YSHGZKNE"/>
      <point x="288" y="216" name="ANQPXSQS"/>
      <point x="305" y="275" name="RDEWASCN"/>
      <point x="332" y="365" type="curve" smooth="yes" name="PWDETEKV"/>
      <point x="369.0" y="485" name="GBMFHFLZ"/>
      <point x="352.0" y="485.0" name="POHCWHOA"/>
      <point x="390" y="370" type="curve" smooth="yes" name="EXQUJGIB"/>
      <point x="422" y="275" name="XYMYYGTO"/>
      <point x="438" y="219" name="IQSUJYVF"/>
      <point x="465" y="129" type="curve" smooth="yes" name="QCXFIRNZ"/>
      <point x="499" y="17" name="OHHZHHFW"/>
      <point x="500" y="10" name="RLCXZFBC"/>
      <point x="541" y="126" type="curve" smooth="yes" name="AMXQCWIF"/>
      <point x="574" y="219" name="BTDLBRNN"/>
      <point x="587" y="266" name="AAUABTTP"/>
      <point x="611" y="331" type="curve" smooth="yes" name="ALWNJEOC"/>
      <point x="624" y="366" name="FDMFQLUZ"/>
      <point x="641" y="416" name="FCWWZOYT"/>
      <point x="655" y="458" type="curve" name="ZNYAWQVX"/>
    </contour>
  </outline>
</glyph>
<glyph name="x" format="2">
  <advance width="499"/>
  <unicode hex="0078"/>
  <outline>
    <contour>
      <point x="91" y="458" type="move" name="ZHIVDPIL"/>
      <point x="114" y="429" name="KSDUEGZJ"/>
      <point x="139" y="397" name="TTZIICDN"/>
      <point x="160" y="370" type="curve" smooth="yes" name="KDYJBGWV"/>
      <point x="194" y="326.0" name="EPDQDDEW"/>
      <point x="280" y="216" name="CEMBSEUX"/>
      <point x="356" y="118" type="curve" smooth="yes" name="XSJNZMZL"/>
      <point x="377" y="90" name="BIJDFGBR"/>
      <point x="397" y="64.0" name="RVEEHDMF"/>
      <point x="416" y="40.0" type="curve" name="BFLLJCCR"/>
    </contour>
    <contour>
      <point x="411" y="458" type="move" name="YYAIGGYQ"/>
      <point x="389" y="430" name="KFHAWSAC"/>
      <point x="367" y="400" name="DJXYSOPI"/>
      <point x="344" y="373" type="curve" smooth="yes" name="PNQKTSKO"/>
      <point x="277" y="287" name="RUUEUSAJ"/>
      <point x="207" y="198" name="ESCWLHEA"/>
      <point x="155" y="132" type="curve" smooth="yes" name="GEXLRJWJ"/>
      <point x="131" y="103" name="RFJNWGRN"/>
      <point x="106" y="71" name="PNMKZRJG"/>
      <point x="82" y="40" type="curve" name="INGWJGSF"/>
    </contour>
    <contour>
      <point x="91" y="458" type="move" name="SBOEWFND"/>
      <point x="114" y="429" name="IOFBMZYO"/>
      <point x="137" y="399" name="AYBDVKMJ"/>
      <point x="160" y="370" type="curve" name="GFLEMVQQ"/>
      <point x="174" y="352" name="HRIMUIBO"/>
      <point x="188" y="333" name="ZEKZNSXM"/>
      <point x="202" y="315" type="curve" smooth="yes" name="YKOCBOGQ"/>
      <point x="242" y="264" name="LBQMHLRM"/>
      <point x="241" y="242" name="XFBDTZPU"/>
      <point x="202" y="193" type="curve" smooth="yes" name="EEBXCDFF"/>
      <point x="186" y="173" name="LGSIRCQL"/>
      <point x="170" y="152" name="NHBYKIBV"/>
      <point x="154" y="132" type="curve" smooth="yes" name="VTHZDRMS"/>
      <point x="133" y="107" name="RAZUOFCH"/>
      <point x="106" y="71" name="CUTAKNAD"/>
      <point x="82" y="40" type="curve" name="GDMOVCMM"/>
    </contour>
  </outline>
</glyph>
<glyph name="y" format="2">
  <advance width="488"/>
  <unicode hex="0079"/>
  <anchor x="244" y="498" name="above"/>
  <anchor x="202" y="-165" name="below"/>
  <outline>
    <contour>
      <point x="163" y="-125" type="move" name="ZOIFIWDN"/>
      <point x="177" y="-95" name="AFEBVNBQ"/>
      <point x="192" y="-61" name="JANWUQRX"/>
      <point x="206" y="-30" type="curve" smooth="yes" name="QXXJCWSU"/>
      <point x="214" y="-11" name="MYDEGJPL"/>
      <point x="222" y="7" name="ZELSJLCX"/>
      <point x="229" y="22" type="curve" smooth="yes" name="IFPGMCMN"/>
      <point x="255" y="79" name="ZYHPAZJH"/>
      <point x="228" y="108" name="AWAZLHSA"/>
      <point x="178" y="214" type="curve" smooth="yes" name="VLBNBUIC"/>
      <point x="148" y="269" name="VTSGYOLU"/>
      <point x="102" y="377" name="YTTCFNME"/>
      <point x="64" y="458" type="curve" name="TCRAMDVX"/>
    </contour>
    <contour>
      <point x="425" y="458" type="move" name="AWTBUWGJ"/>
      <point x="404" y="411" name="VKVMMVUC"/>
      <point x="377" y="351" name="YEVAWRLY"/>
      <point x="362" y="317" type="curve" smooth="yes" name="YAIMHFBX"/>
      <point x="319" y="219" name="GOECPTGX"/>
      <point x="257" y="85" name="BNPDDWOQ"/>
      <point x="229" y="22" type="curve" smooth="yes" name="DGGNTWIB"/>
      <point x="221" y="3" name="GHDKKSQH"/>
      <point x="212" y="-15" name="XPFKYIAR"/>
      <point x="204" y="-34" type="curve" smooth="yes" name="WPUSOAKO"/>
      <point x="190" y="-64" name="MPZTVXDS"/>
      <point x="177" y="-95" name="BCOFWLPB"/>
      <point x="163" y="-125" type="curve" name="VNLRDVUN"/>
    </contour>
  </outline>
</glyph>
<glyph name="z" format="2">
  <advance width="474"/>
  <unicode hex="007A"/>
  <outline>
    <contour>
      <point x="90" y="453" type="move" name="FQGLFLOS"/>
      <point x="133" y="453" name="RDBXMTLW"/>
      <point x="176" y="453" name="MIWIINPO"/>
      <point x="228" y="453.0" type="curve" smooth="yes" name="ANEHQKZR"/>
      <point x="262" y="453" name="DMXFEMAV"/>
      <point x="289" y="453" name="BDLWBWKP"/>
      <point x="334" y="453.0" type="curve" smooth="yes" name="MLEDKAKF"/>
      <point x="411" y="453.0" name="QCDBEQIV"/>
      <point x="418" y="458" name="MODXSZYN"/>
      <point x="361" y="392" type="curve" smooth="yes" name="YBOVMZWF"/>
      <point x="332" y="358" name="NITPENEF"/>
      <point x="312" y="335" name="SQUZBKDY"/>
      <point x="286" y="305" type="curve" smooth="yes" name="KGMMVGVB"/>
      <point x="255" y="268" name="IRWBRVQP"/>
      <point x="220" y="227" name="FTUAMJVG"/>
      <point x="189" y="191" type="curve" smooth="yes" name="UXNSDVIZ"/>
      <point x="164" y="162" name="KWRLBCTG"/>
      <point x="148" y="142" name="XELEBPTM"/>
      <point x="122" y="111" type="curve" smooth="yes" name="AFGNPWDR"/>
      <point x="66" y="45" name="KYFDMHSH"/>
      <point x="66" y="45" name="ADFJKYMZ"/>
      <point x="150" y="45.0" type="curve" smooth="yes" name="TKTYPIVA"/>
      <point x="188" y="45" name="SZUNKVZC"/>
      <point x="212" y="45" name="EBCZXHCU"/>
      <point x="244" y="45.0" type="curve" smooth="yes" name="OYALFJMH"/>
      <point x="300" y="45" name="DGIIJUNW"/>
      <point x="344" y="45" name="SNLRCREN"/>
      <point x="388" y="45" type="curve" name="WQXMUXMN"/>
    </contour>
  </outline>
</glyph>
<glyph name="bar" format="2">
  <advance width="315"/>
  <unicode hex="007C"/>
  <outline>
    <contour>
      <point x="158" y="730" type="move" name="WXIMZODY"/>
      <point x="158" y="701" name="GQMNQBXA"/>
      <point x="158" y="658" name="AVWLLUWL"/>
      <point x="158" y="603" type="curve" smooth="yes" name="JJTBOEOF"/>
      <point x="158" y="394" name="SEIQHFBV"/>
      <point x="158" y="241" name="LKNSRFVA"/>
      <point x="158" y="33" type="curve" smooth="yes" name="ARLAMOBO"/>
      <point x="158" y="-36" name="XBJUZTEW"/>
      <point x="158" y="-83" name="VNJQKYLW"/>
      <point x="158" y="-120" type="curve" name="BYXCLWCL"/>
    </contour>
  </outline>
</glyph>
<glyph name="braceright" format="2">
  <advance width="466"/>
  <unicode hex="007D"/>
  <outline>
    <contour>
      <point x="85" y="-108" type="move" name="RWCBYHOJ"/>
      <point x="138" y="-126" name="ZXFOWWII"/>
      <point x="185" y="-127" name="YLLIGRNV"/>
      <point x="222" y="-115" type="curve" smooth="yes" name="JRECLLEC"/>
      <point x="267" y="-100" name="OYPDLWIN"/>
      <point x="295" y="-63" name="CXWPHTIF"/>
      <point x="295" y="-10" type="curve" smooth="yes" name="VITMLZEE"/>
      <point x="295" y="62" name="KGEIKWSR"/>
      <point x="237" y="151" name="OZSWIMZL"/>
      <point x="237" y="220" type="curve" smooth="yes" name="VSXGMGXM"/>
      <point x="237" y="270" name="DZVPOHAW"/>
      <point x="264" y="304" name="LQLYMUCW"/>
      <point x="340" y="304" type="curve" name="OPAQHOMB"/>
      <point x="410" y="304" name="SWBAIWII"/>
      <point x="411" y="304" name="KDKQZMOJ"/>
      <point x="340" y="304" type="curve" name="ZUVKJKJW"/>
      <point x="264" y="304" name="WUYCEASQ"/>
      <point x="237" y="339" name="HDOCQYIQ"/>
      <point x="237" y="389" type="curve" smooth="yes" name="TWIGKACY"/>
      <point x="237" y="454" name="THGSVAED"/>
      <point x="295" y="546" name="JRRFLXGP"/>
      <point x="295" y="619" type="curve" smooth="yes" name="DNHFHVKC"/>
      <point x="295" y="675" name="ISQKDALE"/>
      <point x="264" y="712" name="WIBLCJPH"/>
      <point x="214" y="726" type="curve" smooth="yes" name="GEYGLFQK"/>
      <point x="179" y="735" name="YTIYREXM"/>
      <point x="134" y="733" name="XGCNIBYF"/>
      <point x="85" y="717" type="curve" name="TLYIJCAG"/>
    </contour>
  </outline>
</glyph>
<glyph name="asciitilde" format="2">
  <advance width="639"/>
  <unicode hex="007E"/>
  <outline>
    <contour>
      <point x="532" y="387" type="move" name="KLGJIRPD"/>
      <point x="532" y="293" name="MDJANHYG"/>
      <point x="498" y="219" name="KBOHXEAE"/>
      <point x="428" y="219" type="curve" smooth="yes" name="ATUAKXKW"/>
      <point x="386" y="219" name="NPQKPBMS"/>
      <point x="353" y="259" name="ITWYJEQC"/>
      <point x="321" y="299" type="curve" smooth="yes" name="ELZHGAGY"/>
      <point x="287" y="341" name="WRNNWGUC"/>
      <point x="254" y="384" name="SWRIVIFZ"/>
      <point x="210" y="384" type="curve" smooth="yes" name="OYHLASLY"/>
      <point x="139" y="384" name="ILDAPAPQ"/>
      <point x="108" y="311" name="VHJAYLRW"/>
      <point x="108" y="216" type="curve" name="CXXYYRQV"/>
    </contour>
  </outline>
</glyph>
<glyph name="exclamdown" format="2">
  <advance width="261"/>
  <unicode hex="00A1"/>
  <outline>
    <contour>
      <point x="132.25" y="295.0" type="move" name="CZNOPTJN"/>
      <point x="132.25" y="-60.0" type="line" name="JGAUJSAH"/>
    </contour>
    <contour>
      <point x="140.25" y="496.0" type="move" name="AKHBCZBC"/>
      <point x="106.25" y="501.0" name="EPWOIIND"/>
      <point x="106.25" y="535.0" name="XYJYMAMB"/>
      <point x="140.25" y="540.0" type="curve" name="KPVJKKQT"/>
    </contour>
  </outline>
</glyph>
<glyph name="cent" format="2">
  <advance width="475"/>
  <unicode hex="00A2"/>
  <outline>
    <contour>
      <point x="281" y="640" type="move" name="RUKKYSQX"/>
      <point x="275" y="551" name="CYZMAJPT"/>
      <point x="278" y="514" name="QJBKQYRZ"/>
      <point x="310" y="499" type="curve" smooth="yes" name="GCLBQVWS"/>
      <point x="402" y="463" name="NSLAWINO"/>
      <point x="387" y="475" name="YRXVFWPB"/>
      <point x="310" y="494" type="curve" smooth="yes" name="LNJLSXGL"/>
      <point x="235" y="513" name="WNZSVLOQ"/>
      <point x="92" y="469.0" name="UENFFFLM"/>
      <point x="92" y="314" type="curve" smooth="yes" name="ODRVJLKN"/>
      <point x="92" y="159.0" name="SCUBYDXA"/>
      <point x="235" y="115" name="HDJYASHG"/>
      <point x="310" y="134" type="curve" smooth="yes" name="FMAFLABT"/>
      <point x="402" y="153" name="CYKAFFZK"/>
      <point x="387" y="165" name="ABFFATVL"/>
      <point x="310" y="129" type="curve" smooth="yes" name="GFVPAUIT"/>
      <point x="278" y="114" name="YUSWMKJA"/>
      <point x="247" y="85" name="FKIEQGQC"/>
      <point x="242" y="-9" type="curve" name="LACIWYIX"/>
    </contour>
  </outline>
</glyph>
<glyph name="sterling" format="2">
  <advance width="541"/>
  <unicode hex="00A3"/>
  <outline>
    <contour>
      <point x="440" y="613" type="move" name="MFMEMAFO"/>
      <point x="391" y="634" name="NTYGFCER"/>
      <point x="345" y="643" name="TMLPANOT"/>
      <point x="304" y="643" type="curve" smooth="yes" name="QDWIVXJE"/>
      <point x="214" y="643" name="BZPEJWVJ"/>
      <point x="154" y="590" name="KTIWWSXE"/>
      <point x="154" y="497" type="curve" smooth="yes" name="ZEJVFYZZ"/>
      <point x="154" y="389" name="CPZGUMUM"/>
      <point x="226" y="240" name="PMJDOJUN"/>
      <point x="226" y="161" type="curve" smooth="yes" name="MCKYSUFH"/>
      <point x="226" y="87" name="CUAMGGKV"/>
      <point x="191" y="45" name="NXKEQPIN"/>
      <point x="142" y="45" type="curve" smooth="yes" name="VSAWTXLB"/>
      <point x="51" y="45" name="JQHHQKPB"/>
      <point x="56" y="45" name="PEUTEFHT"/>
      <point x="147" y="45" type="curve" smooth="yes" name="QGXLDABN"/>
      <point x="181" y="45" name="FCPXWFAY"/>
      <point x="243" y="45" name="PIHUJZYV"/>
      <point x="306" y="45" type="curve" smooth="yes" name="USDTLAKS"/>
      <point x="361" y="45" name="RSJVEVAB"/>
      <point x="417" y="45" name="CMJACPWO"/>
      <point x="456" y="45" type="curve" name="GNQDLZYN"/>
    </contour>
    <contour>
      <point x="90" y="324" type="move" name="HRNIZWVR"/>
      <point x="145" y="324" name="ZTNIVEMO"/>
      <point x="204" y="324" name="JPWTPVNO"/>
      <point x="256" y="324" type="curve" smooth="yes" name="BTGUDAWL"/>
      <point x="309" y="324" name="NAJFUKGL"/>
      <point x="362" y="324" name="OBRWQIHT"/>
      <point x="416" y="324" type="curve" name="AJXRNZII"/>
    </contour>
  </outline>
</glyph>
<glyph name="currency" format="2">
  <advance width="646"/>
  <unicode hex="00A4"/>
  <outline>
    <contour>
      <point x="191" y="475" type="move" name="ZBKIESMT"/>
      <point x="100" y="566" type="line" name="ANJAHTIG"/>
    </contour>
    <contour>
      <point x="322" y="174" type="curve" smooth="yes" name="ZTQPIMLZ"/>
      <point x="224" y="174" name="GIIYQWEN"/>
      <point x="157" y="244" name="PEMXXHAY"/>
      <point x="157" y="344" type="curve" smooth="yes" name="RXLUQMEV"/>
      <point x="157" y="444" name="PQYHNDUY"/>
      <point x="224" y="512" name="VYPAHJNY"/>
      <point x="322" y="512" type="curve" smooth="yes" name="DNUURAUL"/>
      <point x="420" y="512" name="IKTCEVQJ"/>
      <point x="490" y="444" name="UBRGYOKU"/>
      <point x="490" y="344" type="curve" smooth="yes" name="MBFBACMT"/>
      <point x="490" y="244" name="FHAIBHWH"/>
      <point x="420" y="174" name="HCQQBIEH"/>
    </contour>
    <contour>
      <point x="547.0" y="566.0" type="move" name="YEJMJBJW"/>
      <point x="456.0" y="475.0" type="line" name="RWBKFKGE"/>
    </contour>
    <contour>
      <point x="100.0" y="120.0" type="move" name="PAJMVKPS"/>
      <point x="191.0" y="211.0" type="line" name="PHAITBJH"/>
    </contour>
    <contour>
      <point x="456.0" y="211.0" type="move" name="IIMRFALL"/>
      <point x="547.0" y="120.0" type="line" name="JKZABRBN"/>
    </contour>
  </outline>
</glyph>
<glyph name="yen" format="2">
  <advance width="599"/>
  <unicode hex="00A5"/>
  <outline>
    <contour>
      <point x="489" y="158" type="move" name="DOOABVFQ"/>
      <point x="364" y="158" name="FTFFXHGJ"/>
      <point x="235" y="158" name="NSHBSDQP"/>
      <point x="110" y="158" type="curve" name="BKXVHYLH"/>
    </contour>
    <contour>
      <point x="511" y="640" type="move" name="UYFNIUSC"/>
      <point x="471" y="579" name="ZIJXYDLA"/>
      <point x="411" y="485" name="NHMRHFRA"/>
      <point x="376" y="432" type="curve" smooth="yes" name="CZPIGAHG"/>
      <point x="324" y="350" name="EWMILYJZ"/>
      <point x="307" y="318.0" name="NVUXMSUS"/>
      <point x="225" y="318" type="curve" smooth="yes" name="AUVLSSJF"/>
      <point x="181" y="318" name="BIMITIFC"/>
      <point x="153" y="318" name="EXSRFQZK"/>
      <point x="110" y="318" type="curve" name="ZQITNUEK"/>
    </contour>
    <contour>
      <point x="89" y="640" type="move" name="HXNYWPWC"/>
      <point x="112" y="605" name="FBAFSMEC"/>
      <point x="138" y="566" name="HEJVKGSG"/>
      <point x="163" y="528" type="curve" smooth="yes" name="ZDQGALSJ"/>
      <point x="201" y="471" name="RBCKRAFW"/>
      <point x="237" y="415" name="RXLULAQC"/>
      <point x="263" y="374" type="curve" smooth="yes" name="HXEPGNKN"/>
      <point x="301" y="313" name="BOTRAHLQ"/>
      <point x="300" y="290" name="PXHMIZNJ"/>
      <point x="300" y="223" type="curve" smooth="yes" name="VHNFZMMV"/>
      <point x="300" y="162" name="RMXQVKHD"/>
      <point x="300" y="101" name="MXLEEVGK"/>
      <point x="300" y="40" type="curve" name="IUFICWYE"/>
    </contour>
    <contour>
      <point x="361" y="318" type="move" name="NKTLDZVX"/>
      <point x="409" y="318" name="BMPXYGUC"/>
      <point x="444" y="318" name="VYLUXYVM"/>
      <point x="489" y="318" type="curve" name="QIUVLHVQ"/>
    </contour>
  </outline>
</glyph>
<glyph name="brokenbar" format="2">
  <advance width="315"/>
  <unicode hex="00A6"/>
  <outline>
    <contour>
      <point x="158" y="230" type="move"/>
      <point x="158" y="-120" type="line"/>
    </contour>
    <contour>
      <point x="158" y="730" type="move"/>
      <point x="158" y="380" type="line"/>
    </contour>
  </outline>
</glyph>
<glyph name="section" format="2">
  <advance width="505"/>
  <unicode hex="00A7"/>
  <outline>
    <contour>
      <point x="391.0" y="623" type="move" name="ZQJWAQCO"/>
      <point x="233" y="675" name="MGDYJVJA"/>
      <point x="127.0" y="633" name="RDGJYRBI"/>
      <point x="127" y="546" type="curve" smooth="yes" name="UXGJIMGZ"/>
      <point x="127.0" y="412.0" name="WNKHPKKC"/>
      <point x="413" y="429" name="NBKTKOAN"/>
      <point x="413.0" y="290" type="curve" smooth="yes" name="YCZPQIUX"/>
      <point x="413.0" y="227" name="VMRNKMFC"/>
      <point x="351" y="182.0" name="CVZATPLM"/>
      <point x="252" y="182.0" type="curve" name="IQZCEBRX"/>
    </contour>
    <contour>
      <point x="105.0" y="-17" type="move" name="SATVHWNA"/>
      <point x="267" y="-74" name="DPDRFKAT"/>
      <point x="389.0" y="-24" name="SEAKZXSR"/>
      <point x="389.0" y="52" type="curve" smooth="yes" name="QQJKIZMM"/>
      <point x="389.0" y="177.0" name="MUOOCGHI"/>
      <point x="91" y="147" name="HBEBAKXW"/>
      <point x="91" y="293" type="curve" smooth="yes" name="YKPQJNLX"/>
      <point x="91.0" y="353" name="SKKPDFBD"/>
      <point x="153" y="407.0" name="STJVHNMV"/>
      <point x="252" y="407.0" type="curve" name="QRJXXTDJ"/>
    </contour>
  </outline>
</glyph>
<glyph name="dieresis" format="2">
  <advance width="577"/>
  <unicode hex="00A8"/>
  <anchor x="0" y="497.0" name="top"/>
  <anchor x="288" y="497.0" name="center"/>
  <outline>
    <contour>
      <point x="190.0" y="636.0" type="move"/>
      <point x="156.0" y="641.0"/>
      <point x="156.0" y="675.0"/>
      <point x="190.0" y="680.0" type="curve"/>
    </contour>
    <contour>
      <point x="410.0" y="636.0" type="move"/>
      <point x="376.0" y="641.0"/>
      <point x="376.0" y="675.0"/>
      <point x="410.0" y="680.0" type="curve"/>
    </contour>
  </outline>
</glyph>
<glyph name="copyright" format="2">
  <advance width="803"/>
  <unicode hex="00A9"/>
  <outline>
    <contour>
      <point x="406" y="36" type="curve" smooth="yes"/>
      <point x="229" y="36"/>
      <point x="102" y="164"/>
      <point x="102" y="340" type="curve" smooth="yes"/>
      <point x="102" y="516"/>
      <point x="229" y="644"/>
      <point x="406" y="644" type="curve" smooth="yes"/>
      <point x="582" y="644"/>
      <point x="701" y="516"/>
      <point x="701" y="340" type="curve" smooth="yes"/>
      <point x="701" y="164"/>
      <point x="582" y="36"/>
    </contour>
    <contour>
      <point x="476" y="448" type="move"/>
      <point x="386" y="488"/>
      <point x="300" y="439"/>
      <point x="300" y="340" type="curve" smooth="yes"/>
      <point x="300" y="241"/>
      <point x="386" y="192"/>
      <point x="476" y="232" type="curve"/>
    </contour>
  </outline>
</glyph>
<glyph name="ordfeminine" format="2">
  <advance width="495"/>
  <unicode hex="00AA"/>
  <outline>
    <contour>
      <point x="399" y="178" type="move"/>
      <point x="106" y="178" type="line"/>
    </contour>
    <contour>
      <point x="386" y="354" type="move"/>
      <point x="386" y="642" type="line"/>
    </contour>
    <contour>
      <point x="247" y="350" type="curve" smooth="yes"/>
      <point x="328" y="350"/>
      <point x="386" y="412"/>
      <point x="386" y="498" type="curve" smooth="yes"/>
      <point x="386" y="584"/>
      <point x="326" y="645"/>
      <point x="246" y="645" type="curve" smooth="yes"/>
      <point x="165" y="645"/>
      <point x="106.0" y="584"/>
      <point x="106.0" y="498" type="curve" smooth="yes"/>
      <point x="106.0" y="412"/>
      <point x="165" y="350"/>
    </contour>
  </outline>
</glyph>
<glyph name="guillemetleft" format="2">
  <advance width="637"/>
  <unicode hex="00AB"/>
  <outline>
    <contour>
      <point x="278" y="458.0" type="move" name="LTLFXWKF"/>
      <point x="234" y="416.0" name="YKEXDQUD"/>
      <point x="192" y="373.0" name="FKARLFWP"/>
      <point x="138" y="320.0" type="curve" smooth="yes" name="CVZLANMM"/>
      <point x="78" y="261.0" name="BTBPJSPR"/>
      <point x="80" y="258" name="BADBMWMB"/>
      <point x="137" y="204.0" type="curve" smooth="yes" name="MPQRQWCK"/>
      <point x="191" y="153" name="XTQLFCFK"/>
      <point x="234" y="106.0" name="XCGFTIOI"/>
      <point x="278" y="64.0" type="curve" name="XZVSSXJL"/>
    </contour>
    <contour>
      <point x="538" y="458.0" type="move" name="YWPUSVLL"/>
      <point x="494" y="416.0" name="RNAGSTDC"/>
      <point x="452" y="373.0" name="UBYRKUUV"/>
      <point x="398" y="320.0" type="curve" smooth="yes" name="SUSEFLFG"/>
      <point x="338" y="261.0" name="KIPVDOUZ"/>
      <point x="340" y="258" name="EDEOHAWZ"/>
      <point x="397" y="204.0" type="curve" smooth="yes" name="AXMTOMCG"/>
      <point x="451" y="152" name="OXGJAGSD"/>
      <point x="494" y="106.0" name="CIPOWMGS"/>
      <point x="538" y="64.0" type="curve" name="AWSNDFDY"/>
    </contour>
  </outline>
</glyph>
<glyph name="logicalnot" format="2">
  <advance width="490"/>
  <unicode hex="00AC"/>
  <outline>
    <contour>
      <point x="80" y="388" type="move" name="SMPNDTCM"/>
      <point x="148" y="388" name="USJKQTFN"/>
      <point x="217" y="388" name="KHXOZTRQ"/>
      <point x="286" y="388" type="curve" smooth="yes" name="KNZNOPVX"/>
      <point x="389" y="388" name="RYHJMIMM"/>
      <point x="390" y="388" name="JBAURPQS"/>
      <point x="390" y="305" type="curve" smooth="yes" name="VBPKAPZD"/>
      <point x="390" y="268" name="XFQQQRCH"/>
      <point x="390" y="231" name="HYOPKITN"/>
      <point x="390" y="194" type="curve" name="UWSDQTKD"/>
    </contour>
  </outline>
</glyph>
<glyph name="hyphensoft" format="2">
  <advance width="340"/>
  <unicode hex="00AD"/>
  <outline>
    <contour>
      <point x="265" y="308" type="move"/>
      <point x="75" y="308" type="line"/>
    </contour>
  </outline>
</glyph>
<glyph name="registered" format="2">
  <advance width="644"/>
  <unicode hex="00AE"/>
  <outline>
    <contour>
      <point x="252" y="161" type="move" name="QFQNJBJR"/>
      <point x="148" y="189" name="YSAOTYPS"/>
      <point x="78" y="281" name="ESBGWHWO"/>
      <point x="78" y="398" type="curve" smooth="yes" name="BEOXXFLF"/>
      <point x="78" y="540" name="MVMYEGEZ"/>
      <point x="180" y="644" name="SNZAQUIZ"/>
      <point x="322" y="644" type="curve" smooth="yes" name="FPRFTMYK"/>
      <point x="464" y="644" name="KKQTDIIL"/>
      <point x="566" y="540" name="AGTZQSHI"/>
      <point x="566" y="398" type="curve" smooth="yes" name="WMRXRIUV"/>
      <point x="566" y="282" name="HTSGWVRY"/>
      <point x="498" y="191" name="BIZESRJP"/>
      <point x="395" y="162" type="curve" name="BGKOLQCF"/>
    </contour>
    <contour identifier="yNhLKjRpbm">
      <point x="251" y="301" type="move" name="BKWBQJAR"/>
      <point x="251" y="341" name="SSNNNYUR"/>
      <point x="251" y="381" name="BXGJLYCV"/>
      <point x="251" y="422" type="curve" smooth="yes" name="ITYIIVTM"/>
      <point x="251" y="481" name="NVMPMURY"/>
      <point x="270.0" y="499.0" name="HRJLXPMN"/>
      <point x="317" y="499" type="curve" smooth="yes" name="LANRTZGN"/>
      <point x="362" y="499" name="IWAZYUKU"/>
      <point x="391" y="472" name="QRUAAIZE"/>
      <point x="391" y="436" type="curve" smooth="yes" name="AURPHVWE"/>
      <point x="391" y="398" name="EOHCLOUZ"/>
      <point x="372" y="384" name="THQNNNCV"/>
      <point x="352" y="374" type="curve" smooth="yes" name="HGPEZJWM"/>
      <point x="313" y="354" name="YJHGMYUD"/>
      <point x="306" y="374" name="FGPZESDU"/>
      <point x="333" y="374" type="curve" smooth="yes" name="HSHTOPBX"/>
      <point x="355" y="374" name="JZLTTGBU"/>
      <point x="366" y="369" name="MFTANCCL"/>
      <point x="408" y="301" type="curve" smooth="yes" name="HSBRIYRW"/>
    </contour>
  </outline>
</glyph>
<glyph name="macron" format="2">
  <advance width="490"/>
  <unicode hex="00AF"/>
  <anchor x="0" y="497.0" name="top"/>
  <anchor x="245" y="497.0" name="center"/>
  <outline>
    <contour>
      <point x="370.0" y="648.0" type="move" name="XELVSJCY"/>
      <point x="317" y="648.0" name="WTCYGVNB"/>
      <point x="173" y="648.0" name="DWSHZRLN"/>
      <point x="120.0" y="648.0" type="curve" name="ZBQELGQS"/>
    </contour>
  </outline>
</glyph>
<glyph name="degree" format="2">
  <advance width="532"/>
  <unicode hex="00B0"/>
  <outline>
    <contour>
      <point x="208" y="326" type="move" name="GHJCFKFT"/>
      <point x="145" y="347" name="EHORVBJO"/>
      <point x="105" y="405" name="XMOIDMGZ"/>
      <point x="105" y="481" type="curve" smooth="yes" name="SDDXGXAX"/>
      <point x="105" y="577" name="ENGQVVRP"/>
      <point x="170" y="645" name="TOMXKVTX"/>
      <point x="265" y="645" type="curve" smooth="yes" name="IPZAKDGA"/>
      <point x="360" y="645" name="BPUFOXWT"/>
      <point x="428" y="577" name="JPGIJMZU"/>
      <point x="428" y="481" type="curve" smooth="yes" name="KLIJPJOD"/>
      <point x="428" y="405" name="FLCZTWZY"/>
      <point x="386" y="347" name="FGNKVKBN"/>
      <point x="323" y="326" type="curve" name="STDUOBWK"/>
    </contour>
  </outline>
</glyph>
<glyph name="plusminus" format="2">
  <advance width="540"/>
  <unicode hex="00B1"/>
  <outline>
    <contour>
      <point x="270" y="554" type="move" name="FVNHSOAF"/>
      <point x="270" y="446" name="UVVVXVQR"/>
      <point x="270" y="332" name="EMMJQWCS"/>
      <point x="270" y="224" type="curve" name="XDOHOIUI"/>
    </contour>
    <contour>
      <point x="460" y="378" type="move" name="ESTNWYCT"/>
      <point x="335" y="378" name="BETJFPEH"/>
      <point x="205" y="378" name="NNPWRYLD"/>
      <point x="80" y="378" type="curve" name="HAKQVDYP"/>
    </contour>
    <contour>
      <point x="460" y="78" type="move" name="XIXBQWCI"/>
      <point x="335" y="78" name="CWYYPYXS"/>
      <point x="205" y="78" name="DJRJTPSL"/>
      <point x="80" y="78" type="curve" name="FSGNNJPN"/>
    </contour>
  </outline>
</glyph>
<glyph name="twosuperior" format="2">
  <advance width="431"/>
  <unicode hex="00B2"/>
  <outline>
    <contour>
      <point x="332" y="320" type="move" name="CXPXHKLO"/>
      <point x="300" y="320" name="CQACSUPF"/>
      <point x="268" y="320" name="RGBGOHMD"/>
      <point x="236" y="320" type="curve" smooth="yes" name="ONLSQOIO"/>
      <point x="123" y="320" name="BPGFRUCQ"/>
      <point x="104" y="332" name="EVYBRCUV"/>
      <point x="189" y="399" type="curve" smooth="yes" name="FIDWJRJL"/>
      <point x="271" y="463" name="LDZVEPMJ"/>
      <point x="318.0" y="508" name="DFQBUUVY"/>
      <point x="318" y="553" type="curve" smooth="yes" name="BFCLMLUJ"/>
      <point x="318" y="637" name="YKYOAPCS"/>
      <point x="205" y="675" name="NTLHVZZB"/>
      <point x="113" y="620" type="curve" name="RMXIWILP"/>
    </contour>
  </outline>
</glyph>
<glyph name="threesuperior" format="2">
  <advance width="419"/>
  <unicode hex="00B3"/>
  <outline>
    <contour>
      <point x="110" y="333" type="move" name="BHATBUZI"/>
      <point x="211" y="295" name="WSBCUATE"/>
      <point x="321" y="321" name="HXSFLKFQ"/>
      <point x="321" y="399" type="curve" smooth="yes" name="DAQMINFF"/>
      <point x="321" y="444" name="RJQLZHZV"/>
      <point x="287" y="480" name="NUANWZRJ"/>
      <point x="209" y="484" type="curve" smooth="yes" name="GXGNSWUC"/>
      <point x="143" y="488" name="ULPVXNFR"/>
      <point x="156" y="499" name="DFIUUOMO"/>
      <point x="218" y="551" type="curve" smooth="yes" name="NASRMLLZ"/>
      <point x="292.06334487133205" y="611" name="XGPAVCJS"/>
      <point x="315" y="635" name="OKGDOQLD"/>
      <point x="250" y="635" type="curve" smooth="yes" name="URCLCGNB"/>
      <point x="196" y="635" name="QAFHIRUO"/>
      <point x="151" y="635" name="EWDPIVVG"/>
      <point x="112" y="635" type="curve" name="OYWDVXGH"/>
    </contour>
  </outline>
</glyph>
<glyph name="acute" format="2">
  <advance width="408"/>
  <unicode hex="00B4"/>
  <anchor x="0" y="497.0" name="top"/>
  <anchor x="154" y="497.0" name="center"/>
  <outline>
    <contour>
      <point x="253.0" y="710.0" type="move"/>
      <point x="162.0" y="604.0" type="line"/>
    </contour>
  </outline>
</glyph>
<glyph name="mu.math" format="2">
  <advance width="568"/>
  <unicode hex="00B5"/>
  <outline>
    <contour>
      <point x="102" y="-110" type="move" name="YDZCUVTF"/>
      <point x="102" y="-58" name="RSRPNLIA"/>
      <point x="102" y="-6" name="HAXNRWUO"/>
      <point x="102" y="47" type="curve" smooth="yes" name="ACHJBWFU"/>
      <point x="102" y="155" name="UQZVFANK"/>
      <point x="102" y="265" name="ASXZHRIZ"/>
      <point x="102" y="372" type="curve" smooth="yes" name="ULHKDRWI"/>
      <point x="102" y="491" name="RRKGTDUJ"/>
      <point x="102" y="490" name="SNNNMMPL"/>
      <point x="102" y="372" type="curve" smooth="yes" name="XLJFXFDQ"/>
      <point x="102" y="317" name="JZSBWDES"/>
      <point x="102" y="262" name="UKBTORET"/>
      <point x="102" y="207" type="curve" smooth="yes" name="QQUMWDQX"/>
      <point x="102" y="96" name="LFHGPKCG"/>
      <point x="162" y="34" name="NLWYVPAB"/>
      <point x="258" y="34" type="curve" smooth="yes" name="ZXVLZAPR"/>
      <point x="373" y="34" name="TTVJLTFA"/>
      <point x="458" y="122" name="NBTTBOHK"/>
      <point x="458" y="224" type="curve" smooth="yes" name="VXTMBBLL"/>
      <point x="458" y="263" name="FPIZRRLB"/>
      <point x="458" y="335" name="JIUDFKAZ"/>
      <point x="458" y="373" type="curve" smooth="yes" name="GVHCJDJW"/>
      <point x="458" y="489" name="KFCJBDOR"/>
      <point x="458" y="489" name="AATRGXDG"/>
      <point x="458" y="373" type="curve" smooth="yes" name="URHNCXSI"/>
      <point x="458" y="318" name="OBASGZBD"/>
      <point x="458" y="227" name="KGNYHKZP"/>
      <point x="458" y="153" type="curve" smooth="yes" name="XOODAUAW"/>
      <point x="458" y="114" name="KTCHSCEZ"/>
      <point x="458" y="70" name="FVHZAIQG"/>
      <point x="458" y="35" type="curve" name="CRHPHCME"/>
    </contour>
  </outline>
</glyph>
<glyph name="paragraph" format="2">
  <advance width="778"/>
  <unicode hex="00B6"/>
  <outline>
    <contour>
      <point x="626" y="40" type="move" name="SJJXNSOX"/>
      <point x="626" y="121" name="VVVGGTHP"/>
      <point x="626" y="368" name="DIUVAELV"/>
      <point x="626" y="531" type="curve" smooth="yes" name="VSLEEBUY"/>
      <point x="626" y="622" name="SBGHSLUT"/>
      <point x="621" y="635" name="ZOLMLSJY"/>
      <point x="498" y="635" type="curve" smooth="yes" name="LMOMMBAU"/>
      <point x="422" y="635" name="FGAFHTGY"/>
      <point x="347" y="635" name="GMCCGKFJ"/>
      <point x="271" y="635" type="curve" smooth="yes" name="YVMCJRPN"/>
      <point x="166" y="635" name="HXSLXKDM"/>
      <point x="92" y="564" name="MVAXFUNT"/>
      <point x="92" y="464" type="curve" smooth="yes" name="TZZIOGNS"/>
      <point x="92" y="365" name="HOZSAUXG"/>
      <point x="173" y="296" name="NABVTCCG"/>
      <point x="258" y="296" type="curve" smooth="yes" name="UJZKMRXX"/>
      <point x="337" y="296" name="UCQFEVYJ"/>
      <point x="396" y="303" name="ZUFNNNAF"/>
      <point x="396" y="383" type="curve" smooth="yes" name="HYGIODCM"/>
      <point x="396" y="434" name="BSIBNJCM"/>
      <point x="396" y="440" name="OCYETJAH"/>
      <point x="396" y="494" type="curve" smooth="yes" name="HJYNIUOA"/>
      <point x="396" y="588" name="BEMFJOSP"/>
      <point x="396" y="587" name="INRIYDBQ"/>
      <point x="396" y="492" type="curve" smooth="yes" name="OICPJXIA"/>
      <point x="396" y="322" name="HSFSFGAX"/>
      <point x="396" y="129" name="CNHAMFNZ"/>
      <point x="396" y="40" type="curve" name="ORDFAMFF"/>
    </contour>
  </outline>
</glyph>
<glyph name="periodcentered" format="2">
  <advance width="260"/>
  <unicode hex="00B7"/>
  <outline>
    <contour>
      <point x="140.0" y="290.0" type="move" name="PGLIWFTM"/>
      <point x="106.0" y="295" name="OTTHUDYG"/>
      <point x="106.0" y="329" name="QFOIRNEG"/>
      <point x="140.0" y="334.0" type="curve" name="USDMPQMM"/>
    </contour>
  </outline>
</glyph>
<glyph name="cedilla" format="2">
  <advance width="416"/>
  <unicode hex="00B8"/>
  <anchor x="0" y="-20.0" name="bottom"/>
  <anchor x="208" y="-20.0" name="center"/>
  <outline>
    <contour>
      <point x="184" y="38" type="move" name="RLXPNWFQ"/>
      <point x="184.0" y="-21" name="QHYJANUR"/>
      <point x="187" y="-57" name="WUTWXNLC"/>
      <point x="235" y="-71" type="curve" smooth="yes" name="UIWEJYRT"/>
      <point x="275" y="-82" name="OUTRXCHK"/>
      <point x="286" y="-104" name="OCREOMOQ"/>
      <point x="286" y="-132" type="curve" smooth="yes" name="HQQNZSBL"/>
      <point x="286" y="-193" name="TBAHZPIS"/>
      <point x="218" y="-217" name="VTPJVZIQ"/>
      <point x="109" y="-194" type="curve" name="QUSHSQYB"/>
    </contour>
  </outline>
</glyph>
<glyph name="onesuperior" format="2">
  <advance width="338"/>
  <unicode hex="00B9"/>
  <outline>
    <contour>
      <point x="80" y="617" type="move"/>
      <point x="190" y="640" type="line"/>
      <point x="190" y="311" type="line"/>
    </contour>
  </outline>
</glyph>
<glyph name="ordmasculine" format="2">
  <advance width="492"/>
  <unicode hex="00BA"/>
  <outline>
    <contour>
      <point x="386" y="178" type="move" name="YNFFGAFE"/>
      <point x="294" y="178" name="OQYXKVED"/>
      <point x="198" y="178" name="UIOBUTWL"/>
      <point x="106" y="178" type="curve" name="JIULEBPM"/>
    </contour>
    <contour>
      <point x="308" y="365" type="move" name="WTDXBTXA"/>
      <point x="356" y="387" name="UVGNSGLZ"/>
      <point x="386" y="437" name="LLIWPZZG"/>
      <point x="386" y="498" type="curve" smooth="yes" name="MYFYLLXZ"/>
      <point x="386" y="582" name="HLFXEULK"/>
      <point x="328" y="645" name="BWWLSJJK"/>
      <point x="246" y="645" type="curve" smooth="yes" name="MKVMQXSO"/>
      <point x="164" y="645" name="FJRYPFLC"/>
      <point x="106" y="582" name="DKCXEARW"/>
      <point x="106" y="498" type="curve" smooth="yes" name="YHYFJGFZ"/>
      <point x="106" y="437" name="QKCCGYMJ"/>
      <point x="136" y="388" name="ZXXWGUXW"/>
      <point x="183" y="365" type="curve" name="TMNXHVOH"/>
    </contour>
  </outline>
</glyph>
<glyph name="guillemetright" format="2">
  <advance width="637"/>
  <unicode hex="00BB"/>
  <outline>
    <contour>
      <point x="360.0" y="64.0" type="move" name="LTLFXWKF"/>
      <point x="404.0" y="106.0" name="YKEXDQUD"/>
      <point x="446.0" y="149" name="FKARLFWP"/>
      <point x="500.0" y="202.0" type="curve" smooth="yes" name="CVZLANMM"/>
      <point x="560" y="261" name="BTBPJSPR"/>
      <point x="558" y="264" name="BADBMWMB"/>
      <point x="501.0" y="318.0" type="curve" smooth="yes" name="MPQRQWCK"/>
      <point x="447" y="369" name="XTQLFCFK"/>
      <point x="404.0" y="416.0" name="XCGFTIOI"/>
      <point x="360.0" y="458.0" type="curve" name="XZVSSXJL"/>
    </contour>
    <contour>
      <point x="100.0" y="64.0" type="move" name="YWPUSVLL"/>
      <point x="144.0" y="106.0" name="RNAGSTDC"/>
      <point x="186.0" y="149" name="UBYRKUUV"/>
      <point x="240.0" y="202.0" type="curve" smooth="yes" name="SUSEFLFG"/>
      <point x="300" y="261" name="KIPVDOUZ"/>
      <point x="298" y="264" name="EDEOHAWZ"/>
      <point x="241.0" y="318.0" type="curve" smooth="yes" name="AXMTOMCG"/>
      <point x="187" y="370" name="OXGJAGSD"/>
      <point x="144.0" y="416.0" name="CIPOWMGS"/>
      <point x="100.0" y="458.0" type="curve" name="AWSNDFDY"/>
    </contour>
  </outline>
</glyph>
<glyph name="onequarter" format="2">
  <advance width="899"/>
  <unicode hex="00BC"/>
  <outline>
    <contour>
      <point x="80" y="617" type="move" name="FAYXRHMJ"/>
      <point x="189" y="640" name="CNJVRONS"/>
      <point x="190" y="618" name="MXUXVNDI"/>
      <point x="190" y="552" type="curve" smooth="yes" name="ECCJJXFE"/>
      <point x="190" y="471" name="GPUGNIJY"/>
      <point x="190" y="391" name="AVWSHZMG"/>
      <point x="190" y="311" type="curve" name="YDKUCKAZ"/>
    </contour>
    <contour>
      <point x="612" y="640" type="move" name="EHQOTNXX"/>
      <point x="236" y="40" type="line" name="SDCRDSTC"/>
    </contour>
    <contour>
      <point x="819" y="133" type="move" name="SNNBJCKS"/>
      <point x="759" y="133" name="HZCIGTSY"/>
      <point x="697" y="133" name="VZIGGGLK"/>
      <point x="636" y="133" type="curve" smooth="yes" name="PZMYCWFT"/>
      <point x="574" y="133" name="WMGDPCUI"/>
      <point x="553" y="157" name="SJRTJMPJ"/>
      <point x="584" y="213" type="curve" smooth="yes" name="WWIVECYG"/>
      <point x="603" y="248" name="JCRWWWBX"/>
      <point x="611" y="262" name="RVEJANZM"/>
      <point x="638" y="310" type="curve" smooth="yes" name="RVRAKMNL"/>
      <point x="679" y="384" name="ISYDJUIB"/>
      <point x="741" y="384" name="GVWINSQQ"/>
      <point x="741" y="300" type="curve" smooth="yes" name="UOTBPCDT"/>
      <point x="741" y="235" name="STQCTCGZ"/>
      <point x="741" y="132" name="NPSTHZXC"/>
      <point x="741" y="40" type="curve" name="TLDEXMSQ"/>
    </contour>
  </outline>
</glyph>
<glyph name="onehalf" format="2">
  <advance width="940"/>
  <unicode hex="00BD"/>
  <outline>
    <contour>
      <point x="80" y="617" type="move" name="FAYXRHMJ"/>
      <point x="189" y="640" name="CNJVRONS"/>
      <point x="190" y="618" name="MXUXVNDI"/>
      <point x="190" y="552" type="curve" smooth="yes" name="ECCJJXFE"/>
      <point x="190" y="471" name="GPUGNIJY"/>
      <point x="190" y="391" name="AVWSHZMG"/>
      <point x="190" y="311" type="curve" name="YDKUCKAZ"/>
    </contour>
    <contour>
      <point x="612" y="640" type="move" name="ASXCJWZU"/>
      <point x="236" y="40" type="line" name="NDLBDZDB"/>
    </contour>
    <contour>
      <point x="842" y="49" type="move" name="CXPXHKLO"/>
      <point x="810" y="49" name="CQACSUPF"/>
      <point x="778" y="49" name="RGBGOHMD"/>
      <point x="746" y="49" type="curve" smooth="yes" name="ONLSQOIO"/>
      <point x="633" y="49" name="BPGFRUCQ"/>
      <point x="614" y="61" name="EVYBRCUV"/>
      <point x="699" y="128" type="curve" smooth="yes" name="FIDWJRJL"/>
      <point x="781" y="192" name="LDZVEPMJ"/>
      <point x="828" y="237" name="DFQBUUVY"/>
      <point x="828" y="282" type="curve" smooth="yes" name="BFCLMLUJ"/>
      <point x="828" y="366" name="YKYOAPCS"/>
      <point x="715" y="404" name="NTLHVZZB"/>
      <point x="623" y="349" type="curve" name="RMXIWILP"/>
    </contour>
  </outline>
</glyph>
<glyph name="threequarters" format="2">
  <advance width="960"/>
  <unicode hex="00BE"/>
  <outline>
    <contour>
      <point x="673" y="640" type="move" name="MHJKINSQ"/>
      <point x="297" y="40" type="line" name="VWSWNNZF"/>
    </contour>
    <contour>
      <point x="880" y="133" type="move" name="SNNBJCKS"/>
      <point x="820" y="133" name="HZCIGTSY"/>
      <point x="758" y="133" name="VZIGGGLK"/>
      <point x="697" y="133" type="curve" smooth="yes" name="PZMYCWFT"/>
      <point x="635" y="133" name="WMGDPCUI"/>
      <point x="614" y="157" name="SJRTJMPJ"/>
      <point x="645" y="213" type="curve" smooth="yes" name="WWIVECYG"/>
      <point x="664" y="248" name="JCRWWWBX"/>
      <point x="672" y="262" name="RVEJANZM"/>
      <point x="699" y="310" type="curve" smooth="yes" name="RVRAKMNL"/>
      <point x="740" y="384" name="ISYDJUIB"/>
      <point x="802" y="384" name="GVWINSQQ"/>
      <point x="802" y="300" type="curve" smooth="yes" name="UOTBPCDT"/>
      <point x="802" y="235" name="STQCTCGZ"/>
      <point x="802" y="132" name="NPSTHZXC"/>
      <point x="802" y="40" type="curve" name="TLDEXMSQ"/>
    </contour>
    <contour>
      <point x="110" y="333" type="move" name="BHATBUZI"/>
      <point x="211" y="295" name="WSBCUATE"/>
      <point x="321" y="321" name="HXSFLKFQ"/>
      <point x="321" y="399" type="curve" smooth="yes" name="DAQMINFF"/>
      <point x="321" y="444" name="RJQLZHZV"/>
      <point x="287" y="480" name="NUANWZRJ"/>
      <point x="209" y="484" type="curve" smooth="yes" name="GXGNSWUC"/>
      <point x="143" y="488" name="ULPVXNFR"/>
      <point x="156" y="499" name="DFIUUOMO"/>
      <point x="218" y="551" type="curve" smooth="yes" name="NASRMLLZ"/>
      <point x="292" y="611" name="XGPAVCJS"/>
      <point x="315" y="635" name="OKGDOQLD"/>
      <point x="250" y="635" type="curve" smooth="yes" name="URCLCGNB"/>
      <point x="196" y="635" name="QAFHIRUO"/>
      <point x="151" y="635" name="EWDPIVVG"/>
      <point x="112" y="635" type="curve" name="OYWDVXGH"/>
    </contour>
  </outline>
</glyph>
<glyph name="questiondown" format="2">
  <advance width="511"/>
  <unicode hex="00BF"/>
  <outline>
    <contour>
      <point x="433" y="-32" type="move" name="KCRJQTNE"/>
      <point x="380" y="-54" name="EPCCUKCK"/>
      <point x="327" y="-64" name="LBEUUDCV"/>
      <point x="280" y="-64" type="curve" smooth="yes" name="GSZPHCTD"/>
      <point x="173" y="-64" name="HRYLMIMY"/>
      <point x="94" y="-11" name="LYUJBRWV"/>
      <point x="94.0" y="70.0" type="curve" smooth="yes" name="NDBAUTHT"/>
      <point x="94" y="124" name="GELHCFEM"/>
      <point x="133" y="173" name="VSSGCDQN"/>
      <point x="200" y="201" type="curve" smooth="yes" name="XSTZKKLP"/>
      <point x="286" y="237" name="YATSXVYD"/>
      <point x="295" y="266" name="DIFGQIBD"/>
      <point x="295" y="313" type="curve" name="DOFKUNYD"/>
    </contour>
    <contour>
      <point x="294.0" y="543.0" type="move" name="CUGKBRSX"/>
      <point x="294.0" y="529.0" name="XHCYERXF"/>
      <point x="294.0" y="504.0" name="SXAXKEKD"/>
      <point x="294.0" y="489.0" type="curve" name="JLWYRBFZ"/>
    </contour>
  </outline>
</glyph>
<glyph name="AE" format="2">
  <advance width="844"/>
  <unicode hex="00C6"/>
  <outline>
    <contour>
      <point x="162" y="218" type="move" name="PEPFYREX"/>
      <point x="223" y="218" name="YFELWUCB"/>
      <point x="320" y="218" name="YMARNABC"/>
      <point x="368" y="218.0" type="curve" smooth="yes" name="HEQMGXIM"/>
      <point x="414" y="218" name="IGXCCIYA"/>
      <point x="446" y="251" name="ULEKRVCK"/>
      <point x="446" y="282" type="curve" smooth="yes" name="ZDBATIOH"/>
      <point x="446" y="323" name="QXIOSTGD"/>
      <point x="476" y="350" name="DIFFTMFS"/>
      <point x="521" y="350.0" type="curve" smooth="yes" name="WQKVWXLT"/>
      <point x="568" y="350" name="OCBQVQZT"/>
      <point x="666" y="350" name="YMSBTRSK"/>
      <point x="724" y="350" type="curve" name="NCEZZFGD"/>
    </contour>
    <contour>
      <point x="75" y="40" type="move" name="RQKNDYVY"/>
      <point x="100" y="92" name="BISQPQGG"/>
      <point x="124" y="144" name="LVQKHMTJ"/>
      <point x="149" y="196" type="curve" smooth="yes" name="IXBLTIJB"/>
      <point x="203" y="308" name="NVYOIZMB"/>
      <point x="257" y="421" name="WBNBGLFG"/>
      <point x="310" y="533" type="curve" smooth="yes" name="YVTFMWRL"/>
      <point x="341" y="599" name="ORNCCOXS"/>
      <point x="386" y="635" name="TBFAMCYE"/>
      <point x="475" y="635" type="curve" smooth="yes" name="EYMBXLYY"/>
      <point x="538" y="635" name="DAGQIQVI"/>
      <point x="603" y="635" name="CYKWKQZJ"/>
      <point x="659" y="635" type="curve" smooth="yes" name="GQXKSYXS"/>
      <point x="771" y="635" name="GKSELAMQ"/>
      <point x="771" y="635" name="HSIUGWSJ"/>
      <point x="659" y="635" type="curve" smooth="yes" name="WXKCHXHO"/>
      <point x="615" y="635" name="AKGJJMNH"/>
      <point x="564" y="635" name="QWSLUPMK"/>
      <point x="514" y="635" type="curve" smooth="yes" name="WWLFXPLM"/>
      <point x="467" y="635" name="CSFBLNYJ"/>
      <point x="446" y="613" name="QTMODYES"/>
      <point x="446" y="545" type="curve" smooth="yes" name="WVADKEPI"/>
      <point x="446" y="461" name="KCCQAAKY"/>
      <point x="446" y="228" name="ELAQSWCV"/>
      <point x="446" y="132" type="curve" smooth="yes" name="IQIZHGTR"/>
      <point x="446" y="59" name="LURGJUXU"/>
      <point x="461" y="45" name="HAVTBRAB"/>
      <point x="551" y="45" type="curve" smooth="yes" name="DZAZWMPC"/>
      <point x="616" y="45" name="RCROXQNE"/>
      <point x="680" y="45" name="BGNNYHKW"/>
      <point x="744" y="45" type="curve" name="JSLBRAHF"/>
    </contour>
  </outline>
</glyph>
<glyph name="Ccedilla" format="2">
  <advance width="600"/>
  <unicode hex="00C7"/>
  <anchor x="359" y="-12" name="below"/>
  <anchor x="359" y="692" name="above"/>
  <outline>
    <contour>
      <point x="515" y="84" type="move" name="FWUNVMEG"/>
      <point x="466" y="52" name="XSXNQCCO"/>
      <point x="404" y="37" name="GMHHSQWX"/>
      <point x="352" y="37" type="curve" smooth="yes" name="XSOMLOUO"/>
      <point x="205" y="35" name="ANSFROZU"/>
      <point x="90" y="152" name="ZKLMACXH"/>
      <point x="90" y="340" type="curve" smooth="yes" name="WMDKPQNU"/>
      <point x="90" y="528" name="XYTUHGIX"/>
      <point x="209" y="643" name="DRIFKQJT"/>
      <point x="356" y="643" type="curve" smooth="yes" name="AIIDYUVW"/>
      <point x="407" y="642" name="QHIYOMNV"/>
      <point x="466" y="630" name="KUEZWUMO"/>
      <point x="515" y="599" type="curve" name="HMXLOVSW"/>
    </contour>
    <contour>
      <point x="321" y="-33" type="move" name="NKQMDITA"/>
      <point x="319.0" y="-66" name="UAKEYTAX"/>
      <point x="331" y="-78" name="VVCQNYJL"/>
      <point x="353" y="-81.0" type="curve" smooth="yes" name="BCRREFPT"/>
      <point x="394" y="-87" name="DGZEOXQZ"/>
      <point x="416" y="-110" name="PPXMXOLU"/>
      <point x="416" y="-141" type="curve" smooth="yes" name="DIVSMYMX"/>
      <point x="416" y="-195" name="HANKNNCC"/>
      <point x="353" y="-219" name="GRISSWXQ"/>
      <point x="252" y="-198" type="curve" name="KTUBOOIX"/>
    </contour>
  </outline>
</glyph>
<glyph name="Eth" format="2">
  <advance width="670"/>
  <unicode hex="00D0"/>
  <outline>
    <contour>
      <point x="315" y="340" type="move"/>
      <point x="45" y="340" type="line"/>
    </contour>
    <contour>
      <point x="135.0" y="45.0" type="line" name="JITUK"/>
      <point x="135.0" y="635.0" type="line" name="IPTAQ"/>
      <point x="312.0" y="635.0" type="line" name="RENLY"/>
      <point x="473.0" y="635.0" name="NOOKS"/>
      <point x="580.0" y="512" name="BLUJA"/>
      <point x="580.0" y="341.0" type="curve" smooth="yes" name="BONEE"/>
      <point x="580.0" y="169" name="PFILA"/>
      <point x="475.0" y="45.0" name="MAMUE"/>
      <point x="313.0" y="45.0" type="curve" name="MAAAX"/>
    </contour>
  </outline>
</glyph>
<glyph name="multiply" format="2">
  <advance width="517"/>
  <unicode hex="00D7"/>
  <outline>
    <contour>
      <point x="115.25" y="452.0" type="move" name="PTLOYANM"/>
      <point x="210" y="357" name="FRYJITUK"/>
      <point x="308" y="259" name="PBZSQQKE"/>
      <point x="403.25" y="164.0" type="curve" name="VDMMQVOF"/>
    </contour>
    <contour>
      <point x="403.25" y="452.0" type="move" name="CZVXUILT"/>
      <point x="308" y="357" name="YNRGPHJO"/>
      <point x="210" y="259" name="CJGRELBD"/>
      <point x="115.25" y="164.0" type="curve" name="DSCYSKIP"/>
    </contour>
  </outline>
</glyph>
<glyph name="Oslash" format="2">
  <advance width="732"/>
  <unicode hex="00D8"/>
  <outline>
    <contour>
      <point x="364.0" y="35.0" type="curve" smooth="yes"/>
      <point x="202.0" y="35.0"/>
      <point x="90.0" y="162.0"/>
      <point x="90.0" y="341.0" type="curve" smooth="yes"/>
      <point x="90.0" y="518.0"/>
      <point x="202.0" y="645.0"/>
      <point x="364.0" y="645.0" type="curve" smooth="yes"/>
      <point x="527.0" y="645.0"/>
      <point x="642.0" y="519.0"/>
      <point x="642.0" y="341.0" type="curve" smooth="yes"/>
      <point x="642.0" y="162.0"/>
      <point x="527.0" y="35.0"/>
    </contour>
    <contour>
      <point x="168.0" y="-29.0" type="move"/>
      <point x="564.0" y="709.0" type="line"/>
    </contour>
  </outline>
</glyph>
<glyph name="Thorn" format="2">
  <advance width="555"/>
  <unicode hex="00DE"/>
  <outline>
    <contour>
      <point x="129" y="170" type="move" name="OSADFJEO"/>
      <point x="188" y="170" name="XVWXCPQO"/>
      <point x="248" y="170" name="RUOKQJBK"/>
      <point x="307" y="170" type="curve" smooth="yes" name="QKPUWTLD"/>
      <point x="405" y="170" name="ZAHPHZPI"/>
      <point x="475" y="236" name="CCBVCTTS"/>
      <point x="475" y="338" type="curve" smooth="yes" name="XURJWBIU"/>
      <point x="475" y="437" name="CUQEGQXM"/>
      <point x="405" y="507" name="LVQBRVNT"/>
      <point x="295" y="507" type="curve" smooth="yes" name="RQPAHWEY"/>
      <point x="270" y="507" name="EOZHAWIO"/>
      <point x="243" y="507" name="FIXIYHHO"/>
      <point x="219" y="507" type="curve" smooth="yes" name="XEJNEPKN"/>
      <point x="144.0" y="507.0" name="PQDIUZAC"/>
      <point x="125" y="523" name="VFDNROLR"/>
      <point x="125" y="567" type="curve" smooth="yes" name="VCECLFEK"/>
      <point x="125" y="658" name="AIPBLDIA"/>
      <point x="125" y="676" name="XFAOYRDJ"/>
      <point x="125" y="524" type="curve" smooth="yes" name="UQOCVKLF"/>
      <point x="125" y="363" name="SXGQTSWV"/>
      <point x="125" y="199" name="ICSZYZLZ"/>
      <point x="125" y="40" type="curve" name="FKUAEXMZ"/>
    </contour>
  </outline>
</glyph>
<glyph name="germandbls" format="2">
  <advance width="551"/>
  <unicode hex="00DF"/>
  <outline>
    <contour>
      <point x="236" y="39" type="move" name="OUGIQSPS"/>
      <point x="379" y="12" name="QZGHYQLJ"/>
      <point x="467" y="122" name="DVMKEZPT"/>
      <point x="467" y="215" type="curve" smooth="yes" name="SYMWRLDA"/>
      <point x="467" y="280" name="CTMPMZDL"/>
      <point x="435" y="330" name="JRTOWPCJ"/>
      <point x="383" y="359" type="curve" smooth="yes" name="RAZLLOJF"/>
      <point x="356" y="372" name="AMQJUXMP"/>
      <point x="323" y="382" name="RUKUETHA"/>
      <point x="286" y="385" type="curve" smooth="yes" name="CZGMAFST" identifier="cVJd5HR3M0"/>
      <point x="235" y="389" name="YQAZEGZT"/>
      <point x="236" y="381" name="EBECDCPF"/>
      <point x="279" y="395" type="curve" smooth="yes" name="COKRVRKB" identifier="h3U6XfUDFK"/>
      <point x="305" y="404" name="KJAFSFAE"/>
      <point x="337" y="417" name="NXSYKITJ"/>
      <point x="362" y="439" type="curve" smooth="yes" name="RYSBTGWK"/>
      <point x="392" y="464" name="YTIOLOGV"/>
      <point x="414" y="499" name="NDZLLNOO"/>
      <point x="414" y="542" type="curve" smooth="yes" name="FLENPIBW"/>
      <point x="414" y="631" name="YZNHYYFZ"/>
      <point x="352" y="693" name="WQQFDECD"/>
      <point x="266" y="693" type="curve" smooth="yes" name="FZBAHSFN"/>
      <point x="172" y="693" name="TCSCXWNZ"/>
      <point x="114" y="633" name="RMWFZRCH"/>
      <point x="114" y="540" type="curve" smooth="yes" name="VHGPUJCQ"/>
      <point x="114" y="374" name="EEIDDXCK"/>
      <point x="114" y="207" name="XYPDWCLR"/>
      <point x="114" y="40" type="curve" name="PKFQOSXU"/>
    </contour>
  </outline>
</glyph>
<glyph name="ae" format="2">
  <advance width="938"/>
  <unicode hex="00E6"/>
  <outline>
    <contour>
      <point x="474" y="40" type="move"/>
      <point x="474" y="458" type="line"/>
    </contour>
    <contour>
      <point x="280" y="34" type="curve" smooth="yes"/>
      <point x="393" y="34"/>
      <point x="474" y="124"/>
      <point x="474" y="249" type="curve" smooth="yes"/>
      <point x="474" y="374"/>
      <point x="391" y="463"/>
      <point x="279" y="463" type="curve" smooth="yes"/>
      <point x="166" y="463"/>
      <point x="84" y="374"/>
      <point x="84" y="249" type="curve" smooth="yes"/>
      <point x="84" y="124"/>
      <point x="166" y="34"/>
    </contour>
    <contour>
      <point x="498.0" y="249.0" type="move"/>
      <point x="853.0" y="249.0" type="line"/>
      <point x="857.0" y="377.0"/>
      <point x="784.0" y="463.0"/>
      <point x="672.0" y="463.0" type="curve" smooth="yes"/>
      <point x="558.0" y="463.0"/>
      <point x="474.0" y="377.0"/>
      <point x="474.0" y="248.0" type="curve" smooth="yes"/>
      <point x="474.0" y="56.0"/>
      <point x="657.0" y="-24.0"/>
      <point x="841.0" y="80.0" type="curve"/>
    </contour>
  </outline>
</glyph>
<glyph name="eth" format="2">
  <advance width="551"/>
  <unicode hex="00F0"/>
  <outline>
    <contour>
      <point x="237" y="690" type="move" name="CWYFREGL"/>
      <point x="264" y="669" name="BAJYFYGJ"/>
      <point x="289" y="648" name="RFVBSERQ"/>
      <point x="312" y="625" type="curve" smooth="yes" name="SSUMSQML"/>
      <point x="409" y="531" name="JSYVVITT"/>
      <point x="467" y="422" name="OUNLIPCI"/>
      <point x="467" y="267" type="curve" smooth="yes" name="VPNACIOH"/>
      <point x="467" y="145" name="UJUDVYDD"/>
      <point x="394" y="35" name="AGRMWVFK"/>
      <point x="270" y="35" type="curve" smooth="yes" name="FGYOMLOW"/>
      <point x="159" y="35" name="TLNIIPBJ"/>
      <point x="84" y="116" name="OPUVRZXT"/>
      <point x="84" y="237" type="curve" smooth="yes" name="FJBEKSFI"/>
      <point x="84" y="358" name="BVSJJITQ"/>
      <point x="167" y="440" name="SBUZRRHO"/>
      <point x="265" y="440" type="curve" smooth="yes" name="NLMORSHA"/>
      <point x="373" y="440" name="HZWQTKDQ"/>
      <point x="478" y="344" name="QAXXCNBR"/>
      <point x="460" y="212" type="curve" name="BCXDPZKR"/>
    </contour>
    <contour>
      <point x="446.0" y="661.0" type="move" name="GOMZZUBF"/>
      <point x="356" y="628" name="QVJCCXRL"/>
      <point x="264" y="595" name="WWDZJIBO"/>
      <point x="174.0" y="562.0" type="curve" name="KGMZMASN"/>
    </contour>
  </outline>
</glyph>
<glyph name="divide" format="2">
  <advance width="540"/>
  <unicode hex="00F7"/>
  <outline>
    <contour>
      <point x="80" y="308" type="move"/>
      <point x="460" y="308" type="line"/>
    </contour>
    <contour>
      <point x="277.0" y="460.0" type="move"/>
      <point x="243.0" y="465"/>
      <point x="243.0" y="499"/>
      <point x="277.0" y="504.0" type="curve"/>
    </contour>
    <contour>
      <point x="278.0" y="158.0" type="move"/>
      <point x="244.0" y="154.0"/>
      <point x="244.0" y="118.0"/>
      <point x="278.0" y="114.0" type="curve"/>
    </contour>
  </outline>
</glyph>
<glyph name="thorn" format="2">
  <advance width="584"/>
  <unicode hex="00FE"/>
  <outline>
    <contour>
      <point x="305" y="463" type="curve" smooth="yes"/>
      <point x="191" y="463"/>
      <point x="111" y="373"/>
      <point x="111" y="248" type="curve" smooth="yes"/>
      <point x="111" y="123"/>
      <point x="193" y="34"/>
      <point x="306" y="34" type="curve" smooth="yes"/>
      <point x="418" y="34"/>
      <point x="501" y="123"/>
      <point x="501" y="248" type="curve" smooth="yes"/>
      <point x="501" y="373"/>
      <point x="418" y="463"/>
    </contour>
    <contour>
      <point x="111.0" y="-125.0" type="move"/>
      <point x="111" y="695" type="line"/>
    </contour>
  </outline>
</glyph>
<glyph name="aogonek" format="2">
  <advance width="584"/>
  <unicode hex="0105"/>
  <anchor x="306" y="509" name="above"/>
  <outline>
    <contour>
      <point x="474" y="453" type="move" name="FREEZ"/>
      <point x="474" y="397" name="MNCVYMIC"/>
      <point x="474.0" y="323" name="KYXRVNHW"/>
      <point x="474" y="228" type="curve" smooth="yes" name="SPLNPNLQ"/>
      <point x="474" y="103" name="PFILA"/>
      <point x="393" y="34" name="MAMUE"/>
      <point x="280" y="34" type="curve" smooth="yes" name="MAAAX"/>
      <point x="167" y="34" name="GINKE"/>
      <point x="84" y="124" name="WAGIP"/>
      <point x="84" y="249" type="curve" smooth="yes" name="IXEXE"/>
      <point x="84" y="374" name="SAMNN"/>
      <point x="166" y="463" name="YUTUP"/>
      <point x="279" y="463" type="curve" smooth="yes" name="RENLY"/>
      <point x="391" y="463" name="NOOKS"/>
      <point x="474" y="376" name="BLUJA"/>
      <point x="474" y="251" type="curve" smooth="yes" name="BONEE"/>
      <point x="474.0" y="214" name="OAREABUJ"/>
      <point x="474.0" y="157.0" name="SATUBKCG"/>
      <point x="474" y="129" type="curve" name="QPONFOTR"/>
      <point x="474.0" y="96" name="NGYRFVEJ"/>
      <point x="474.0" y="62" name="DWQWQKZD"/>
      <point x="474" y="29" type="curve" name="YACKK"/>
    </contour>
    <contour>
      <point x="474" y="29.0" type="move" name="YLLHUVHV"/>
      <point x="388" y="0.0" name="BHELUTXR"/>
      <point x="361.0" y="-27.0" name="HZJCJCIQ"/>
      <point x="361.0" y="-70.0" type="curve" smooth="yes" name="ACTKJPCN"/>
      <point x="361.0" y="-123.0" name="NFWHDZMS"/>
      <point x="406" y="-156.0" name="ORXWCZJR"/>
      <point x="482.0" y="-122.0" type="curve" name="ZJTMKOQQ"/>
    </contour>
  </outline>
</glyph>
<glyph name="dcroat" format="2">
  <advance width="584"/>
  <unicode hex="0111"/>
  <outline>
    <contour>
      <point x="474" y="696" type="move" name="FREEZ"/>
      <point x="474" y="667" name="XROPYXTI"/>
      <point x="474" y="637" name="QVGYAETI"/>
      <point x="474" y="594" type="curve" smooth="yes" name="WRPFXCWR"/>
      <point x="474" y="454" name="YBZYZLAB"/>
      <point x="474" y="402" name="WEVFLMXM"/>
      <point x="474" y="237" type="curve" smooth="yes" name="SPLNPNLQ"/>
      <point x="474" y="112" name="PFILA"/>
      <point x="393" y="34" name="MAMUE"/>
      <point x="280" y="34" type="curve" smooth="yes" name="MAAAX"/>
      <point x="167" y="34" name="GINKE"/>
      <point x="84" y="124" name="WAGIP"/>
      <point x="84" y="249" type="curve" smooth="yes" name="IXEXE"/>
      <point x="84" y="374" name="SAMNN"/>
      <point x="166" y="463" name="YUTUP"/>
      <point x="279" y="463" type="curve" smooth="yes" name="RENLY"/>
      <point x="391" y="463" name="NOOKS"/>
      <point x="474" y="376" name="BLUJA"/>
      <point x="474" y="251" type="curve" smooth="yes" name="BONEE"/>
      <point x="474" y="214" name="OAREABUJ"/>
      <point x="474" y="157" name="SATUBKCG"/>
      <point x="474" y="129" type="curve" smooth="yes" name="QPONFOTR"/>
      <point x="474" y="96" name="NGYRFVEJ"/>
      <point x="474" y="62" name="DWQWQKZD"/>
      <point x="474" y="29" type="curve" name="YACKK"/>
    </contour>
    <contour>
      <point x="335" y="594" type="move" name="VAVNSZZP"/>
      <point x="407" y="594" name="RUSWFQCP"/>
      <point x="495" y="594.0" name="IIWEZPZH"/>
      <point x="575" y="594" type="curve" name="XQYGVAJO"/>
    </contour>
  </outline>
</glyph>
<glyph name="Hbar" format="2">
  <advance width="709"/>
  <unicode hex="0126"/>
  <outline>
    <contour>
      <point x="136" y="640" type="move" name="GVTITBTF"/>
      <point x="136.0" y="601" name="VSNBJVNV"/>
      <point x="136.0" y="563" name="YYTXIVMD"/>
      <point x="136" y="524" type="curve" name="CEWEDOCB"/>
      <point x="136" y="425" name="LERLXUUT"/>
      <point x="136.0" y="261" name="MBXWJNMF"/>
      <point x="136" y="130" type="curve" smooth="yes" name="VNKLZZFQ"/>
      <point x="136" y="3" name="HCEUUJRO"/>
      <point x="136" y="17" name="WFPWCQLV"/>
      <point x="136" y="127" type="curve" smooth="yes" name="IHOFWETB"/>
      <point x="136" y="193" name="FVDNVEGO"/>
      <point x="136" y="158" name="SSDPCMWO"/>
      <point x="136" y="214" type="curve" smooth="yes" name="GSAOHOXY"/>
      <point x="136" y="276" name="SMUUDTQM"/>
      <point x="179" y="304" name="PAQDJHLK"/>
      <point x="226" y="304" type="curve" smooth="yes" name="CFBCJ"/>
      <point x="312" y="304.0" name="AJBFLOPX"/>
      <point x="398" y="304" name="VMOQEWYR"/>
      <point x="484" y="304" type="curve" smooth="yes" name="CAGED"/>
      <point x="547" y="304" name="HOPYVYZE"/>
      <point x="574" y="337" name="AHMGOIHN"/>
      <point x="574" y="394" type="curve" smooth="yes" name="UZQPHQUN"/>
      <point x="574" y="429" name="XBAUVVMO"/>
      <point x="574" y="515" name="WBCSNTHW"/>
      <point x="574" y="550" type="curve" smooth="yes" name="UKRNEWEZ"/>
      <point x="574" y="668" name="LHSNARTE"/>
      <point x="574" y="668.0" name="UEGBIHAL"/>
      <point x="574" y="550" type="curve" smooth="yes" name="WQRGGMMM"/>
      <point x="574.0" y="419" name="TMECDNED"/>
      <point x="574" y="203" name="TDPUJEQT"/>
      <point x="574" y="157" type="curve" name="QGUOSJXN"/>
      <point x="574.0" y="118" name="HQKOMWGC"/>
      <point x="574.0" y="79" name="OQJQVRLK"/>
      <point x="574" y="40" type="curve" name="ETMWWWDY"/>
    </contour>
    <contour>
      <point x="664" y="520" type="move" name="NKEXLUWO"/>
      <point x="538" y="520.0" name="ONUWGHEK"/>
      <point x="171" y="520.0" name="YCDJKAYF"/>
      <point x="45" y="520" type="curve" name="LKPPINUD"/>
    </contour>
  </outline>
</glyph>
<glyph name="iogonek" format="2">
  <advance width="231"/>
  <unicode hex="012F"/>
  <anchor x="114" y="497" name="above"/>
  <anchor x="114" y="32" name="below"/>
  <outline>
    <contour>
      <point x="115" y="40" type="move" name="ASRMLMHF"/>
      <point x="115.0" y="82" name="ENCFTFPP"/>
      <point x="115.0" y="123" name="XCNOETKN"/>
      <point x="115" y="165" type="curve" smooth="yes" name="UTTQRVZE"/>
      <point x="115.0" y="221.0" name="TOVRUFDL"/>
      <point x="115.0" y="277" name="HRBSDMDH"/>
      <point x="115" y="333" type="curve" smooth="yes" name="IXMXKXNK"/>
      <point x="115.0" y="375.0" name="DLGYHBZB"/>
      <point x="115.0" y="416" name="IEZVKCLU"/>
      <point x="115" y="458" type="curve" name="QHDACRAQ"/>
    </contour>
    <contour>
      <point x="115" y="639" type="move" name="ILPNMAJT"/>
      <point x="115" y="653" name="EBNQYFUX"/>
      <point x="115" y="668" name="PCPDQLUZ"/>
      <point x="115" y="682" type="curve" name="JAFZCSTS"/>
    </contour>
    <contour>
      <point x="116" y="39" type="move" smooth="yes" name="ZDLDQEVJ"/>
      <point x="61" y="14" name="AIRTMHJZ"/>
      <point x="43" y="-15" name="HKAAHTPN"/>
      <point x="43" y="-50" type="curve" smooth="yes" name="ACTKJPCN"/>
      <point x="43" y="-101" name="NFWHDZMS"/>
      <point x="88" y="-136" name="ORXWCZJR"/>
      <point x="164" y="-102" type="curve" name="ZJTMKOQQ"/>
    </contour>
  </outline>
</glyph>
<glyph name="dotlessi" format="2">
  <advance width="231"/>
  <unicode hex="0131"/>
  <outline>
    <contour>
      <point x="115" y="40" type="move" name="ASRMLMHF"/>
      <point x="115.0" y="82" name="ENCFTFPP"/>
      <point x="115.0" y="123" name="XCNOETKN"/>
      <point x="115" y="165" type="curve" smooth="yes" name="UTTQRVZE"/>
      <point x="115.0" y="221.0" name="TOVRUFDL"/>
      <point x="115.0" y="277" name="HRBSDMDH"/>
      <point x="115" y="333" type="curve" smooth="yes" name="IXMXKXNK"/>
      <point x="115.0" y="375.0" name="DLGYHBZB"/>
      <point x="115.0" y="416" name="IEZVKCLU"/>
      <point x="115" y="458" type="curve" name="QHDACRAQ"/>
    </contour>
  </outline>
</glyph>
<glyph name="kra" format="2">
  <advance width="501"/>
  <unicode hex="0138"/>
  <outline>
    <contour>
      <point x="115" y="457" type="move" name="KDEAMXQM"/>
      <point x="115" y="413" name="AAKDGOKK"/>
      <point x="115" y="368" name="HBEUTLYJ"/>
      <point x="115" y="324" type="curve" smooth="yes" name="FWHJZXAU"/>
      <point x="115" y="265" name="YHCLESED"/>
      <point x="115" y="221" name="OVQPVYIT"/>
      <point x="115" y="172" type="curve" smooth="yes" name="ZRPWVTPZ"/>
      <point x="115" y="128" name="JMLPXTHG"/>
      <point x="115" y="84" name="VQDFPLVS"/>
      <point x="115" y="40" type="curve" name="UUCOSURJ"/>
    </contour>
    <contour>
      <point x="414" y="458" type="move" name="AVCVGLSK"/>
      <point x="361" y="418" name="ULADCJSK"/>
      <point x="301.0" y="377.0" name="FDPSPOBA"/>
      <point x="241" y="332" type="curve" smooth="yes" name="VCZHCSOL"/>
      <point x="155" y="270" name="WXHEHKCE"/>
      <point x="156" y="267" name="QUZZDURK"/>
      <point x="239" y="201" type="curve" smooth="yes" name="XIDVWNUR"/>
      <point x="301" y="152" name="YGXHBJOK"/>
      <point x="367" y="92" name="CGKZKWQJ"/>
      <point x="424" y="40" type="curve" name="TVRFUEUN"/>
    </contour>
  </outline>
</glyph>
<glyph name="lslash" format="2">
  <advance width="260"/>
  <unicode hex="0142"/>
  <anchor x="102" y="745" name="above"/>
  <anchor x="102" y="-10" name="below"/>
  <outline>
    <contour>
      <point x="129" y="40" type="move" name="YACKK"/>
      <point x="129.0" y="86" name="BDRZEFMZ"/>
      <point x="129.0" y="132" name="SLBPCARG"/>
      <point x="129" y="178" type="curve" smooth="yes" name="GBOTVMJA"/>
      <point x="129" y="308.0" name="HINUMCPF"/>
      <point x="129.0" y="437" name="DWTVKTXA"/>
      <point x="129" y="567" type="curve" smooth="yes" name="XVTTGOVF"/>
      <point x="129.0" y="607.0" name="AMBCTFOH"/>
      <point x="129.0" y="652" name="HEUJPUTA"/>
      <point x="129" y="695" type="curve" name="FREEZ"/>
    </contour>
    <contour>
      <point x="220" y="427.0" type="move" name="NTFJFGJQ"/>
      <point x="160" y="405" name="PXYJEFHD"/>
      <point x="100" y="382" name="OGNYRYVW"/>
      <point x="40" y="360.0" type="curve" name="EKVBAGRF"/>
    </contour>
  </outline>
</glyph>
<glyph name="OE" format="2">
  <advance width="933"/>
  <unicode hex="0152"/>
  <outline>
    <contour>
      <point x="535.0" y="350.0" type="move" name="CFBCJ"/>
      <point x="813.0" y="350.0" type="line" name="CAGED"/>
    </contour>
    <contour>
      <point x="833.0" y="45.0" type="move" name="CAGED"/>
      <point x="358.0" y="45.0" type="line" name="RENLY"/>
      <point x="197.0" y="45.0" name="NOOKS"/>
      <point x="90.0" y="168.0" name="BLUJA"/>
      <point x="90.0" y="339.0" type="curve" smooth="yes" name="BONEE"/>
      <point x="90.0" y="511.0" name="PFILA"/>
      <point x="195.0" y="635.0" name="MAMUE"/>
      <point x="357.0" y="635.0" type="curve" name="MAAAX"/>
      <point x="833.0" y="635.0" type="line" name="CAGED"/>
    </contour>
    <contour>
      <point x="535.0" y="45.0" type="move" name="JITUK"/>
      <point x="535.0" y="635.0" type="line"/>
    </contour>
  </outline>
</glyph>
<glyph name="Scedilla" format="2">
  <advance width="521"/>
  <unicode hex="015E"/>
  <anchor x="265" y="691" name="above"/>
  <outline>
    <contour>
      <point x="102" y="74" type="move" name="CFFGT"/>
      <point x="156" y="50" name="WNGLSSMZ"/>
      <point x="210" y="38" name="OIGLRELS"/>
      <point x="258" y="38" type="curve" smooth="yes" name="LPWVPJZW"/>
      <point x="354" y="38" name="LZZPSHFA"/>
      <point x="429" y="87" name="HXDTQDEV"/>
      <point x="429" y="183" type="curve" smooth="yes" name="GOMRE"/>
      <point x="429" y="282" name="VKMYHFVW"/>
      <point x="345" y="315" name="KQPHMVQH"/>
      <point x="265" y="348" type="curve" smooth="yes" name="ARKEGWUZ"/>
      <point x="186" y="380" name="XZMGTULL"/>
      <point x="108" y="411" name="HVIOJTYE"/>
      <point x="108" y="504" type="curve" smooth="yes" name="IPECA"/>
      <point x="108" y="593" name="RYTCRKPY"/>
      <point x="174" y="642" name="CKQQDHYY"/>
      <point x="271" y="643" type="curve" smooth="yes" name="YLLROWCU"/>
      <point x="313" y="643" name="CVLLFZJW"/>
      <point x="361" y="635" name="EEAKBXQP"/>
      <point x="411" y="616" type="curve" smooth="yes" name="VPSMP"/>
    </contour>
    <contour>
      <point x="251" y="18" type="move" name="NKQMDITA"/>
      <point x="248.0" y="-66" name="UAKEYTAX"/>
      <point x="255" y="-74" name="VVCQNYJL"/>
      <point x="283" y="-77.0" type="curve" smooth="yes" name="BCRREFPT"/>
      <point x="324" y="-81" name="DGZEOXQZ"/>
      <point x="346" y="-106" name="PPXMXOLU"/>
      <point x="346" y="-137" type="curve" smooth="yes" name="DIVSMYMX"/>
      <point x="346" y="-191" name="HANKNNCC"/>
      <point x="283" y="-215" name="GRISSWXQ"/>
      <point x="182" y="-194" type="curve" name="KTUBOOIX"/>
    </contour>
  </outline>
</glyph>
<glyph name="scedilla" format="2">
  <advance width="462"/>
  <unicode hex="015F"/>
  <anchor x="235" y="497" name="above"/>
  <anchor x="235" y="-8" name="below"/>
  <outline>
    <contour>
      <point x="355" y="432" type="move" smooth="yes" name="VPSMP"/>
      <point x="312" y="453" name="LZHPLUBK"/>
      <point x="268" y="463" name="SJLGBQVG"/>
      <point x="229" y="463" type="curve" smooth="yes" name="IBUUBQYJ"/>
      <point x="154" y="462" name="HSJPZYCO"/>
      <point x="96" y="426" name="SCUAINFV"/>
      <point x="96" y="361" type="curve" smooth="yes" name="IPECA"/>
      <point x="96" y="296" name="XDOTUUXK"/>
      <point x="165" y="274" name="PUNJHFCT"/>
      <point x="233" y="251" type="curve" smooth="yes" name="REPQBFZW"/>
      <point x="304" y="227" name="QLABBTWW"/>
      <point x="376" y="203" name="MYWNSIEC"/>
      <point x="376" y="132" type="curve" smooth="yes" name="GOMRE"/>
      <point x="376" y="69" name="OOIJDFCG"/>
      <point x="319" y="34" name="WQSLZEGV"/>
      <point x="244" y="34" type="curve" smooth="yes" name="GNYVBMFS"/>
      <point x="197" y="34" name="AYXYSDGF"/>
      <point x="144" y="49" name="RVENKPNS"/>
      <point x="94" y="76" type="curve" name="CFFGT"/>
    </contour>
    <contour>
      <point x="222" y="18" type="move" name="NKQMDITA"/>
      <point x="219.0" y="-66" name="UAKEYTAX"/>
      <point x="226" y="-74" name="VVCQNYJL"/>
      <point x="254" y="-77.0" type="curve" smooth="yes" name="BCRREFPT"/>
      <point x="295" y="-81" name="DGZEOXQZ"/>
      <point x="317" y="-106" name="PPXMXOLU"/>
      <point x="317" y="-137" type="curve" smooth="yes" name="DIVSMYMX"/>
      <point x="317" y="-191" name="HANKNNCC"/>
      <point x="254" y="-215" name="GRISSWXQ"/>
      <point x="153" y="-194" type="curve" name="KTUBOOIX"/>
    </contour>
  </outline>
</glyph>
<glyph name="Tcedilla" format="2">
  <advance width="498"/>
  <unicode hex="0162"/>
  <anchor x="249" y="-9" name="below"/>
  <anchor x="249" y="685" name="above"/>
  <outline>
    <contour>
      <point x="423" y="635" type="move" name="CAGED"/>
      <point x="382" y="635" name="ELJIVCML"/>
      <point x="234" y="635" name="XCLQRYBX"/>
      <point x="143" y="635" type="curve" smooth="yes" name="AHRYJGCS"/>
      <point x="33" y="635" name="NOGPNXID"/>
      <point x="35" y="635" name="BXIKYXAA"/>
      <point x="134" y="635" type="curve" smooth="yes" name="UXZJBRRT"/>
      <point x="227" y="635" name="HKUSXMBF"/>
      <point x="249" y="594" name="RBXZDWFU"/>
      <point x="249" y="479" type="curve" smooth="yes" name="KBYRBPFS"/>
      <point x="249" y="391" name="WJPWLJSB"/>
      <point x="249" y="253" name="EBSMOOEQ"/>
      <point x="249" y="191" type="curve" smooth="yes" name="QXCJVICL"/>
      <point x="249.0" y="131" name="RHGZSHCT"/>
      <point x="249.0" y="75" name="OJXSOOVS"/>
      <point x="249.0" y="40.0" type="curve" name="LVMEJTGV"/>
    </contour>
    <contour>
      <point x="249" y="40" type="move" name="NKQMDITA"/>
      <point x="249.0" y="-34" name="UAKEYTAX"/>
      <point x="251" y="-73.0" name="VVCQNYJL"/>
      <point x="279" y="-77.0" type="curve" smooth="yes" name="BCRREFPT"/>
      <point x="321" y="-83" name="DGZEOXQZ"/>
      <point x="342" y="-106" name="PPXMXOLU"/>
      <point x="342" y="-137" type="curve" smooth="yes" name="DIVSMYMX"/>
      <point x="342" y="-191" name="HANKNNCC"/>
      <point x="279" y="-215" name="GRISSWXQ"/>
      <point x="178" y="-194" type="curve" name="KTUBOOIX"/>
    </contour>
  </outline>
</glyph>
<glyph name="tcedilla" format="2">
  <advance width="336"/>
  <unicode hex="0163"/>
  <anchor x="168" y="640" name="above"/>
  <anchor x="168" y="-14" name="below"/>
  <anchor x="240" y="501" name="right"/>
  <outline>
    <contour>
      <point x="81" y="-194" type="move" name="WHFSHXIS"/>
      <point x="190" y="-217" name="SSYCJSWQ"/>
      <point x="258" y="-191" name="QHRLHNKU"/>
      <point x="258" y="-132" type="curve" smooth="yes" name="ILWJUVKB"/>
      <point x="258" y="-88" name="HQHQUVOK"/>
      <point x="209" y="-68" name="UDMHERWX"/>
      <point x="163" y="-62" type="curve" name="YLWBWXLQ"/>
      <point x="163" y="588" type="line" name="TYRBNMBO"/>
    </contour>
    <contour>
      <point x="57" y="453" type="move" name="TDKKTSFB"/>
      <point x="279" y="453" type="line" name="AJMVHRIP"/>
    </contour>
  </outline>
</glyph>
<glyph name="Uogonek" format="2">
  <advance width="668"/>
  <unicode hex="0172"/>
  <outline>
    <contour>
      <point x="115" y="640" type="move" name="IPTAQ"/>
      <point x="115.0" y="605" name="YSMFLQJB"/>
      <point x="115.0" y="539" name="KGRPXWGB"/>
      <point x="115" y="504" type="curve" smooth="yes" name="BUMSARCN"/>
      <point x="115.0" y="415.0" name="OWURAGSK"/>
      <point x="115.0" y="357" name="PQLDBBOK"/>
      <point x="115" y="268" type="curve" smooth="yes" name="IXEXE"/>
      <point x="115" y="133" name="WAGIP"/>
      <point x="207" y="35" name="GINKE"/>
      <point x="335" y="35" type="curve" smooth="yes" name="MAAAX"/>
      <point x="467" y="35" name="MAMUE"/>
      <point x="553" y="133" name="PFILA"/>
      <point x="553" y="268" type="curve" smooth="yes" name="BONEE"/>
      <point x="553.0" y="357" name="BBPSPDJA"/>
      <point x="553.0" y="415" name="IYRHNOEB"/>
      <point x="553" y="504" type="curve" smooth="yes" name="YGSBJPCX"/>
      <point x="553.0" y="539.0" name="UQCGVNRW"/>
      <point x="553.0" y="605" name="NIZUFFPT"/>
      <point x="553" y="640" type="curve" name="BACTA"/>
    </contour>
    <contour>
      <point x="377" y="39.0" type="move" name="YLLHUVHV"/>
      <point x="291" y="10.0" name="BHELUTXR"/>
      <point x="264.0" y="-22.0" name="HZJCJCIQ"/>
      <point x="264.0" y="-65.0" type="curve" smooth="yes" name="ACTKJPCN"/>
      <point x="264.0" y="-113" name="NFWHDZMS"/>
      <point x="309" y="-151.0" name="ORXWCZJR"/>
      <point x="385.0" y="-117.0" type="curve" name="ZJTMKOQQ"/>
    </contour>
  </outline>
</glyph>
<glyph name="Schwa" format="2">
  <advance width="678"/>
  <unicode hex="018F"/>
  <outline>
    <contour>
      <point x="129" y="610" type="move" name="QAMJQAET"/>
      <point x="193" y="634" name="ZMVHWAEM"/>
      <point x="254" y="645" name="BWWMYWJB"/>
      <point x="310" y="645" type="curve" smooth="yes" name="RRBUEWVZ"/>
      <point x="473" y="645" name="XPCKVHYL"/>
      <point x="588" y="541" name="AKWHFRWI"/>
      <point x="588" y="342" type="curve" smooth="yes" name="ZNETKUHG"/>
      <point x="588" y="154" name="UBXJZDMP"/>
      <point x="478" y="35" name="UIFXGSBN"/>
      <point x="329" y="35" type="curve" smooth="yes" name="ZABZRXHQ"/>
      <point x="196" y="35" name="FELYRLYX"/>
      <point x="101" y="132" name="RAXLCRBK"/>
      <point x="93" y="282" type="curve" smooth="yes" name="NHDLMGAF"/>
      <point x="90" y="337" name="LZMIHFXV"/>
      <point x="89" y="351" name="TUFUOCDV"/>
      <point x="147" y="351" type="curve" smooth="yes" name="FGAVMVYN"/>
      <point x="247" y="351" name="KOHSNWII"/>
      <point x="308" y="351" name="HRAEFJRQ"/>
      <point x="409" y="351" type="curve" smooth="yes" name="SUIERABH"/>
      <point x="449" y="351" name="BKVSDYGB"/>
      <point x="488" y="351" name="NRDZJEGU"/>
      <point x="528" y="351" type="curve" name="TRZGHOTI"/>
    </contour>
  </outline>
</glyph>
<glyph name="fhook" format="2">
  <advance width="441"/>
  <unicode hex="0192"/>
  <outline>
    <contour>
      <point x="410.68733529153315" y="682.0" type="move" name="HDHQUIYQ"/>
      <point x="307.68733529153315" y="718.0" name="JCPMQRUL"/>
      <point x="222.68733529153315" y="677.0" name="RCIVWART"/>
      <point x="213.68733529153315" y="562.0" type="curve" smooth="yes" name="GKUXBGOW"/>
      <point x="171.55195141351595" y="22.0" type="line" smooth="yes" name="YSSJDWRC"/>
      <point x="162.68733529153315" y="-94.0" name="TEEHXAPB"/>
      <point x="77.55195141351595" y="-136.0" name="PSVMJZFW"/>
      <point x="-25.448048586484042" y="-98.0" type="curve" name="UDLSJMWO"/>
    </contour>
    <contour>
      <point x="98.68733529153317" y="453.0" type="move" name="LNIKESAG"/>
      <point x="348.68733529153315" y="453.0" type="line" name="IJKKBBZY"/>
    </contour>
  </outline>
</glyph>
<glyph name="ohorn" format="2">
  <advance width="577"/>
  <unicode hex="01A1"/>
  <anchor x="280" y="501" name="above"/>
  <anchor x="290" y="0" name="below"/>
  <outline>
    <contour>
      <point x="492" y="612" type="move" name="FTVMMRTP"/>
      <point x="493" y="532" name="GYAQHWAJ"/>
      <point x="438" y="463" name="WUPQSXKZ"/>
      <point x="314" y="463" type="curve" smooth="yes" name="NIGAPPRT"/>
      <point x="171.79631366366303" y="463" name="IHCYJKRY"/>
      <point x="84" y="373" name="LIOZMZFN"/>
      <point x="84" y="249" type="curve" smooth="yes" name="AVAHJRTB"/>
      <point x="84" y="125" name="CZGEYLEU"/>
      <point x="170" y="34" name="WSAOFEXB"/>
      <point x="288" y="34" type="curve" smooth="yes" name="OARYHVYY"/>
      <point x="407" y="34" name="LJOTGFKE"/>
      <point x="493" y="125" name="QZXMONKI"/>
      <point x="493" y="249" type="curve" smooth="yes" name="UKVKNMXQ"/>
      <point x="493" y="306" name="HCLJNXZB"/>
      <point x="474" y="356" name="LTXZSIWL"/>
      <point x="443" y="394" type="curve" name="XNPRYRGO"/>
    </contour>
  </outline>
</glyph>
<glyph name="uhorn" format="2">
  <advance width="568"/>
  <unicode hex="01B0"/>
  <anchor x="280" y="498" name="above"/>
  <anchor x="280" y="1" name="below"/>
  <outline>
    <contour>
      <point x="458" y="40" type="move" name="OABQKCXT"/>
      <point x="458.0" y="463.0" type="line" name="FWNOEHER"/>
      <point x="536.0" y="463.0" name="DHPDGHXV"/>
      <point x="583" y="532" name="SFGRYLAM"/>
      <point x="582" y="612" type="curve" name="YUHGEMUS"/>
    </contour>
    <contour>
      <point x="102" y="458" type="move" name="EDYSBOHM"/>
      <point x="102" y="207" type="line" smooth="yes" name="BBIZZDVV"/>
      <point x="102" y="96" name="YDKIMSQH"/>
      <point x="162" y="34" name="AESZCKHO"/>
      <point x="258" y="34" type="curve" smooth="yes" name="BZFMMMFX"/>
      <point x="373" y="34" name="YVWPKVGC"/>
      <point x="458" y="122" name="OICHUIBN"/>
      <point x="458" y="224" type="curve" name="NTESGOVH"/>
    </contour>
  </outline>
</glyph>
<glyph name="Oogonek" format="2">
  <advance width="732"/>
  <unicode hex="01EA"/>
  <anchor x="366" y="694" name="above"/>
  <anchor x="366" y="23" name="below"/>
  <outline>
    <contour>
      <point x="256" y="62" type="move" name="WOYETNHH"/>
      <point x="206" y="88" name="PMLGSRMU"/>
      <point x="168" y="121" name="WWFEWCEF"/>
      <point x="141" y="159" type="curve" smooth="yes" name="ENGCPPZH"/>
      <point x="107" y="207" name="WRPIUEVJ"/>
      <point x="90" y="267" name="KZGSLUXG"/>
      <point x="90" y="341" type="curve" smooth="yes" name="SJNGKFHO"/>
      <point x="90" y="519" name="HYAOQVDA"/>
      <point x="205" y="645" name="DBMAQHJB"/>
      <point x="368" y="645" type="curve" smooth="yes" name="LAPAWNTT"/>
      <point x="530" y="645" name="ZZFSZGWI"/>
      <point x="642" y="518" name="OAEDJWYJ"/>
      <point x="642" y="341" type="curve" smooth="yes" name="IEAOZMYL"/>
      <point x="642" y="181" name="AQELNOJM"/>
      <point x="535" y="98" name="ZCHEDDWC"/>
      <point x="428" y="55" type="curve" smooth="yes" name="FCQCEVUT"/>
      <point x="342" y="21" name="KXAJPYLC"/>
      <point x="306" y="-7" name="HVWAPFXD"/>
      <point x="306" y="-50" type="curve" smooth="yes" name="IIUUHXZT"/>
      <point x="306" y="-103" name="HTBQALEL"/>
      <point x="351" y="-136" name="HOLIQWJY"/>
      <point x="427" y="-102" type="curve" name="DEZNMCGB"/>
    </contour>
  </outline>
</glyph>
<glyph name="schwa" format="2">
  <advance width="548"/>
  <unicode hex="0259"/>
  <outline>
    <contour>
      <point x="443" y="248" type="move" name="HMBLRQDG"/>
      <point x="88" y="248" type="line" name="EDNICTDQ"/>
      <point x="84" y="120" name="CRASSJVM"/>
      <point x="157" y="34" name="FMOMNHAQ"/>
      <point x="269" y="34" type="curve" smooth="yes" name="VYLHTAXE"/>
      <point x="383" y="34" name="OZSOZHBH"/>
      <point x="467" y="120" name="RMMECFRK"/>
      <point x="467" y="249" type="curve" smooth="yes" name="QARSODPW"/>
      <point x="467" y="441" name="SIAOLWMB"/>
      <point x="284" y="521" name="EGKCWQJS"/>
      <point x="100" y="417" type="curve" name="TOKPIYZB"/>
    </contour>
  </outline>
</glyph>
<glyph name="ringhalfrightmod" format="2">
  <advance width="350"/>
  <unicode hex="02BE"/>
  <outline>
    <contour>
      <point x="135.0" y="719.0" type="move" name="VRXYUIWW"/>
      <point x="183.0" y="719.0" name="SEISLUPO"/>
      <point x="215.0" y="692.0" name="JRJSCNYC"/>
      <point x="215.0" y="650.0" type="curve" smooth="yes" name="OBTRKVGM"/>
      <point x="215.0" y="605.0" name="KNJAGVAI"/>
      <point x="184.0" y="576.0" name="VXNVTUOQ"/>
      <point x="135.0" y="576.0" type="curve" name="JNAFSQCQ"/>
    </contour>
  </outline>
</glyph>
<glyph name="ringhalfleftmod" format="2">
  <advance width="347"/>
  <unicode hex="02BF"/>
  <outline>
    <contour>
      <point x="212.0" y="576.0" type="move" name="ORWBTQXQ"/>
      <point x="164.0" y="576.0" name="TVUYOSYD"/>
      <point x="135.0" y="605.0" name="CPKIGYTW"/>
      <point x="135.0" y="650.0" type="curve" smooth="yes" name="ACJGEYIV"/>
      <point x="135.0" y="692.0" name="NZFJSSPT"/>
      <point x="165.0" y="719.0" name="XSDBEHXO"/>
      <point x="212.0" y="719.0" type="curve" smooth="yes" name="EDLDXWCU"/>
    </contour>
  </outline>
</glyph>
<glyph name="circumflex" format="2">
  <advance width="562"/>
  <unicode hex="02C6"/>
  <anchor x="0" y="497.0" name="top"/>
  <anchor x="280" y="497.0" name="center"/>
  <outline>
    <contour>
      <point x="159" y="604" type="move" name="CKPOIMXT"/>
      <point x="195" y="636" name="EKMJNADX"/>
      <point x="211" y="649" name="AOYWGIQU"/>
      <point x="237" y="672" type="curve" smooth="yes" name="GJSNCWSL"/>
      <point x="278.0" y="707.0" name="UOKBBDNB"/>
      <point x="286.0" y="705.0" name="YHZAOCMY"/>
      <point x="325" y="672" type="curve" smooth="yes" name="VXCTABLD"/>
      <point x="352" y="650" name="ESMGSWSE"/>
      <point x="367" y="636" name="SVVJVBRB"/>
      <point x="403" y="604" type="curve" name="FHKDLKNJ"/>
    </contour>
  </outline>
</glyph>
<glyph name="verticallinemod" format="2">
  <advance width="300"/>
  <unicode hex="02C8"/>
  <outline>
    <contour>
      <point x="150" y="635" type="move" name="SVHHFVFU"/>
      <point x="150.0" y="573" name="LHTDUOSR"/>
      <point x="150.0" y="510" name="UODMHDPM"/>
      <point x="150" y="448" type="curve" name="GHAAPEPA"/>
    </contour>
  </outline>
</glyph>
<glyph name="verticallinelowmod" format="2">
  <advance width="300"/>
  <unicode hex="02CC"/>
  <outline>
    <contour>
      <point x="150" y="77" type="move" name="BHAAYTTH"/>
      <point x="150.0" y="15" name="KNKIZHMH"/>
      <point x="150.0" y="-48" name="VHSEZTVY"/>
      <point x="150" y="-110" type="curve" name="QQSKPBXQ"/>
    </contour>
  </outline>
</glyph>
<glyph name="ring" format="2">
  <advance width="420"/>
  <unicode hex="02DA"/>
  <anchor x="0" y="497.0" name="top"/>
  <anchor x="210" y="497.0" name="center"/>
  <outline>
    <contour>
      <point x="209.0" y="596.0" type="curve" smooth="yes"/>
      <point x="152.54545454545456" y="596.0"/>
      <point x="117.0" y="633.3978494623656"/>
      <point x="117.0" y="690.0" type="curve" smooth="yes"/>
      <point x="117.0" y="746.6021505376344"/>
      <point x="153.0" y="784.0"/>
      <point x="209.0" y="784.0" type="curve" smooth="yes"/>
      <point x="266.0" y="784.0"/>
      <point x="304.0" y="746.6021505376344"/>
      <point x="304.0" y="690.0" type="curve" smooth="yes"/>
      <point x="304.0" y="633.3978494623656"/>
      <point x="266.4175824175824" y="596.0"/>
    </contour>
  </outline>
</glyph>
<glyph name="tilde" format="2">
  <advance width="565"/>
  <unicode hex="02DC"/>
  <anchor x="0" y="497.0" name="top"/>
  <anchor x="282" y="497.0" name="center"/>
  <outline>
    <contour>
      <point x="432.0" y="710.0" type="move" name="KNPPZUPY"/>
      <point x="432.0" y="651" name="ESYBERFC"/>
      <point x="405.0" y="603.0" name="EYOJDJBA"/>
      <point x="354.0" y="603.0" type="curve" smooth="yes" name="SIAPJNCJ"/>
      <point x="284.36842105263156" y="603.0" name="MGGGMMMT"/>
      <point x="276.0" y="710.0" name="FNTNHMEU"/>
      <point x="207.0" y="710.0" type="curve" smooth="yes" name="CCDPPWNF"/>
      <point x="157.0" y="710.0" name="GMXHJJGA"/>
      <point x="131.0" y="662" name="DCSKORTP"/>
      <point x="131.0" y="603.0" type="curve" name="NWKDFVEF"/>
    </contour>
  </outline>
</glyph>
<glyph name="gravecmb" format="2">
  <unicode hex="0300"/>
  <anchor x="0" y="497" name="_above"/>
  <anchor x="0" y="698" name="above"/>
  <anchor x="0" y="497" name="_aboveright"/>
  <outline>
    <contour>
      <point x="12.0" y="604.0" type="move" name="FZYYCZBO"/>
      <point x="-22" y="633" name="SNQXRZKA"/>
      <point x="-55" y="661" name="QXQOFTXB"/>
      <point x="-89.0" y="690.0" type="curve" name="OMXMGPVP"/>
    </contour>
  </outline>
</glyph>
<glyph name="acutecmb" format="2">
  <unicode hex="0301"/>
  <anchor x="0" y="497" name="_above"/>
  <anchor x="0" y="698" name="above"/>
  <anchor x="0" y="497" name="_aboveright"/>
  <outline>
    <contour>
      <point x="93.0" y="690.0" type="move" name="NWXWBIYI"/>
      <point x="59" y="661" name="MGSLVHTH"/>
      <point x="26" y="633" name="HICSAKJP"/>
      <point x="-8.0" y="604.0" type="curve" name="TAPNEUPS"/>
    </contour>
  </outline>
</glyph>
<glyph name="circumflexcmb" format="2">
  <unicode hex="0302"/>
  <anchor x="0" y="497" name="_above"/>
  <anchor x="0" y="698" name="above"/>
  <anchor x="114" y="680" name="aboveright"/>
  <outline>
    <contour>
      <point x="-110.0" y="604.0" type="move" name="WDFILQGZ"/>
      <point x="-73" y="633" name="PHLHLOCA"/>
      <point x="-28" y="690" name="RMEHAYEW"/>
      <point x="2.0" y="690.0" type="curve" smooth="yes" name="STGPFINE"/>
      <point x="34" y="690" name="GFJKKHFW"/>
      <point x="77" y="633" name="DXUBHGPP"/>
      <point x="114.0" y="604.0" type="curve" name="EWJYKNEX"/>
    </contour>
  </outline>
</glyph>
<glyph name="tildecmb" format="2">
  <unicode hex="0303"/>
  <anchor x="0" y="497" name="_above"/>
  <anchor x="0" y="716" name="above"/>
  <outline>
    <contour>
      <point x="127.0" y="690.0" type="move" name="RARKNUHF"/>
      <point x="127.0" y="642" name="QZRBZAOH"/>
      <point x="104" y="603.0" name="QKZYTOGI"/>
      <point x="61.95681063122925" y="603.0" type="curve" smooth="yes" name="AQJHGENN"/>
      <point x="6" y="603.0" name="HIJREFYZ"/>
      <point x="-5" y="690.0" name="NYVPBYUU"/>
      <point x="-60.62458471760796" y="690.0" type="curve" smooth="yes" name="TISNJKPG"/>
      <point x="-102" y="690.0" name="CWJKBHTO"/>
      <point x="-124.0" y="651" name="JYQNHLZB"/>
      <point x="-124.0" y="603.0" type="curve" name="WRHFIJNY"/>
    </contour>
  </outline>
</glyph>
<glyph name="macroncmb" format="2">
  <unicode hex="0304"/>
  <anchor x="0" y="497" name="_above"/>
  <anchor x="0" y="674" name="above"/>
  <outline>
    <contour>
      <point x="114.0" y="628.0" type="move" name="LLLHYDWV"/>
      <point x="57" y="628.0" name="IQCFRMGJ"/>
      <point x="-59" y="628.0" name="FPRFNPPE"/>
      <point x="-116.0" y="628.0" type="curve" name="XEKMEQYJ"/>
    </contour>
  </outline>
</glyph>
<glyph name="brevecmb" format="2">
  <unicode hex="0306"/>
  <anchor x="0" y="497" name="_above"/>
  <anchor x="0" y="708" name="above"/>
  <outline>
    <contour>
      <point x="114.0" y="694.0" type="move" name="GRTBDKCH"/>
      <point x="114.0" y="638.0" name="WUHCHAYW"/>
      <point x="72" y="598.0" name="MMTVLGIA"/>
      <point x="0.0" y="598.0" type="curve" smooth="yes" name="LXZUDMOI"/>
      <point x="-72" y="598.0" name="CKBSEEWE"/>
      <point x="-114.0" y="638.0" name="XVTPLAJU"/>
      <point x="-114.0" y="694.0" type="curve" name="XPRLLUTJ"/>
    </contour>
  </outline>
</glyph>
<glyph name="dotaccentcmb" format="2">
  <unicode hex="0307"/>
  <anchor x="0" y="497" name="_above"/>
  <anchor x="0" y="704" name="above"/>
  <outline>
    <contour>
      <point x="6.0" y="636.0" type="move" name="OENZHGKG"/>
      <point x="-28.0" y="641.0" name="KZTESQSM"/>
      <point x="-28.0" y="675.0" name="DKVIVXJV"/>
      <point x="6.0" y="680.0" type="curve" name="FUORFCZM"/>
    </contour>
  </outline>
</glyph>
<glyph name="dieresiscmb" format="2">
  <unicode hex="0308"/>
  <anchor x="0" y="497" name="_above"/>
  <anchor x="0" y="704" name="above"/>
  <outline>
    <contour>
      <point x="-90.0" y="636.0" type="move" name="AZXZYICT"/>
      <point x="-124.0" y="641.0" name="CEMZZUVE"/>
      <point x="-124.0" y="675.0" name="MUSESWOK"/>
      <point x="-90.0" y="680.0" type="curve" name="PXENDEIJ"/>
    </contour>
    <contour>
      <point x="110.0" y="636.0" type="move" name="WQJEUKCH"/>
      <point x="76.0" y="641.0" name="HTCOFLWF"/>
      <point x="76.0" y="675.0" name="IHEYEODI"/>
      <point x="110.0" y="680.0" type="curve" name="DBRIJDPU"/>
    </contour>
  </outline>
</glyph>
<glyph name="hookabovecmb" format="2">
  <unicode hex="0309"/>
  <anchor x="0" y="497" name="_above"/>
  <anchor x="0" y="773" name="above"/>
  <anchor x="0" y="497" name="_aboveright"/>
  <outline>
    <contour>
      <point x="-34" y="578.0" type="move" name="JJTQYOFS"/>
      <point x="21" y="586.0" name="EBSGMMIK"/>
      <point x="59" y="607.0" name="UHEIHLPI"/>
      <point x="59" y="664.0" type="curve" smooth="yes" name="FFETLMNF"/>
      <point x="59" y="726.0" name="VOGAFATS"/>
      <point x="10" y="748.0" name="BUSDUNDR"/>
      <point x="-54.0" y="727.0" type="curve" name="FNXMCATE"/>
    </contour>
  </outline>
</glyph>
<glyph name="ringabovecmb" format="2">
  <unicode hex="030A"/>
  <anchor x="0" y="497" name="_above"/>
  <anchor x="0" y="688" name="above"/>
  <outline>
    <contour>
      <point x="-39" y="582" type="move" name="ALPKNKVL"/>
      <point x="-62" y="592" name="XIRPNVZL"/>
      <point x="-79" y="615" name="CUSEGXOG"/>
      <point x="-79" y="648" type="curve" smooth="yes" name="LUQWCMHF"/>
      <point x="-79" y="690" name="BKNKWEEO"/>
      <point x="-49" y="723" name="NONKCVSU"/>
      <point x="-2" y="723" type="curve" smooth="yes" name="ONZXQXFZ"/>
      <point x="46" y="723" name="FCFQBVQA"/>
      <point x="78" y="690" name="IGBNLOFD"/>
      <point x="78" y="648" type="curve" smooth="yes" name="FSHMUJQE"/>
      <point x="78" y="614" name="AOPJPLGG"/>
      <point x="59" y="591" name="OZPPMRPS"/>
      <point x="32" y="581" type="curve" name="WNFUAFLY"/>
    </contour>
  </outline>
</glyph>
<glyph name="hungarumlautcmb" format="2">
  <unicode hex="030B"/>
  <anchor x="0" y="497" name="_above"/>
  <anchor x="0" y="708" name="above"/>
  <outline>
    <contour>
      <point x="-17.0" y="700.0" type="move" name="FRTPMYFJ"/>
      <point x="-44" y="668" name="ZCPWUFSQ"/>
      <point x="-71" y="636" name="ONLKAOHX"/>
      <point x="-98.0" y="604.0" type="curve" name="QGUHNJYT"/>
    </contour>
    <contour>
      <point x="163.0" y="700.0" type="move" name="XDTBHGPQ"/>
      <point x="136" y="668" name="RUXMLKAC"/>
      <point x="109" y="636" name="DCCBHDYC"/>
      <point x="82.0" y="604.0" type="curve" name="IJHTJAEH"/>
    </contour>
  </outline>
</glyph>
<glyph name="caroncmb" format="2">
  <unicode hex="030C"/>
  <anchor x="0" y="497" name="_above"/>
  <anchor x="0" y="698" name="above"/>
  <outline>
    <contour>
      <point x="114.0" y="691.0" type="move" name="EWJYKNEX"/>
      <point x="77.0" y="662.0" name="DXUBHGPP"/>
      <point x="34.0" y="605.0" name="GFJKKHFW"/>
      <point x="2.0" y="605.0" type="curve" smooth="yes" name="STGPFINE"/>
      <point x="-28.0" y="605.0" name="RMEHAYEW"/>
      <point x="-73.0" y="662.0" name="PHLHLOCA"/>
      <point x="-110.0" y="691.0" type="curve" name="WDFILQGZ"/>
    </contour>
  </outline>
</glyph>
<glyph name="gravedoublecmb" format="2">
  <unicode hex="030F"/>
  <anchor x="0" y="497" name="_above"/>
  <anchor x="0" y="708" name="above"/>
  <outline>
    <contour>
      <point x="88.0" y="604.0" type="move" name="ZOWCYOXJ"/>
      <point x="61" y="636" name="GPDNYZAJ"/>
      <point x="34" y="668" name="UNRQPJPX"/>
      <point x="7.0" y="700.0" type="curve" name="VMEAAETF"/>
    </contour>
    <contour>
      <point x="-92.0" y="604.0" type="move" name="QIUELQWY"/>
      <point x="-119" y="636" name="OYAICFZP"/>
      <point x="-146" y="668" name="SCXKHWNE"/>
      <point x="-173.0" y="700.0" type="curve" name="KIHLTWBJ"/>
    </contour>
  </outline>
</glyph>
<glyph name="invertedbrevecmb" format="2">
  <unicode hex="0311"/>
  <anchor x="0" y="497" name="_above"/>
  <anchor x="0" y="715" name="above"/>
  <outline>
    <contour>
      <point x="-114.0" y="598.0" type="move" name="DXOVEHEQ"/>
      <point x="-114.0" y="654.0" name="WRECENPZ"/>
      <point x="-72.0" y="694.0" name="FHKNVOBG"/>
      <point x="0.0" y="694.0" type="curve" smooth="yes" name="LMRLCHIZ"/>
      <point x="72.0" y="694.0" name="ZEHQDOFQ"/>
      <point x="114.0" y="654.0" name="ESMHZHTK"/>
      <point x="114.0" y="598.0" type="curve" name="FHVYNUEM"/>
    </contour>
  </outline>
</glyph>
<glyph name="commaturnedabovecmb" format="2">
  <unicode hex="0312"/>
  <anchor x="0" y="497" name="_above"/>
  <anchor x="0" y="705" name="above"/>
  <outline>
    <contour>
      <point x="25.0" y="727.0" type="move" name="TNFFAJHB"/>
      <point x="1.0" y="686.0" name="OFWHJKRK"/>
      <point x="-4.0" y="640.0" name="NIJMXSXR"/>
      <point x="-4.0" y="601.0" type="curve" name="SSTSXFWW"/>
    </contour>
  </outline>
</glyph>
<glyph name="dotbelowcmb" format="2">
  <unicode hex="0323"/>
  <anchor x="0" y="0" name="_below"/>
  <anchor x="0" y="-216" name="below"/>
  <outline>
    <contour>
      <point x="6.0" y="-183.0" type="move" name="WLNMCDPX"/>
      <point x="-28.0" y="-178.0" name="LJGJJHTX"/>
      <point x="-28.0" y="-144.0" name="UQOKXDFY"/>
      <point x="6.0" y="-139.0" type="curve" name="FIXZRVWH"/>
    </contour>
  </outline>
</glyph>
